<svg width="548" height="385" viewBox="0 0 548 385" fill="none" xmlns="http://www.w3.org/2000/svg">
<g filter="url(#filter0_d_1923_10374)">
<path d="M361.385 27.3194C359.86 19.6949 365.323 12.4453 373.072 11.8094L501.802 1.24701C509.776 0.592717 516.444 7.22665 515.83 15.2041L511.466 71.9402C510.927 78.9491 504.915 84.2605 497.893 83.932L381.675 78.4949C375.711 78.2159 370.703 73.9109 369.532 68.056L361.385 27.3194Z" fill="#EBE6F0"/>
</g>
<g filter="url(#filter1_d_1923_10374)">
<path d="M175.179 25.9658C175.894 18.8106 170.667 12.4332 163.51 11.7307L56.254 1.20252C49.3822 0.52799 43.1814 5.3419 42.1315 12.1664L33.4167 68.8126C32.1674 76.9334 38.6692 84.1629 46.8765 83.779L158.759 78.5447C165.201 78.2433 170.449 73.2662 171.09 66.8494L175.179 25.9658Z" fill="white"/>
</g>
<g filter="url(#filter2_d_1923_10374)">
<path d="M370.547 135.92C371.114 129.681 376.048 124.734 382.285 124.15L497.264 113.392C504.525 112.713 510.926 118.138 511.445 125.412L515.961 188.636C516.515 196.384 510.196 202.886 502.435 202.554L378.653 197.259C371.233 196.941 365.586 190.485 366.258 183.09L370.547 135.92Z" fill="white"/>
</g>
<g filter="url(#filter3_d_1923_10374)">
<path d="M177.173 139.195C178.543 131.661 173.14 124.581 165.512 123.914L46.1892 113.482C38.2192 112.785 31.5163 119.382 32.0863 127.362L36.5945 190.477C37.0985 197.534 43.1522 202.893 50.2182 202.537L156.426 197.194C162.458 196.89 167.486 192.474 168.567 186.533L177.173 139.195Z" fill="#FFEEEF"/>
</g>
<g filter="url(#filter4_d_1923_10374)">
<path d="M361.506 258.732C359.939 250.898 365.741 243.517 373.723 243.189L501.212 237.959C509.391 237.623 515.842 244.838 514.597 252.928L505.868 309.666C504.818 316.491 498.618 321.305 491.746 320.63L381.116 309.771C375.419 309.212 370.758 304.993 369.635 299.38L361.506 258.732Z" fill="#FFEEEF"/>
</g>
<g filter="url(#filter5_d_1923_10374)">
<path d="M175.045 258.11C175.811 250.455 169.799 243.813 162.106 243.813H49.4664C42.7035 243.813 37.0696 248.997 36.508 255.736L32.2894 306.36C31.6171 314.427 38.3996 321.14 46.4592 320.386L159.311 309.827C165.504 309.248 170.42 304.363 171.039 298.174L175.045 258.11Z" fill="#EBE6F0"/>
</g>
<path fill-rule="evenodd" clip-rule="evenodd" d="M416.8 32.7338C416.8 37.9955 412.535 42.2609 407.273 42.2609C402.011 42.2609 397.746 37.9955 397.746 32.7338C397.746 27.4722 402.011 23.2068 407.273 23.2068C412.535 23.2068 416.8 27.4722 416.8 32.7338ZM412.989 32.7338C412.989 35.8908 410.43 38.4501 407.273 38.4501C404.116 38.4501 401.557 35.8908 401.557 32.7338C401.557 29.5769 404.116 27.0176 407.273 27.0176C410.43 27.0176 412.989 29.5769 412.989 32.7338Z" fill="#FF9595"/>
<path d="M393.916 59.6807L393.918 59.6705C393.92 59.6555 393.924 59.6285 393.931 59.5904C393.945 59.5143 393.967 59.3939 394.001 59.2357C394.069 58.9189 394.182 58.4533 394.356 57.889C394.708 56.7539 395.298 55.2553 396.253 53.771C398.122 50.8625 401.383 47.9771 407.273 47.9771C413.164 47.9771 416.424 50.8625 418.294 53.771C419.248 55.2553 419.839 56.7539 420.19 57.889C420.365 58.4533 420.478 58.9189 420.545 59.2357C420.579 59.3939 420.602 59.5143 420.615 59.5904C420.622 59.6285 420.626 59.6555 420.629 59.6705L420.63 59.6807L420.631 59.6841C420.782 60.7231 421.746 61.4445 422.786 61.2959C423.828 61.1471 424.552 60.1819 424.403 59.1401L422.517 59.4096C424.403 59.1401 424.403 59.1392 424.402 59.1382L424.402 59.1359L424.401 59.1304L424.399 59.1158L424.392 59.0722C424.387 59.0368 424.379 58.9888 424.368 58.9292C424.347 58.81 424.316 58.6438 424.272 58.4373C424.183 58.0247 424.043 57.4483 423.831 56.7622C423.408 55.3963 422.689 53.5605 421.499 51.7103C419.082 47.9499 414.721 44.1663 407.273 44.1663C399.826 44.1663 395.464 47.9499 393.047 51.7103C391.858 53.5605 391.139 55.3963 390.716 56.7622C390.503 57.4483 390.363 58.0247 390.275 58.4373C390.23 58.6438 390.199 58.81 390.178 58.9292C390.168 58.9888 390.16 59.0368 390.154 59.0722L390.147 59.1158L390.145 59.1304L390.144 59.1359L390.144 59.1382C390.144 59.1392 390.144 59.1401 392.03 59.4096L390.144 59.1401C389.995 60.1819 390.719 61.1471 391.76 61.2959C392.801 61.4445 393.764 60.7231 393.915 59.684L393.916 59.6807Z" fill="#FF9595"/>
<rect x="439.666" y="28.6055" width="35.5677" height="5.0811" rx="1.27027" fill="#FF9595"/>
<rect x="439.667" y="40.6731" width="51.4461" height="5.0811" rx="1.27027" fill="#FF9595" fill-opacity="0.32"/>
<rect x="439.666" y="50.8352" width="41.2839" height="5.0811" rx="1.27027" fill="#FF9595" fill-opacity="0.32"/>
<path fill-rule="evenodd" clip-rule="evenodd" d="M124.698 32.7338C124.698 37.9955 128.964 42.2609 134.225 42.2609C139.487 42.2609 143.752 37.9955 143.752 32.7338C143.752 27.4722 139.487 23.2068 134.225 23.2068C128.964 23.2068 124.698 27.4722 124.698 32.7338ZM128.509 32.7338C128.509 35.8908 131.068 38.4501 134.225 38.4501C137.382 38.4501 139.942 35.8908 139.942 32.7338C139.942 29.5769 137.382 27.0176 134.225 27.0176C131.068 27.0176 128.509 29.5769 128.509 32.7338Z" fill="#FF9595"/>
<path d="M147.582 59.6807L147.581 59.6705C147.578 59.6555 147.574 59.6285 147.567 59.5904C147.554 59.5143 147.531 59.3939 147.497 59.2357C147.429 58.9189 147.317 58.4533 147.142 57.889C146.791 56.7539 146.2 55.2553 145.246 53.771C143.376 50.8625 140.115 47.9771 134.225 47.9771C128.335 47.9771 125.074 50.8625 123.205 53.771C122.25 55.2553 121.659 56.7539 121.308 57.889C121.133 58.4533 121.021 58.9189 120.953 59.2357C120.919 59.3939 120.896 59.5143 120.883 59.5904C120.876 59.6285 120.872 59.6555 120.869 59.6705L120.868 59.6807L120.867 59.6841C120.716 60.7231 119.752 61.4445 118.712 61.2959C117.671 61.1471 116.947 60.1819 117.096 59.1401L118.982 59.4096C117.096 59.1401 117.096 59.1392 117.096 59.1382L117.096 59.1359L117.097 59.1304L117.099 59.1158L117.106 59.0722C117.112 59.0368 117.119 58.9888 117.13 58.9292C117.151 58.81 117.182 58.6438 117.227 58.4373C117.315 58.0247 117.455 57.4483 117.668 56.7622C118.09 55.3963 118.81 53.5605 119.999 51.7103C122.416 47.9499 126.778 44.1663 134.225 44.1663C141.673 44.1663 146.034 47.9499 148.451 51.7103C149.641 53.5605 150.36 55.3963 150.782 56.7622C150.995 57.4483 151.135 58.0247 151.224 58.4373C151.268 58.6438 151.299 58.81 151.32 58.9292C151.331 58.9888 151.339 59.0368 151.344 59.0722L151.351 59.1158L151.353 59.1304L151.354 59.1359L151.354 59.1382C151.354 59.1392 151.355 59.1401 149.468 59.4096L151.355 59.1401C151.503 60.1819 150.78 61.1471 149.738 61.2959C148.698 61.4445 147.734 60.7231 147.583 59.684L147.582 59.6807Z" fill="#FF9595"/>
<rect width="35.5677" height="5.0811" rx="1.27027" transform="matrix(-1 0 0 1 101.832 28.6055)" fill="#FF9595"/>
<rect width="51.4461" height="5.0811" rx="1.27027" transform="matrix(-1 0 0 1 101.832 40.6731)" fill="#FF9595" fill-opacity="0.32"/>
<rect width="41.2839" height="5.0811" rx="1.27027" transform="matrix(-1 0 0 1 101.832 50.8352)" fill="#FF9595" fill-opacity="0.32"/>
<path fill-rule="evenodd" clip-rule="evenodd" d="M416.8 151.389C416.8 156.651 412.535 160.916 407.273 160.916C402.011 160.916 397.746 156.651 397.746 151.389C397.746 146.128 402.011 141.862 407.273 141.862C412.535 141.862 416.8 146.128 416.8 151.389ZM412.989 151.389C412.989 154.546 410.43 157.106 407.273 157.106C404.116 157.106 401.557 154.546 401.557 151.389C401.557 148.232 404.116 145.673 407.273 145.673C410.43 145.673 412.989 148.232 412.989 151.389Z" fill="#FF9595"/>
<path d="M393.916 178.336L393.918 178.326C393.92 178.311 393.924 178.284 393.931 178.246C393.945 178.17 393.967 178.049 394.001 177.891C394.069 177.574 394.182 177.109 394.356 176.544C394.708 175.409 395.298 173.911 396.253 172.427C398.122 169.518 401.383 166.633 407.273 166.633C413.164 166.633 416.424 169.518 418.294 172.427C419.248 173.911 419.839 175.409 420.19 176.544C420.365 177.109 420.478 177.574 420.545 177.891C420.579 178.049 420.602 178.17 420.615 178.246C420.622 178.284 420.626 178.311 420.629 178.326L420.63 178.336L420.631 178.34C420.782 179.379 421.746 180.1 422.786 179.951C423.828 179.803 424.552 178.837 424.403 177.796L422.517 178.065C424.403 177.796 424.403 177.795 424.402 177.794L424.402 177.791L424.401 177.786L424.399 177.771L424.392 177.728C424.387 177.692 424.379 177.644 424.368 177.585C424.347 177.466 424.316 177.299 424.272 177.093C424.183 176.68 424.043 176.104 423.831 175.418C423.408 174.052 422.689 172.216 421.499 170.366C419.082 166.605 414.721 162.822 407.273 162.822C399.826 162.822 395.464 166.605 393.047 170.366C391.858 172.216 391.139 174.052 390.716 175.418C390.503 176.104 390.363 176.68 390.275 177.093C390.23 177.299 390.199 177.466 390.178 177.585C390.168 177.644 390.16 177.692 390.154 177.728L390.147 177.771L390.145 177.786L390.144 177.791L390.144 177.794C390.144 177.795 390.144 177.796 392.03 178.065L390.144 177.796C389.995 178.837 390.719 179.803 391.76 179.951C392.801 180.1 393.764 179.379 393.915 178.34L393.916 178.336Z" fill="#FF9595"/>
<rect x="439.666" y="147.261" width="35.5677" height="5.0811" rx="1.27027" fill="#FF9595"/>
<rect x="439.667" y="159.329" width="51.4461" height="5.0811" rx="1.27027" fill="#FF9595" fill-opacity="0.32"/>
<rect x="439.666" y="169.491" width="41.2839" height="5.0811" rx="1.27027" fill="#FF9595" fill-opacity="0.32"/>
<path fill-rule="evenodd" clip-rule="evenodd" d="M124.698 151.389C124.698 156.651 128.964 160.916 134.225 160.916C139.487 160.916 143.752 156.651 143.752 151.389C143.752 146.128 139.487 141.862 134.225 141.862C128.964 141.862 124.698 146.128 124.698 151.389ZM128.509 151.389C128.509 154.546 131.068 157.106 134.225 157.106C137.382 157.106 139.942 154.546 139.942 151.389C139.942 148.232 137.382 145.673 134.225 145.673C131.068 145.673 128.509 148.232 128.509 151.389Z" fill="#FF9595"/>
<path d="M147.582 178.336L147.581 178.326C147.578 178.311 147.574 178.284 147.567 178.246C147.554 178.17 147.531 178.049 147.497 177.891C147.429 177.574 147.317 177.109 147.142 176.544C146.791 175.409 146.2 173.911 145.246 172.427C143.376 169.518 140.115 166.633 134.225 166.633C128.335 166.633 125.074 169.518 123.205 172.427C122.25 173.911 121.659 175.409 121.308 176.544C121.133 177.109 121.021 177.574 120.953 177.891C120.919 178.049 120.896 178.17 120.883 178.246C120.876 178.284 120.872 178.311 120.869 178.326L120.868 178.336L120.867 178.34C120.716 179.379 119.752 180.1 118.712 179.951C117.671 179.803 116.947 178.837 117.096 177.796L118.982 178.065C117.096 177.796 117.096 177.795 117.096 177.794L117.096 177.791L117.097 177.786L117.099 177.771L117.106 177.728C117.112 177.692 117.119 177.644 117.13 177.585C117.151 177.466 117.182 177.299 117.227 177.093C117.315 176.68 117.455 176.104 117.668 175.418C118.09 174.052 118.81 172.216 119.999 170.366C122.416 166.605 126.778 162.822 134.225 162.822C141.673 162.822 146.034 166.605 148.451 170.366C149.641 172.216 150.36 174.052 150.782 175.418C150.995 176.104 151.135 176.68 151.224 177.093C151.268 177.299 151.299 177.466 151.32 177.585C151.331 177.644 151.339 177.692 151.344 177.728L151.351 177.771L151.353 177.786L151.354 177.791L151.354 177.794C151.354 177.795 151.355 177.796 149.468 178.065L151.355 177.796C151.503 178.837 150.78 179.803 149.738 179.951C148.698 180.1 147.734 179.379 147.583 178.34L147.582 178.336Z" fill="#FF9595"/>
<rect width="35.5677" height="5.0811" rx="1.27027" transform="matrix(-1 0 0 1 101.832 147.261)" fill="#FF9595"/>
<rect width="51.4461" height="5.0811" rx="1.27027" transform="matrix(-1 0 0 1 101.832 159.329)" fill="#FF9595" fill-opacity="0.32"/>
<rect width="41.2839" height="5.0811" rx="1.27027" transform="matrix(-1 0 0 1 101.832 169.491)" fill="#FF9595" fill-opacity="0.32"/>
<path fill-rule="evenodd" clip-rule="evenodd" d="M416.8 270.045C416.8 275.306 412.535 279.572 407.273 279.572C402.011 279.572 397.746 275.306 397.746 270.045C397.746 264.783 402.011 260.518 407.273 260.518C412.535 260.518 416.8 264.783 416.8 270.045ZM412.989 270.045C412.989 273.202 410.43 275.761 407.273 275.761C404.116 275.761 401.557 273.202 401.557 270.045C401.557 266.888 404.116 264.328 407.273 264.328C410.43 264.328 412.989 266.888 412.989 270.045Z" fill="#FF9595"/>
<path d="M393.916 296.992L393.918 296.981C393.92 296.966 393.924 296.939 393.931 296.901C393.945 296.825 393.967 296.705 394.001 296.547C394.069 296.23 394.182 295.764 394.356 295.2C394.708 294.065 395.298 292.566 396.253 291.082C398.122 288.173 401.383 285.288 407.273 285.288C413.164 285.288 416.424 288.173 418.294 291.082C419.248 292.566 419.839 294.065 420.19 295.2C420.365 295.764 420.478 296.23 420.545 296.547C420.579 296.705 420.602 296.825 420.615 296.901C420.622 296.939 420.626 296.966 420.629 296.981L420.63 296.992L420.631 296.995C420.782 298.034 421.746 298.755 422.786 298.607C423.828 298.458 424.552 297.493 424.403 296.451L422.517 296.72C424.403 296.451 424.403 296.45 424.402 296.449L424.402 296.447L424.401 296.441L424.399 296.427L424.392 296.383C424.387 296.348 424.379 296.3 424.368 296.24C424.347 296.121 424.316 295.955 424.272 295.748C424.183 295.335 424.043 294.759 423.831 294.073C423.408 292.707 422.689 290.871 421.499 289.021C419.082 285.261 414.721 281.477 407.273 281.477C399.826 281.477 395.464 285.261 393.047 289.021C391.858 290.871 391.139 292.707 390.716 294.073C390.503 294.759 390.363 295.335 390.275 295.748C390.23 295.955 390.199 296.121 390.178 296.24C390.168 296.3 390.16 296.348 390.154 296.383L390.147 296.427L390.145 296.441L390.144 296.447L390.144 296.449C390.144 296.45 390.144 296.451 392.03 296.72L390.144 296.451C389.995 297.493 390.719 298.458 391.76 298.607C392.801 298.755 393.764 298.034 393.915 296.995L393.916 296.992Z" fill="#FF9595"/>
<rect x="439.666" y="265.916" width="35.5677" height="5.0811" rx="1.27027" fill="#FF9595"/>
<rect x="439.667" y="277.984" width="51.4461" height="5.0811" rx="1.27027" fill="#FF9595" fill-opacity="0.32"/>
<rect x="439.666" y="288.146" width="41.2839" height="5.0811" rx="1.27027" fill="#FF9595" fill-opacity="0.32"/>
<path fill-rule="evenodd" clip-rule="evenodd" d="M124.698 270.045C124.698 275.307 128.964 279.572 134.225 279.572C139.487 279.572 143.752 275.307 143.752 270.045C143.752 264.783 139.487 260.518 134.225 260.518C128.964 260.518 124.698 264.783 124.698 270.045ZM128.509 270.045C128.509 273.202 131.068 275.761 134.225 275.761C137.382 275.761 139.942 273.202 139.942 270.045C139.942 266.888 137.382 264.329 134.225 264.329C131.068 264.329 128.509 266.888 128.509 270.045Z" fill="#FF9595"/>
<path d="M147.582 296.992L147.581 296.982C147.578 296.967 147.574 296.94 147.567 296.901C147.554 296.825 147.531 296.705 147.497 296.547C147.429 296.23 147.317 295.764 147.142 295.2C146.791 294.065 146.2 292.566 145.246 291.082C143.376 288.173 140.115 285.288 134.225 285.288C128.335 285.288 125.074 288.173 123.205 291.082C122.25 292.566 121.659 294.065 121.308 295.2C121.133 295.764 121.021 296.23 120.953 296.547C120.919 296.705 120.896 296.825 120.883 296.901C120.876 296.94 120.872 296.967 120.869 296.982L120.868 296.992L120.867 296.995C120.716 298.034 119.752 298.755 118.712 298.607C117.671 298.458 116.947 297.493 117.096 296.451L118.982 296.721C117.096 296.451 117.096 296.45 117.096 296.449L117.096 296.447L117.097 296.441L117.099 296.427L117.106 296.383C117.112 296.348 117.119 296.3 117.13 296.24C117.151 296.121 117.182 295.955 117.227 295.748C117.315 295.336 117.455 294.759 117.668 294.073C118.09 292.707 118.81 290.872 119.999 289.021C122.416 285.261 126.778 281.477 134.225 281.477C141.673 281.477 146.034 285.261 148.451 289.021C149.641 290.872 150.36 292.707 150.782 294.073C150.995 294.759 151.135 295.336 151.224 295.748C151.268 295.955 151.299 296.121 151.32 296.24C151.331 296.3 151.339 296.348 151.344 296.383L151.351 296.427L151.353 296.441L151.354 296.447L151.354 296.449C151.354 296.45 151.355 296.451 149.468 296.721L151.355 296.451C151.503 297.493 150.78 298.458 149.738 298.607C148.698 298.755 147.734 298.034 147.583 296.995L147.582 296.992Z" fill="#FF9595"/>
<rect width="35.5677" height="5.0811" rx="1.27027" transform="matrix(-1 0 0 1 101.832 265.917)" fill="#FF9595"/>
<rect width="51.4461" height="5.0811" rx="1.27027" transform="matrix(-1 0 0 1 101.832 277.984)" fill="#FF9595" fill-opacity="0.32"/>
<rect width="41.2839" height="5.0811" rx="1.27027" transform="matrix(-1 0 0 1 101.832 288.146)" fill="#FF9595" fill-opacity="0.32"/>
<path fill-rule="evenodd" clip-rule="evenodd" d="M247.506 128.57C248.389 128.57 249.237 128.921 249.862 129.546C250.487 130.171 250.838 131.019 250.838 131.902V138.903C253.61 136.075 257.057 133.999 260.853 132.871C264.649 131.743 268.67 131.6 272.537 132.456C276.404 133.311 279.99 135.136 282.956 137.76C285.923 140.384 288.172 143.72 289.493 147.453C289.654 147.869 289.729 148.313 289.715 148.758C289.701 149.203 289.597 149.641 289.411 150.046C289.225 150.451 288.959 150.814 288.63 151.114C288.301 151.414 287.915 151.645 287.494 151.794C287.074 151.942 286.629 152.005 286.184 151.978C285.739 151.951 285.305 151.836 284.905 151.638C284.506 151.44 284.151 151.164 283.86 150.827C283.569 150.489 283.349 150.097 283.212 149.673C282.207 146.83 280.448 144.313 278.125 142.39C275.802 140.468 273 139.212 270.019 138.756C267.038 138.3 263.989 138.662 261.198 139.802C258.406 140.942 255.976 142.818 254.166 145.231H264.166C265.05 145.231 265.897 145.582 266.522 146.207C267.147 146.832 267.498 147.679 267.498 148.563C267.498 149.447 267.147 150.294 266.522 150.919C265.897 151.544 265.05 151.895 264.166 151.895H247.506C246.622 151.895 245.774 151.544 245.149 150.919C244.525 150.294 244.173 149.447 244.173 148.563V131.902C244.173 131.019 244.525 130.171 245.149 129.546C245.774 128.921 246.622 128.57 247.506 128.57ZM247.532 158.749C247.945 158.603 248.382 158.54 248.819 158.564C249.256 158.587 249.684 158.696 250.079 158.885C250.474 159.074 250.828 159.338 251.12 159.664C251.413 159.989 251.638 160.369 251.784 160.782C252.79 163.625 254.548 166.141 256.872 168.064C259.195 169.986 261.996 171.242 264.977 171.698C267.958 172.154 271.007 171.793 273.799 170.652C276.59 169.512 279.02 167.636 280.83 165.223H270.83C269.947 165.223 269.099 164.872 268.474 164.248C267.849 163.623 267.498 162.775 267.498 161.891C267.498 161.008 267.849 160.16 268.474 159.535C269.099 158.91 269.947 158.559 270.83 158.559H287.491C288.375 158.559 289.222 158.91 289.847 159.535C290.472 160.16 290.823 161.008 290.823 161.891V178.552C290.823 179.436 290.472 180.283 289.847 180.908C289.222 181.533 288.375 181.884 287.491 181.884C286.607 181.884 285.76 181.533 285.135 180.908C284.51 180.283 284.159 179.436 284.159 178.552V171.551C281.386 174.379 277.94 176.455 274.143 177.583C270.347 178.711 266.326 178.854 262.459 177.999C258.592 177.143 255.007 175.318 252.04 172.694C249.074 170.07 246.824 166.734 245.503 163.001C245.357 162.588 245.294 162.151 245.317 161.714C245.341 161.277 245.45 160.849 245.639 160.454C245.827 160.059 246.092 159.705 246.418 159.413C246.743 159.12 247.123 158.895 247.536 158.749H247.532Z" fill="#FF6984"/>
<circle cx="173.224" cy="42.261" r="5.68896" fill="#734C92"/>
<path d="M180.539 42.2609C214.202 42.2609 241.492 69.5506 241.492 103.214" stroke="#734C92" stroke-width="0.812709"/>
<path d="M242.195 106.871C241.883 107.413 241.101 107.413 240.788 106.871L237.973 101.995C237.66 101.453 238.051 100.776 238.676 100.776L244.307 100.776C244.933 100.776 245.324 101.453 245.011 101.995L242.195 106.871Z" fill="#734C92"/>
<circle r="5.68896" transform="matrix(4.37114e-08 -1 -1 -4.37114e-08 173.224 273.883)" fill="#734C92"/>
<path d="M180.539 273.883C214.202 273.883 241.492 246.593 241.492 212.93" stroke="#734C92" stroke-width="0.812709"/>
<path d="M240.788 206.835C241.101 206.293 241.883 206.293 242.195 206.835L245.011 211.711C245.324 212.253 244.933 212.93 244.307 212.93H238.676C238.051 212.93 237.66 212.253 237.972 211.711L240.788 206.835Z" fill="#734C92"/>
<circle cx="173.224" cy="160.917" r="5.68896" fill="#734C92"/>
<path d="M180.132 160.917H211.421" stroke="#734C92" stroke-width="0.747584"/>
<path d="M216.704 160.213C217.246 160.526 217.246 161.308 216.704 161.62L211.828 164.436C211.286 164.748 210.609 164.357 210.609 163.732L210.609 158.101C210.609 157.476 211.286 157.085 211.828 157.397L216.704 160.213Z" fill="#734C92"/>
<circle cx="365.836" cy="160.917" r="5.68896" fill="#734C92"/>
<path d="M328.452 160.917H358.522" stroke="#734C92" stroke-width="0.732876"/>
<path d="M322.356 161.62C321.814 161.307 321.814 160.525 322.356 160.213L327.232 157.397C327.774 157.085 328.451 157.476 328.451 158.101L328.451 163.732C328.451 164.357 327.774 164.748 327.232 164.436L322.356 161.62Z" fill="#734C92"/>
<circle cx="365.023" cy="273.883" r="5.68896" transform="rotate(-90 365.023 273.883)" fill="#734C92"/>
<path d="M357.709 273.883C324.046 273.883 296.756 246.593 296.756 212.93" stroke="#734C92" stroke-width="0.812709"/>
<path d="M296.052 206.835C296.365 206.293 297.147 206.293 297.46 206.835L300.275 211.711C300.588 212.253 300.197 212.93 299.571 212.93H293.941C293.315 212.93 292.924 212.253 293.237 211.711L296.052 206.835Z" fill="#734C92"/>
<circle cx="365.023" cy="39.8228" r="5.68896" fill="#734C92"/>
<path d="M296.756 100.776C296.756 67.1124 324.046 39.8228 357.709 39.8228" stroke="#734C92" stroke-width="0.812709"/>
<path d="M297.46 106.871C297.147 107.413 296.365 107.413 296.052 106.871L293.237 101.995C292.924 101.453 293.315 100.776 293.941 100.776L299.571 100.776C300.197 100.776 300.588 101.453 300.275 101.995L297.46 106.871Z" fill="#734C92"/>
<defs>
<filter id="filter0_d_1923_10374" x="329.129" y="1.20239" width="218.741" height="146.744" filterUnits="userSpaceOnUse" color-interpolation-filters="sRGB">
<feFlood flood-opacity="0" result="BackgroundImageFix"/>
<feColorMatrix in="SourceAlpha" type="matrix" values="0 0 0 0 0 0 0 0 0 0 0 0 0 0 0 0 0 0 127 0" result="hardAlpha"/>
<feOffset dy="32"/>
<feGaussianBlur stdDeviation="16"/>
<feComposite in2="hardAlpha" operator="out"/>
<feColorMatrix type="matrix" values="0 0 0 0 0 0 0 0 0 0 0 0 0 0 0 0 0 0 0.08 0"/>
<feBlend mode="normal" in2="BackgroundImageFix" result="effect1_dropShadow_1923_10374"/>
<feBlend mode="normal" in="SourceGraphic" in2="effect1_dropShadow_1923_10374" result="shape"/>
</filter>
<filter id="filter1_d_1923_10374" x="1.26233" y="1.1394" width="205.982" height="146.654" filterUnits="userSpaceOnUse" color-interpolation-filters="sRGB">
<feFlood flood-opacity="0" result="BackgroundImageFix"/>
<feColorMatrix in="SourceAlpha" type="matrix" values="0 0 0 0 0 0 0 0 0 0 0 0 0 0 0 0 0 0 127 0" result="hardAlpha"/>
<feOffset dy="32"/>
<feGaussianBlur stdDeviation="16"/>
<feComposite in2="hardAlpha" operator="out"/>
<feColorMatrix type="matrix" values="0 0 0 0 0 0 0 0 0 0 0 0 0 0 0 0 0 0 0.08 0"/>
<feBlend mode="normal" in2="BackgroundImageFix" result="effect1_dropShadow_1923_10374"/>
<feBlend mode="normal" in="SourceGraphic" in2="effect1_dropShadow_1923_10374" result="shape"/>
</filter>
<filter id="filter2_d_1923_10374" x="334.204" y="113.335" width="213.791" height="153.232" filterUnits="userSpaceOnUse" color-interpolation-filters="sRGB">
<feFlood flood-opacity="0" result="BackgroundImageFix"/>
<feColorMatrix in="SourceAlpha" type="matrix" values="0 0 0 0 0 0 0 0 0 0 0 0 0 0 0 0 0 0 127 0" result="hardAlpha"/>
<feOffset dy="32"/>
<feGaussianBlur stdDeviation="16"/>
<feComposite in2="hardAlpha" operator="out"/>
<feColorMatrix type="matrix" values="0 0 0 0 0 0 0 0 0 0 0 0 0 0 0 0 0 0 0.08 0"/>
<feBlend mode="normal" in2="BackgroundImageFix" result="effect1_dropShadow_1923_10374"/>
<feBlend mode="normal" in="SourceGraphic" in2="effect1_dropShadow_1923_10374" result="shape"/>
</filter>
<filter id="filter3_d_1923_10374" x="0.0523682" y="113.431" width="209.334" height="153.123" filterUnits="userSpaceOnUse" color-interpolation-filters="sRGB">
<feFlood flood-opacity="0" result="BackgroundImageFix"/>
<feColorMatrix in="SourceAlpha" type="matrix" values="0 0 0 0 0 0 0 0 0 0 0 0 0 0 0 0 0 0 127 0" result="hardAlpha"/>
<feOffset dy="32"/>
<feGaussianBlur stdDeviation="16"/>
<feComposite in2="hardAlpha" operator="out"/>
<feColorMatrix type="matrix" values="0 0 0 0 0 0 0 0 0 0 0 0 0 0 0 0 0 0 0.08 0"/>
<feBlend mode="normal" in2="BackgroundImageFix" result="effect1_dropShadow_1923_10374"/>
<feBlend mode="normal" in="SourceGraphic" in2="effect1_dropShadow_1923_10374" result="shape"/>
</filter>
<filter id="filter4_d_1923_10374" x="329.249" y="237.948" width="217.503" height="146.746" filterUnits="userSpaceOnUse" color-interpolation-filters="sRGB">
<feFlood flood-opacity="0" result="BackgroundImageFix"/>
<feColorMatrix in="SourceAlpha" type="matrix" values="0 0 0 0 0 0 0 0 0 0 0 0 0 0 0 0 0 0 127 0" result="hardAlpha"/>
<feOffset dy="32"/>
<feGaussianBlur stdDeviation="16"/>
<feComposite in2="hardAlpha" operator="out"/>
<feColorMatrix type="matrix" values="0 0 0 0 0 0 0 0 0 0 0 0 0 0 0 0 0 0 0.08 0"/>
<feBlend mode="normal" in2="BackgroundImageFix" result="effect1_dropShadow_1923_10374"/>
<feBlend mode="normal" in="SourceGraphic" in2="effect1_dropShadow_1923_10374" result="shape"/>
</filter>
<filter id="filter5_d_1923_10374" x="0.243286" y="243.813" width="206.868" height="140.632" filterUnits="userSpaceOnUse" color-interpolation-filters="sRGB">
<feFlood flood-opacity="0" result="BackgroundImageFix"/>
<feColorMatrix in="SourceAlpha" type="matrix" values="0 0 0 0 0 0 0 0 0 0 0 0 0 0 0 0 0 0 127 0" result="hardAlpha"/>
<feOffset dy="32"/>
<feGaussianBlur stdDeviation="16"/>
<feComposite in2="hardAlpha" operator="out"/>
<feColorMatrix type="matrix" values="0 0 0 0 0 0 0 0 0 0 0 0 0 0 0 0 0 0 0.08 0"/>
<feBlend mode="normal" in2="BackgroundImageFix" result="effect1_dropShadow_1923_10374"/>
<feBlend mode="normal" in="SourceGraphic" in2="effect1_dropShadow_1923_10374" result="shape"/>
</filter>
</defs>
</svg>
