<svg width="562" height="428" viewBox="0 0 562 428" fill="none" xmlns="http://www.w3.org/2000/svg">
<g filter="url(#filter0_d_1923_10154)">
<path d="M94.3284 79.486C95.8176 69.5627 103.758 61.8603 113.722 60.674L466.189 18.7079C478.645 17.2247 489.869 26.3163 491.004 38.8095L518.335 339.519C519.543 352.817 508.861 364.183 495.514 363.8L78.6805 351.852C65.3245 351.469 55.3085 339.495 57.2915 326.282L94.3284 79.486Z" fill="#FF6984"/>
</g>
<g clip-path="url(#clip0_1923_10154)">
<g clip-path="url(#clip1_1923_10154)">
<g clip-path="url(#clip2_1923_10154)">
<path d="M124 169C124 155.745 134.745 145 148 145H372C385.255 145 396 155.745 396 169V376C396 389.255 385.255 400 372 400H148C134.745 400 124 389.255 124 376V169Z" fill="white"/>
<g clip-path="url(#clip3_1923_10154)">
<rect x="158.775" y="190.962" width="13.1184" height="13.9383" rx="1.6398" fill="#FF6984"/>
<path d="M161.747 197.419L164.514 200.186L171.894 192.807" stroke="black" stroke-width="1.6398" stroke-linecap="round" stroke-linejoin="round"/>
<path d="M171.893 198.341V203.875C171.893 204.365 171.699 204.834 171.353 205.18C171.007 205.526 170.538 205.72 170.049 205.72H158.98C158.491 205.72 158.021 205.526 157.675 205.18C157.329 204.834 157.135 204.365 157.135 203.875V192.807C157.135 192.317 157.329 191.848 157.675 191.502C158.021 191.156 158.491 190.962 158.98 190.962H167.281" stroke="black" stroke-width="1.6398" stroke-linecap="round" stroke-linejoin="round"/>
<path d="M183.089 193.794H181.83V202.142H183.089V193.794ZM186.045 198.425C186.045 197.426 186.656 196.855 187.504 196.855C188.331 196.855 188.833 197.397 188.833 198.306V202.142H190.052V198.16C190.052 196.611 189.2 195.8 187.92 195.8C186.978 195.8 186.363 196.236 186.073 196.9H185.996V195.881H184.826V202.142H186.045V198.425ZM196.378 197.41C196.125 196.435 195.363 195.8 194.01 195.8C192.595 195.8 191.592 196.545 191.592 197.654C191.592 198.543 192.13 199.134 193.304 199.395L194.364 199.627C194.968 199.762 195.249 200.031 195.249 200.422C195.249 200.907 194.731 201.286 193.932 201.286C193.203 201.286 192.734 200.972 192.587 200.357L191.409 200.536C191.613 201.645 192.534 202.268 193.94 202.268C195.453 202.268 196.5 201.465 196.5 200.332C196.5 199.448 195.938 198.901 194.788 198.637L193.794 198.408C193.105 198.245 192.807 198.013 192.811 197.589C192.807 197.108 193.329 196.766 194.022 196.766C194.78 196.766 195.131 197.185 195.273 197.605L196.378 197.41ZM201.806 199.546C201.81 200.609 201.02 201.115 200.335 201.115C199.581 201.115 199.059 200.569 199.059 199.717V195.881H197.84V199.863C197.84 201.417 198.692 202.224 199.895 202.224C200.836 202.224 201.476 201.726 201.766 201.058H201.831V202.142H203.029V195.881H201.806V199.546ZM205.886 193.794H204.667V202.142H205.886V193.794ZM207.525 202.142H208.744V195.881H207.525V202.142ZM208.141 194.915C208.561 194.915 208.911 194.589 208.911 194.189C208.911 193.79 208.561 193.46 208.141 193.46C207.717 193.46 207.37 193.79 207.37 194.189C207.37 194.589 207.717 194.915 208.141 194.915ZM211.603 198.425C211.603 197.426 212.214 196.855 213.062 196.855C213.889 196.855 214.391 197.397 214.391 198.306V202.142H215.609V198.16C215.609 196.611 214.758 195.8 213.478 195.8C212.536 195.8 211.92 196.236 211.631 196.9H211.554V195.881H210.384V202.142H211.603V198.425ZM219.881 202.268C221.646 202.268 222.8 200.976 222.8 199.04C222.8 197.092 221.646 195.8 219.881 195.8C218.116 195.8 216.963 197.092 216.963 199.04C216.963 200.976 218.116 202.268 219.881 202.268ZM219.885 201.245C218.732 201.245 218.194 200.238 218.194 199.036C218.194 197.838 218.732 196.819 219.885 196.819C221.031 196.819 221.569 197.838 221.569 199.036C221.569 200.238 221.031 201.245 219.885 201.245ZM226.798 202.268C228.563 202.268 229.716 200.976 229.716 199.04C229.716 197.092 228.563 195.8 226.798 195.8C225.033 195.8 223.879 197.092 223.879 199.04C223.879 200.976 225.033 202.268 226.798 202.268ZM226.802 201.245C225.648 201.245 225.11 200.238 225.11 199.036C225.11 197.838 225.648 196.819 226.802 196.819C227.947 196.819 228.485 197.838 228.485 199.036C228.485 200.238 227.947 201.245 226.802 201.245ZM231.077 204.49H232.295V201.168H232.369C232.589 201.567 233.037 202.264 234.179 202.264C235.695 202.264 236.796 201.05 236.796 199.024C236.796 196.994 235.679 195.8 234.166 195.8C233.005 195.8 232.585 196.509 232.369 196.896H232.267V195.881H231.077V204.49ZM232.271 199.012C232.271 197.703 232.842 196.835 233.906 196.835C235.01 196.835 235.565 197.768 235.565 199.012C235.565 200.267 234.994 201.225 233.906 201.225C232.858 201.225 232.271 200.328 232.271 199.012ZM240.798 202.268C242.563 202.268 243.717 200.976 243.717 199.04C243.717 197.092 242.563 195.8 240.798 195.8C239.033 195.8 237.88 197.092 237.88 199.04C237.88 200.976 239.033 202.268 240.798 202.268ZM240.802 201.245C239.649 201.245 239.111 200.238 239.111 199.036C239.111 197.838 239.649 196.819 240.802 196.819C241.948 196.819 242.486 197.838 242.486 199.036C242.486 200.238 241.948 201.245 240.802 201.245ZM245.077 202.142H246.296V198.319C246.296 197.499 246.928 196.908 247.792 196.908C248.045 196.908 248.33 196.953 248.428 196.982V195.816C248.306 195.8 248.065 195.787 247.91 195.787C247.177 195.787 246.549 196.203 246.321 196.876H246.255V195.881H245.077V202.142ZM250.702 198.425C250.702 197.426 251.313 196.855 252.161 196.855C252.988 196.855 253.49 197.397 253.49 198.306V202.142H254.709V198.16C254.709 196.611 253.857 195.8 252.577 195.8C251.635 195.8 251.02 196.236 250.73 196.9H250.653V195.881H249.483V202.142H250.702V198.425ZM258.98 202.268C260.745 202.268 261.899 200.976 261.899 199.04C261.899 197.092 260.745 195.8 258.98 195.8C257.215 195.8 256.062 197.092 256.062 199.04C256.062 200.976 257.215 202.268 258.98 202.268ZM258.984 201.245C257.831 201.245 257.293 200.238 257.293 199.036C257.293 197.838 257.831 196.819 258.984 196.819C260.13 196.819 260.668 197.838 260.668 199.036C260.668 200.238 260.13 201.245 258.984 201.245ZM267.951 197.41C267.698 196.435 266.936 195.8 265.583 195.8C264.168 195.8 263.166 196.545 263.166 197.654C263.166 198.543 263.704 199.134 264.878 199.395L265.937 199.627C266.541 199.762 266.822 200.031 266.822 200.422C266.822 200.907 266.304 201.286 265.505 201.286C264.776 201.286 264.307 200.972 264.16 200.357L262.982 200.536C263.186 201.645 264.107 202.268 265.514 202.268C267.026 202.268 268.073 201.465 268.073 200.332C268.073 199.448 267.511 198.901 266.361 198.637L265.367 198.408C264.678 198.245 264.38 198.013 264.384 197.589C264.38 197.108 264.902 196.766 265.595 196.766C266.353 196.766 266.704 197.185 266.846 197.605L267.951 197.41ZM265.094 195.045H266.068L267.332 193.166H266.048L265.094 195.045ZM272.051 202.268C273.53 202.268 274.488 201.38 274.623 200.161H273.437C273.282 200.838 272.756 201.237 272.059 201.237C271.028 201.237 270.363 200.377 270.363 199.012C270.363 197.67 271.04 196.827 272.059 196.827C272.833 196.827 273.306 197.316 273.437 197.903H274.623C274.492 196.639 273.461 195.8 272.039 195.8C270.274 195.8 269.132 197.128 269.132 199.04C269.132 200.927 270.233 202.268 272.051 202.268ZM271.525 195.045H272.499L273.763 193.166H272.479L271.525 195.045Z" fill="#333333"/>
</g>
<g clip-path="url(#clip4_1923_10154)">
<rect x="157.136" y="230.317" width="14.7582" height="14.7582" rx="2.4597" fill="white" stroke="#333333" stroke-width="1.6398"/>
<path d="M188.543 233.149H187.549V239.72H187.467L182.902 233.149H181.924V241.498H182.935V234.943H183.016L187.565 241.498H188.543V233.149ZM192.278 241.644C193.371 241.644 193.941 241.057 194.137 240.65H194.186V241.498H195.148V237.372C195.148 235.383 193.632 235.155 192.833 235.155C191.887 235.155 190.811 235.481 190.322 236.622L191.235 236.949C191.447 236.492 191.948 236.003 192.865 236.003C193.75 236.003 194.186 236.472 194.186 237.275V237.307C194.186 237.772 193.713 237.731 192.572 237.878C191.41 238.029 190.142 238.286 190.142 239.72C190.142 240.943 191.088 241.644 192.278 241.644ZM192.425 240.78C191.659 240.78 191.104 240.438 191.104 239.769C191.104 239.036 191.773 238.807 192.523 238.709C192.93 238.661 194.023 238.546 194.186 238.351V239.231C194.186 240.014 193.566 240.78 192.425 240.78ZM199.268 241.628C200.474 241.628 200.882 240.878 201.094 240.536H201.208V241.498H202.138V233.149H201.176V236.231H201.094C200.882 235.905 200.507 235.155 199.284 235.155C197.703 235.155 196.61 236.41 196.61 238.383C196.61 240.373 197.703 241.628 199.268 241.628ZM199.398 240.764C198.192 240.764 197.572 239.704 197.572 238.367C197.572 237.046 198.175 236.019 199.398 236.019C200.572 236.019 201.192 236.965 201.192 238.367C201.192 239.786 200.556 240.764 199.398 240.764ZM206.577 241.628C207.962 241.628 208.876 240.78 209.039 239.671H208.077C207.897 240.356 207.327 240.764 206.577 240.764C205.435 240.764 204.702 239.818 204.702 238.367C204.702 236.949 205.452 236.019 206.577 236.019C207.424 236.019 207.93 236.541 208.077 237.112H209.039C208.876 235.938 207.881 235.155 206.56 235.155C204.865 235.155 203.74 236.492 203.74 238.4C203.74 240.275 204.816 241.628 206.577 241.628ZM210.445 241.498H211.407V235.236H210.445V241.498ZM210.934 234.193C211.309 234.193 211.619 233.899 211.619 233.541C211.619 233.182 211.309 232.889 210.934 232.889C210.559 232.889 210.249 233.182 210.249 233.541C210.249 233.899 210.559 234.193 210.934 234.193ZM217.604 236.639C217.302 235.75 216.625 235.155 215.386 235.155C214.066 235.155 213.087 235.905 213.087 236.965C213.087 237.829 213.601 238.408 214.75 238.677L215.794 238.921C216.426 239.068 216.723 239.37 216.723 239.802C216.723 240.34 216.153 240.78 215.256 240.78C214.469 240.78 213.976 240.442 213.805 239.769L212.892 239.998C213.116 241.061 213.992 241.628 215.272 241.628C216.727 241.628 217.718 240.833 217.718 239.753C217.718 238.881 217.172 238.33 216.055 238.057L215.125 237.829C214.384 237.646 214.049 237.397 214.049 236.916C214.049 236.378 214.62 235.987 215.386 235.987C216.226 235.987 216.572 236.451 216.74 236.883L217.604 236.639ZM214.946 234.389H215.794L217.066 232.497H215.941L214.946 234.389ZM220.128 237.731C220.128 236.639 220.805 236.019 221.726 236.019C222.619 236.019 223.161 236.602 223.161 237.584V241.498H224.123V237.519C224.123 235.921 223.271 235.155 222.003 235.155C221.057 235.155 220.47 235.579 220.177 236.215H220.095V235.236H219.166V241.498H220.128V237.731ZM225.88 241.498H226.842V235.236H225.88V241.498ZM226.37 234.193C226.745 234.193 227.054 233.899 227.054 233.541C227.054 233.182 226.745 232.889 226.37 232.889C225.995 232.889 225.685 233.182 225.685 233.541C225.685 233.899 225.995 234.193 226.37 234.193ZM231.23 241.628C232.501 241.628 233.431 240.992 233.724 240.046L232.795 239.786C232.55 240.438 231.984 240.764 231.23 240.764C230.1 240.764 229.322 240.034 229.277 238.693H233.822V238.286C233.822 235.954 232.436 235.155 231.132 235.155C229.436 235.155 228.311 236.492 228.311 238.416C228.311 240.34 229.42 241.628 231.23 241.628ZM229.277 237.862C229.342 236.887 230.031 236.019 231.132 236.019C232.175 236.019 232.844 236.802 232.844 237.862H229.277ZM236.247 237.731C236.247 236.639 236.924 236.019 237.845 236.019C238.738 236.019 239.28 236.602 239.28 237.584V241.498H240.242V237.519C240.242 235.921 239.39 235.155 238.122 235.155C237.177 235.155 236.59 235.579 236.296 236.215H236.215V235.236H235.285V241.498H236.247V237.731ZM242 241.498H242.962V235.236H242V241.498ZM242.489 234.193C242.864 234.193 243.174 233.899 243.174 233.541C243.174 233.182 242.864 232.889 242.489 232.889C242.114 232.889 241.804 233.182 241.804 233.541C241.804 233.899 242.114 234.193 242.489 234.193ZM247.349 241.628C248.621 241.628 249.55 240.992 249.844 240.046L248.914 239.786C248.67 240.438 248.103 240.764 247.349 240.764C246.22 240.764 245.441 240.034 245.396 238.693H249.941V238.286C249.941 235.954 248.555 235.155 247.251 235.155C245.555 235.155 244.43 236.492 244.43 238.416C244.43 240.34 245.539 241.628 247.349 241.628ZM245.396 237.862C245.462 236.887 246.15 236.019 247.251 236.019C248.295 236.019 248.963 236.802 248.963 237.862H245.396Z" fill="#333333"/>
</g>
<g clip-path="url(#clip5_1923_10154)">
<rect x="157.136" y="269.672" width="14.7582" height="14.7582" rx="2.4597" fill="white" stroke="#333333" stroke-width="1.6398"/>
<path d="M188.543 272.504H187.549V279.075H187.467L182.902 272.504H181.924V280.853H182.935V274.298H183.016L187.565 280.853H188.543V272.504ZM190.436 280.853H191.398V274.591H190.436V280.853ZM190.925 273.548C191.3 273.548 191.61 273.254 191.61 272.896C191.61 272.537 191.3 272.244 190.925 272.244C190.55 272.244 190.24 272.537 190.24 272.896C190.24 273.254 190.55 273.548 190.925 273.548ZM195.785 280.983C197.057 280.983 197.986 280.347 198.279 279.401L197.35 279.141C197.105 279.793 196.539 280.119 195.785 280.119C194.656 280.119 193.877 279.389 193.832 278.048H198.377V277.64C198.377 275.309 196.991 274.51 195.687 274.51C193.991 274.51 192.866 275.847 192.866 277.771C192.866 279.695 193.975 280.983 195.785 280.983ZM193.832 277.217C193.897 276.242 194.586 275.374 195.687 275.374C196.73 275.374 197.399 276.157 197.399 277.217H193.832ZM202.205 280.983C203.411 280.983 203.819 280.233 204.031 279.891H204.145V280.853H205.074V272.504H204.112V275.586H204.031C203.819 275.26 203.444 274.51 202.221 274.51C200.64 274.51 199.547 275.765 199.547 277.738C199.547 279.728 200.64 280.983 202.205 280.983ZM202.335 280.119C201.129 280.119 200.509 279.059 200.509 277.722C200.509 276.401 201.112 275.374 202.335 275.374C203.509 275.374 204.129 276.32 204.129 277.722C204.129 279.141 203.493 280.119 202.335 280.119ZM209.513 280.983C211.209 280.983 212.351 279.695 212.351 277.755C212.351 275.798 211.209 274.51 209.513 274.51C207.818 274.51 206.676 275.798 206.676 277.755C206.676 279.695 207.818 280.983 209.513 280.983ZM209.513 280.119C208.225 280.119 207.638 279.01 207.638 277.755C207.638 276.499 208.225 275.374 209.513 275.374C210.802 275.374 211.389 276.499 211.389 277.755C211.389 279.01 210.802 280.119 209.513 280.119ZM216.363 280.983C217.748 280.983 218.662 280.135 218.825 279.026H217.863C217.683 279.711 217.113 280.119 216.363 280.119C215.221 280.119 214.487 279.173 214.487 277.722C214.487 276.303 215.237 275.374 216.363 275.374C217.21 275.374 217.716 275.896 217.863 276.467H218.825C218.662 275.293 217.667 274.51 216.346 274.51C214.651 274.51 213.525 275.847 213.525 277.755C213.525 279.63 214.602 280.983 216.363 280.983ZM220.052 280.853H224.959V279.956H221.389V279.891L224.845 275.358V274.591H220.166V275.488H223.606V275.553L220.052 280.119V280.853ZM227.061 283.2C227.929 283.2 228.54 282.74 228.903 281.766L231.569 274.608L230.517 274.591L228.789 279.581H228.724L226.995 274.591H225.952L228.267 280.885L228.088 281.374C227.737 282.328 227.305 282.418 226.604 282.238L226.359 283.086C226.457 283.135 226.734 283.2 227.061 283.2ZM233.804 277.086C233.804 275.994 234.48 275.374 235.402 275.374C236.294 275.374 236.836 275.957 236.836 276.939V280.853H237.798V276.874C237.798 275.276 236.946 274.51 235.679 274.51C234.733 274.51 234.146 274.934 233.853 275.57H233.771V274.591H232.842V280.853H233.804V277.086ZM240.518 277.086C240.518 275.994 241.195 275.374 242.116 275.374C243.009 275.374 243.551 275.957 243.551 276.939V280.853H244.513V276.874C244.513 275.276 243.661 274.51 242.393 274.51C241.448 274.51 240.861 274.934 240.567 275.57H240.486V274.591H239.556V280.853H240.518V277.086ZM248.814 280.983C250.51 280.983 251.651 279.695 251.651 277.755C251.651 275.798 250.51 274.51 248.814 274.51C247.119 274.51 245.977 275.798 245.977 277.755C245.977 279.695 247.119 280.983 248.814 280.983ZM248.814 280.119C247.526 280.119 246.939 279.01 246.939 277.755C246.939 276.499 247.526 275.374 248.814 275.374C250.102 275.374 250.689 276.499 250.689 277.755C250.689 279.01 250.102 280.119 248.814 280.119ZM257.555 275.994C257.253 275.105 256.576 274.51 255.337 274.51C254.017 274.51 253.038 275.26 253.038 276.32C253.038 277.184 253.552 277.763 254.701 278.032L255.745 278.276C256.377 278.423 256.674 278.725 256.674 279.157C256.674 279.695 256.104 280.135 255.207 280.135C254.42 280.135 253.927 279.797 253.756 279.124L252.843 279.352C253.067 280.416 253.943 280.983 255.223 280.983C256.678 280.983 257.669 280.188 257.669 279.108C257.669 278.236 257.123 277.685 256.006 277.412L255.076 277.184C254.335 277.001 254 276.752 254 276.271C254 275.733 254.571 275.341 255.337 275.341C256.177 275.341 256.523 275.806 256.691 276.238L257.555 275.994ZM254.897 273.744H255.745L257.017 271.852H255.892L254.897 273.744ZM261.66 280.983C263.046 280.983 263.959 280.135 264.123 279.026H263.161C262.981 279.711 262.411 280.119 261.66 280.119C260.519 280.119 259.785 279.173 259.785 277.722C259.785 276.303 260.535 275.374 261.66 275.374C262.508 275.374 263.014 275.896 263.161 276.467H264.123C263.959 275.293 262.965 274.51 261.644 274.51C259.948 274.51 258.823 275.847 258.823 277.755C258.823 279.63 259.9 280.983 261.66 280.983ZM261.188 273.744H262.035L263.307 271.852H262.182L261.188 273.744ZM271.48 274.591H270.143V273.091H269.181V274.591H268.235V275.407H269.181V279.32C269.181 280.412 270.062 280.934 270.877 280.934C271.236 280.934 271.464 280.869 271.594 280.82L271.399 279.956C271.317 279.972 271.187 280.005 270.975 280.005C270.551 280.005 270.143 279.874 270.143 279.059V275.407H271.48V274.591ZM274.77 280.999C275.862 280.999 276.433 280.412 276.628 280.005H276.677V280.853H277.639V276.727C277.639 274.738 276.123 274.51 275.324 274.51C274.378 274.51 273.302 274.836 272.813 275.977L273.726 276.303C273.938 275.847 274.439 275.358 275.357 275.358C276.241 275.358 276.677 275.827 276.677 276.63V276.662C276.677 277.127 276.204 277.086 275.063 277.233C273.901 277.384 272.634 277.64 272.634 279.075C272.634 280.298 273.579 280.999 274.77 280.999ZM274.916 280.135C274.15 280.135 273.596 279.793 273.596 279.124C273.596 278.391 274.264 278.162 275.014 278.064C275.422 278.015 276.514 277.901 276.677 277.706V278.586C276.677 279.369 276.058 280.135 274.916 280.135ZM279.395 280.853H280.357V276.89C280.357 276.043 281.026 275.423 281.939 275.423C282.195 275.423 282.46 275.472 282.526 275.488V274.51C282.416 274.502 282.163 274.494 282.02 274.494C281.27 274.494 280.618 274.918 280.39 275.537H280.324V274.591H279.395V280.853ZM286.019 280.983C287.405 280.983 288.318 280.135 288.481 279.026H287.519C287.34 279.711 286.769 280.119 286.019 280.119C284.878 280.119 284.144 279.173 284.144 277.722C284.144 276.303 284.894 275.374 286.019 275.374C286.867 275.374 287.372 275.896 287.519 276.467H288.481C288.318 275.293 287.323 274.51 286.003 274.51C284.307 274.51 283.182 275.847 283.182 277.755C283.182 279.63 284.258 280.983 286.019 280.983ZM289.708 280.853H294.616V279.956H291.045V279.891L294.502 275.358V274.591H289.822V275.488H293.262V275.553L289.708 280.119V280.853ZM296.717 283.2C297.585 283.2 298.197 282.74 298.559 281.766L301.225 274.608L300.174 274.591L298.445 279.581H298.38L296.652 274.591H295.608L297.924 280.885L297.744 281.374C297.394 282.328 296.962 282.418 296.26 282.238L296.016 283.086C296.114 283.135 296.391 283.2 296.717 283.2ZM304.817 280.983C306.203 280.983 307.116 280.135 307.279 279.026H306.317C306.138 279.711 305.567 280.119 304.817 280.119C303.676 280.119 302.942 279.173 302.942 277.722C302.942 276.303 303.692 275.374 304.817 275.374C305.665 275.374 306.171 275.896 306.317 276.467H307.279C307.116 275.293 306.122 274.51 304.801 274.51C303.105 274.51 301.98 275.847 301.98 277.755C301.98 279.63 303.056 280.983 304.817 280.983ZM309.305 283.2C310.174 283.2 310.785 282.74 311.148 281.766L313.814 274.608L312.762 274.591L311.034 279.581H310.968L309.24 274.591H308.197L310.512 280.885L310.333 281.374C309.982 282.328 309.55 282.418 308.849 282.238L308.604 283.086C308.702 283.135 308.979 283.2 309.305 283.2Z" fill="#333333"/>
</g>
<g clip-path="url(#clip6_1923_10154)">
<rect x="157.136" y="309.028" width="14.7582" height="14.7582" rx="2.4597" fill="white" stroke="#333333" stroke-width="1.6398"/>
<path d="M188.967 316.034C188.967 313.393 187.418 311.746 185.282 311.746C183.146 311.746 181.598 313.393 181.598 316.034C181.598 318.675 183.146 320.322 185.282 320.322C187.418 320.322 188.967 318.675 188.967 316.034ZM187.989 316.034C187.989 318.203 186.799 319.376 185.282 319.376C183.766 319.376 182.576 318.203 182.576 316.034C182.576 313.865 183.766 312.691 185.282 312.691C186.799 312.691 187.989 313.865 187.989 316.034ZM193.26 313.947H191.923V312.447H190.961V313.947H190.015V314.762H190.961V318.675C190.961 319.768 191.841 320.29 192.656 320.29C193.015 320.29 193.243 320.224 193.374 320.175L193.178 319.311C193.097 319.328 192.966 319.36 192.754 319.36C192.33 319.36 191.923 319.23 191.923 318.414V314.762H193.26V313.947ZM195.326 322.556C196.194 322.556 196.806 322.095 197.169 321.121L199.835 313.963L198.783 313.947L197.055 318.936H196.989L195.261 313.947H194.217L196.533 320.241L196.353 320.73C196.003 321.684 195.571 321.773 194.87 321.594L194.625 322.442C194.723 322.491 195 322.556 195.326 322.556ZM202.966 314.99L202.069 315.329V311.86H201.107V315.696L200.211 316.034V316.751L201.107 316.413V320.208H202.069V316.046L202.966 315.708V314.99ZM206.375 320.338C208.07 320.338 209.212 319.05 209.212 317.11C209.212 315.154 208.07 313.865 206.375 313.865C204.679 313.865 203.538 315.154 203.538 317.11C203.538 319.05 204.679 320.338 206.375 320.338ZM206.375 319.474C205.087 319.474 204.5 318.366 204.5 317.11C204.5 315.855 205.087 314.73 206.375 314.73C207.663 314.73 208.25 315.855 208.25 317.11C208.25 318.366 207.663 319.474 206.375 319.474ZM215.115 315.349C214.814 314.461 214.137 313.865 212.898 313.865C211.577 313.865 210.599 314.615 210.599 315.675C210.599 316.539 211.112 317.118 212.262 317.387L213.305 317.632C213.937 317.779 214.235 318.08 214.235 318.512C214.235 319.05 213.664 319.491 212.767 319.491C211.981 319.491 211.487 319.152 211.316 318.48L210.403 318.708C210.627 319.772 211.504 320.338 212.784 320.338C214.239 320.338 215.229 319.544 215.229 318.463C215.229 317.591 214.683 317.041 213.566 316.768L212.637 316.539C211.895 316.356 211.561 316.107 211.561 315.626C211.561 315.088 212.131 314.697 212.898 314.697C213.737 314.697 214.084 315.162 214.251 315.594L215.115 315.349ZM212.458 313.099H213.305L214.577 311.208H213.452L212.458 313.099ZM219.221 320.338C220.607 320.338 221.52 319.491 221.683 318.382H220.721C220.542 319.067 219.971 319.474 219.221 319.474C218.08 319.474 217.346 318.529 217.346 317.077C217.346 315.659 218.096 314.73 219.221 314.73C220.069 314.73 220.574 315.251 220.721 315.822H221.683C221.52 314.648 220.525 313.865 219.205 313.865C217.509 313.865 216.384 315.202 216.384 317.11C216.384 318.985 217.46 320.338 219.221 320.338ZM218.748 313.099H219.596L220.868 311.208H219.743L218.748 313.099Z" fill="#333333"/>
</g>
<g clip-path="url(#clip7_1923_10154)">
<rect x="157.136" y="348.383" width="14.7582" height="14.7582" rx="2.4597" fill="white" stroke="#333333" stroke-width="1.6398"/>
<path d="M181.924 359.563H182.935V356.514H184.761C186.705 356.514 187.581 355.332 187.581 353.857C187.581 352.381 186.705 351.215 184.744 351.215H181.924V359.563ZM182.935 355.618V352.112H184.712C186.069 352.112 186.587 352.854 186.587 353.857C186.587 354.86 186.069 355.618 184.728 355.618H182.935ZM189.079 359.563H190.041V355.601C190.041 354.754 190.71 354.134 191.623 354.134C191.88 354.134 192.145 354.183 192.21 354.199V353.221C192.1 353.213 191.847 353.205 191.704 353.205C190.954 353.205 190.302 353.629 190.074 354.248H190.009V353.302H189.079V359.563ZM193.171 359.563H198.079V358.667H194.508V358.601L197.965 354.069V353.302H193.285V354.199H196.725V354.264L193.171 358.83V359.563ZM202.006 359.694C203.278 359.694 204.207 359.058 204.501 358.112L203.571 357.851C203.327 358.504 202.76 358.83 202.006 358.83C200.877 358.83 200.098 358.1 200.054 356.759H204.599V356.351C204.599 354.02 203.213 353.221 201.908 353.221C200.213 353.221 199.088 354.558 199.088 356.482C199.088 358.406 200.196 359.694 202.006 359.694ZM200.054 355.927C200.119 354.953 200.808 354.085 201.908 354.085C202.952 354.085 203.62 354.868 203.62 355.927H200.054ZM207.48 359.563H208.426L209.796 354.754H209.894L211.263 359.563H212.209L214.117 353.302H213.106L211.752 358.08H211.687L210.366 353.302H209.339L208.002 358.096H207.937L206.584 353.302H205.573L207.48 359.563ZM216.35 351.215H215.388V359.563H216.35V351.215ZM220.737 359.694C222.009 359.694 222.938 359.058 223.232 358.112L222.303 357.851C222.058 358.504 221.491 358.83 220.737 358.83C219.608 358.83 218.83 358.1 218.785 356.759H223.33V356.351C223.33 354.02 221.944 353.221 220.639 353.221C218.944 353.221 217.819 354.558 217.819 356.482C217.819 358.406 218.927 359.694 220.737 359.694ZM218.785 355.927C218.85 354.953 219.539 354.085 220.639 354.085C221.683 354.085 222.352 354.868 222.352 355.927H218.785ZM224.793 359.563H225.755V357.22L226.428 356.596L228.772 359.563H229.994L227.153 355.976L229.799 353.302H228.608L225.869 356.091H225.755V351.215H224.793V359.563ZM232.896 354.346L231.999 354.684V351.215H231.037V355.051L230.14 355.389V356.107L231.037 355.769V359.563H231.999V355.402L232.896 355.063V354.346ZM235.603 359.71C236.696 359.71 237.266 359.123 237.462 358.716H237.511V359.563H238.473V355.438C238.473 353.449 236.957 353.221 236.158 353.221C235.212 353.221 234.136 353.547 233.647 354.688L234.56 355.014C234.772 354.558 235.273 354.069 236.19 354.069C237.075 354.069 237.511 354.538 237.511 355.341V355.373C237.511 355.838 237.038 355.797 235.897 355.944C234.735 356.095 233.467 356.351 233.467 357.786C233.467 359.009 234.413 359.71 235.603 359.71ZM235.75 358.846C234.984 358.846 234.429 358.504 234.429 357.835C234.429 357.101 235.098 356.873 235.848 356.775C236.255 356.726 237.348 356.612 237.511 356.417V357.297C237.511 358.08 236.891 358.846 235.75 358.846ZM244.419 355.797C244.419 354.705 245.096 354.085 246.017 354.085C246.91 354.085 247.452 354.668 247.452 355.65V359.563H248.414V355.585C248.414 353.987 247.562 353.221 246.294 353.221C245.348 353.221 244.762 353.645 244.468 354.281H244.387V353.302H243.457V359.563H244.419V355.797ZM250.172 359.563H251.134V353.302H250.172V359.563ZM250.661 352.259C251.036 352.259 251.346 351.965 251.346 351.607C251.346 351.248 251.036 350.955 250.661 350.955C250.286 350.955 249.976 351.248 249.976 351.607C249.976 351.965 250.286 352.259 250.661 352.259ZM255.521 359.694C256.792 359.694 257.722 359.058 258.015 358.112L257.086 357.851C256.841 358.504 256.275 358.83 255.521 358.83C254.392 358.83 253.613 358.1 253.568 356.759H258.113V356.351C258.113 354.02 256.727 353.221 255.423 353.221C253.727 353.221 252.602 354.558 252.602 356.482C252.602 358.406 253.711 359.694 255.521 359.694ZM253.568 355.927C253.633 354.953 254.322 354.085 255.423 354.085C256.466 354.085 257.135 354.868 257.135 355.927H253.568ZM260.995 359.563H261.941L263.31 354.754H263.408L264.778 359.563H265.723L267.631 353.302H266.62L265.267 358.08H265.202L263.881 353.302H262.854L261.517 358.096H261.452L260.098 353.302H259.087L260.995 359.563ZM269.522 361.911C270.391 361.911 271.002 361.451 271.365 360.477L274.031 353.319L272.979 353.302L271.251 358.292H271.186L269.457 353.302H268.414L270.729 359.596L270.55 360.085C270.199 361.039 269.767 361.129 269.066 360.949L268.821 361.797C268.919 361.846 269.196 361.911 269.522 361.911ZM277.444 359.694C278.65 359.694 279.058 358.944 279.27 358.601H279.384V359.563H280.313V351.215H279.351V354.297H279.27C279.058 353.971 278.683 353.221 277.46 353.221C275.878 353.221 274.786 354.476 274.786 356.449C274.786 358.438 275.878 359.694 277.444 359.694ZM277.574 358.83C276.367 358.83 275.748 357.77 275.748 356.433C275.748 355.112 276.351 354.085 277.574 354.085C278.748 354.085 279.368 355.031 279.368 356.433C279.368 357.851 278.732 358.83 277.574 358.83ZM284.752 359.694C286.448 359.694 287.589 358.406 287.589 356.466C287.589 354.509 286.448 353.221 284.752 353.221C283.057 353.221 281.915 354.509 281.915 356.466C281.915 358.406 283.057 359.694 284.752 359.694ZM284.752 358.83C283.464 358.83 282.877 357.721 282.877 356.466C282.877 355.21 283.464 354.085 284.752 354.085C286.04 354.085 286.627 355.21 286.627 356.466C286.627 357.721 286.04 358.83 284.752 358.83ZM290.02 351.215H289.058V359.563H290.02V351.215ZM292.744 355.797C292.744 354.705 293.42 354.085 294.342 354.085C295.234 354.085 295.776 354.668 295.776 355.65V359.563H296.738V355.585C296.738 353.987 295.886 353.221 294.619 353.221C293.673 353.221 293.086 353.645 292.793 354.281H292.711V353.302H291.782V359.563H292.744V355.797ZM301.04 359.694C302.735 359.694 303.877 358.406 303.877 356.466C303.877 354.509 302.735 353.221 301.04 353.221C299.344 353.221 298.203 354.509 298.203 356.466C298.203 358.406 299.344 359.694 301.04 359.694ZM301.04 358.83C299.752 358.83 299.165 357.721 299.165 356.466C299.165 355.21 299.752 354.085 301.04 354.085C302.328 354.085 302.915 355.21 302.915 356.466C302.915 357.721 302.328 358.83 301.04 358.83ZM309.78 354.705C309.479 353.816 308.802 353.221 307.563 353.221C306.242 353.221 305.264 353.971 305.264 355.031C305.264 355.895 305.777 356.474 306.927 356.743L307.97 356.987C308.602 357.134 308.9 357.436 308.9 357.868C308.9 358.406 308.329 358.846 307.432 358.846C306.646 358.846 306.152 358.508 305.981 357.835L305.068 358.063C305.292 359.127 306.169 359.694 307.449 359.694C308.904 359.694 309.894 358.899 309.894 357.819C309.894 356.947 309.348 356.396 308.231 356.123L307.302 355.895C306.56 355.711 306.226 355.463 306.226 354.982C306.226 354.444 306.796 354.052 307.563 354.052C308.402 354.052 308.749 354.517 308.916 354.949L309.78 354.705ZM307.122 352.455H307.97L309.242 350.563H308.117L307.122 352.455ZM313.886 359.694C315.272 359.694 316.185 358.846 316.348 357.737H315.386C315.207 358.422 314.636 358.83 313.886 358.83C312.745 358.83 312.011 357.884 312.011 356.433C312.011 355.014 312.761 354.085 313.886 354.085C314.734 354.085 315.239 354.607 315.386 355.177H316.348C316.185 354.004 315.19 353.221 313.87 353.221C312.174 353.221 311.049 354.558 311.049 356.466C311.049 358.341 312.125 359.694 313.886 359.694ZM313.413 352.455H314.261L315.533 350.563H314.408L313.413 352.455ZM321.945 355.797C321.945 354.705 322.621 354.085 323.543 354.085C324.435 354.085 324.977 354.668 324.977 355.65V359.563H325.939V355.585C325.939 353.987 325.087 353.221 323.82 353.221C322.874 353.221 322.287 353.645 321.994 354.281H321.912V353.302H320.983V359.563H321.945V355.797ZM330.322 359.694C331.594 359.694 332.523 359.058 332.817 358.112L331.888 357.851C331.643 358.504 331.076 358.83 330.322 358.83C329.193 358.83 328.415 358.1 328.37 356.759H332.915V356.351C332.915 354.02 331.529 353.221 330.224 353.221C328.529 353.221 327.404 354.558 327.404 356.482C327.404 358.406 328.512 359.694 330.322 359.694ZM328.37 355.927C328.435 354.953 329.124 354.085 330.224 354.085C331.268 354.085 331.936 354.868 331.936 355.927H328.37ZM334.378 359.563H335.34V355.601C335.34 354.754 336.009 354.134 336.922 354.134C337.178 354.134 337.443 354.183 337.509 354.199V353.221C337.399 353.213 337.146 353.205 337.003 353.205C336.253 353.205 335.601 353.629 335.373 354.248H335.307V353.302H334.378V359.563ZM341.083 359.694C342.355 359.694 343.285 359.058 343.578 358.112L342.649 357.851C342.404 358.504 341.838 358.83 341.083 358.83C339.954 358.83 339.176 358.1 339.131 356.759H343.676V356.351C343.676 354.02 342.29 353.221 340.986 353.221C339.29 353.221 338.165 354.558 338.165 356.482C338.165 358.406 339.274 359.694 341.083 359.694ZM339.131 355.927C339.196 354.953 339.885 354.085 340.986 354.085C342.029 354.085 342.698 354.868 342.698 355.927H339.131ZM345.139 359.563H346.101V357.22L346.774 356.596L349.118 359.563H350.341L347.499 355.976L350.145 353.302H348.955L346.215 356.091H346.101V351.215H345.139V359.563Z" fill="#333333"/>
</g>
<g clip-path="url(#clip8_1923_10154)">
<rect x="156.726" y="387.329" width="15.5781" height="15.5781" rx="2.86965" fill="white" stroke="#333333" stroke-width="0.819901"/>
<path d="M181.924 398.919H182.935V395.658H184.761C184.834 395.658 184.903 395.658 184.973 395.654L186.734 398.919H187.908L186.02 395.47C187.084 395.107 187.581 394.239 187.581 393.13C187.581 391.655 186.701 390.571 184.744 390.571H181.924V398.919ZM182.935 394.745V391.467H184.712C186.065 391.467 186.587 392.128 186.587 393.13C186.587 394.133 186.065 394.745 184.728 394.745H182.935ZM191.693 399.049C192.965 399.049 193.894 398.413 194.188 397.468L193.259 397.207C193.014 397.859 192.447 398.185 191.693 398.185C190.564 398.185 189.786 397.455 189.741 396.114H194.286V395.707C194.286 393.375 192.9 392.576 191.595 392.576C189.9 392.576 188.775 393.913 188.775 395.837C188.775 397.761 189.883 399.049 191.693 399.049ZM189.741 395.283C189.806 394.309 190.495 393.44 191.595 393.44C192.639 393.44 193.307 394.223 193.307 395.283H189.741ZM198.537 392.658H197.135V392.022C197.135 391.402 197.396 391.076 198.032 391.076C198.309 391.076 198.472 391.141 198.57 391.174L198.847 390.342C198.7 390.277 198.407 390.179 197.934 390.179C197.037 390.179 196.173 390.717 196.173 391.793V392.658H195.162V393.473H196.173V398.919H197.135V393.473H198.537V392.658ZM200.847 390.571H199.885V398.919H200.847V390.571ZM206.555 396.359C206.555 397.533 205.658 398.071 204.941 398.071C204.142 398.071 203.571 397.484 203.571 396.571V392.658H202.609V396.636C202.609 398.234 203.457 399 204.631 399C205.577 399 206.196 398.495 206.49 397.859H206.555V398.919H207.517V392.658H206.555V396.359ZM209.279 398.919H210.241V396.575L210.914 395.951L213.257 398.919H214.48L211.639 395.332L214.285 392.658H213.094L210.355 395.446H210.241V390.571H209.279V398.919ZM219.958 394.06C219.656 393.171 218.979 392.576 217.74 392.576C216.42 392.576 215.441 393.326 215.441 394.386C215.441 395.25 215.955 395.829 217.104 396.098L218.148 396.343C218.78 396.489 219.077 396.791 219.077 397.223C219.077 397.761 218.507 398.201 217.61 398.201C216.823 398.201 216.33 397.863 216.159 397.19L215.246 397.419C215.47 398.483 216.346 399.049 217.626 399.049C219.081 399.049 220.072 398.254 220.072 397.174C220.072 396.302 219.526 395.751 218.409 395.478L217.479 395.25C216.738 395.067 216.403 394.818 216.403 394.337C216.403 393.799 216.974 393.408 217.74 393.408C218.58 393.408 218.926 393.872 219.094 394.304L219.958 394.06Z" fill="#333333"/>
</g>
</g>
<g filter="url(#filter1_d_1923_10154)">
<g clip-path="url(#clip9_1923_10154)">
<path d="M289 134C289 120.745 299.745 110 313 110H501C514.255 110 525 120.745 525 134V376C525 389.255 514.255 400 501 400H313C299.745 400 289 389.255 289 376V134Z" fill="white"/>
<g clip-path="url(#clip10_1923_10154)">
<rect x="322.757" y="151.608" width="14.7582" height="14.7582" rx="2.4597" fill="white" stroke="#333333" stroke-width="1.6398"/>
<path d="M354.262 157.048C353.952 155.336 352.582 154.325 350.903 154.325C348.767 154.325 347.218 155.972 347.218 158.613C347.218 161.254 348.767 162.901 350.903 162.901C352.582 162.901 353.952 161.89 354.262 160.178H353.251C353.006 161.336 352.012 161.956 350.903 161.956C349.386 161.956 348.196 160.782 348.196 158.613C348.196 156.445 349.386 155.271 350.903 155.271C352.012 155.271 353.006 155.89 353.251 157.048H354.262ZM358.39 162.918C359.662 162.918 360.591 162.282 360.884 161.336L359.955 161.075C359.71 161.727 359.144 162.053 358.39 162.053C357.261 162.053 356.482 161.324 356.437 159.983H360.982V159.575C360.982 157.243 359.596 156.445 358.292 156.445C356.596 156.445 355.471 157.782 355.471 159.705C355.471 161.629 356.58 162.918 358.39 162.918ZM356.437 159.151C356.502 158.177 357.191 157.309 358.292 157.309C359.335 157.309 360.004 158.091 360.004 159.151H356.437ZM363.408 154.439H362.446V162.787H363.408V154.439ZM365.17 162.787H366.132V156.526H365.17V162.787ZM365.659 155.483C366.034 155.483 366.343 155.189 366.343 154.83C366.343 154.472 366.034 154.178 365.659 154.178C365.284 154.178 364.974 154.472 364.974 154.83C364.974 155.189 365.284 155.483 365.659 155.483ZM369.736 162.934C370.828 162.934 371.399 162.347 371.595 161.939H371.644V162.787H372.606V158.662C372.606 156.673 371.089 156.445 370.29 156.445C369.345 156.445 368.268 156.771 367.779 157.912L368.692 158.238C368.904 157.782 369.406 157.292 370.323 157.292C371.207 157.292 371.644 157.761 371.644 158.564V158.597C371.644 159.061 371.171 159.021 370.029 159.167C368.868 159.318 367.6 159.575 367.6 161.01C367.6 162.233 368.546 162.934 369.736 162.934ZM369.883 162.07C369.116 162.07 368.562 161.727 368.562 161.059C368.562 160.325 369.23 160.097 369.98 159.999C370.388 159.95 371.481 159.836 371.644 159.64V160.521C371.644 161.303 371.024 162.07 369.883 162.07ZM374.361 162.787H375.323V160.443L375.996 159.82L378.34 162.787H379.563L376.722 159.2L379.367 156.526H378.177L375.438 159.314H375.323V154.439H374.361V162.787ZM380.605 162.787H381.567V156.526H380.605V162.787ZM381.094 155.483C381.469 155.483 381.779 155.189 381.779 154.83C381.779 154.472 381.469 154.178 381.094 154.178C380.719 154.178 380.409 154.472 380.409 154.83C380.409 155.189 380.719 155.483 381.094 155.483ZM385.172 162.934C386.264 162.934 386.835 162.347 387.03 161.939H387.079V162.787H388.041V158.662C388.041 156.673 386.525 156.445 385.726 156.445C384.78 156.445 383.704 156.771 383.215 157.912L384.128 158.238C384.34 157.782 384.841 157.292 385.758 157.292C386.643 157.292 387.079 157.761 387.079 158.564V158.597C387.079 159.061 386.606 159.021 385.465 159.167C384.303 159.318 383.036 159.575 383.036 161.01C383.036 162.233 383.981 162.934 385.172 162.934ZM385.318 162.07C384.552 162.07 383.998 161.727 383.998 161.059C383.998 160.325 384.666 160.097 385.416 159.999C385.824 159.95 386.916 159.836 387.079 159.64V160.521C387.079 161.303 386.46 162.07 385.318 162.07Z" fill="#333333"/>
</g>
<g clip-path="url(#clip11_1923_10154)">
<rect x="322.757" y="190.963" width="14.7582" height="14.7582" rx="2.4597" fill="white" stroke="#333333" stroke-width="1.6398"/>
<path d="M354.262 196.403C353.952 194.691 352.582 193.68 350.903 193.68C348.767 193.68 347.218 195.327 347.218 197.968C347.218 200.609 348.767 202.256 350.903 202.256C352.582 202.256 353.952 201.245 354.262 199.533H353.251C353.006 200.691 352.012 201.311 350.903 201.311C349.386 201.311 348.196 200.137 348.196 197.968C348.196 195.8 349.386 194.626 350.903 194.626C352.012 194.626 353.006 195.245 353.251 196.403H354.262ZM356.727 198.376C356.727 197.283 357.424 196.664 358.373 196.664C359.278 196.664 359.825 197.234 359.825 198.229V202.142H360.787V198.164C360.787 196.554 359.931 195.8 358.651 195.8C357.664 195.8 357.102 196.211 356.808 196.859H356.727V193.794H355.765V202.142H356.727V198.376ZM365.09 202.273C366.786 202.273 367.927 200.984 367.927 199.044C367.927 197.088 366.786 195.8 365.09 195.8C363.394 195.8 362.253 197.088 362.253 199.044C362.253 200.984 363.394 202.273 365.09 202.273ZM365.09 201.408C363.802 201.408 363.215 200.3 363.215 199.044C363.215 197.789 363.802 196.664 365.09 196.664C366.378 196.664 366.965 197.789 366.965 199.044C366.965 200.3 366.378 201.408 365.09 201.408ZM369.396 202.142H370.358V198.18C370.358 197.332 371.026 196.713 371.939 196.713C372.196 196.713 372.461 196.761 372.526 196.778V195.8C372.416 195.791 372.163 195.783 372.021 195.783C371.271 195.783 370.618 196.207 370.39 196.827H370.325V195.881H369.396V202.142ZM376.019 202.273C377.715 202.273 378.856 200.984 378.856 199.044C378.856 197.088 377.715 195.8 376.019 195.8C374.324 195.8 373.182 197.088 373.182 199.044C373.182 200.984 374.324 202.273 376.019 202.273ZM376.019 201.408C374.731 201.408 374.144 200.3 374.144 199.044C374.144 197.789 374.731 196.664 376.019 196.664C377.307 196.664 377.894 197.789 377.894 199.044C377.894 200.3 377.307 201.408 376.019 201.408ZM380.455 202.142H381.385V201.18H381.499C381.711 201.523 382.118 202.273 383.325 202.273C384.89 202.273 385.983 201.017 385.983 199.028C385.983 197.055 384.89 195.8 383.309 195.8C382.086 195.8 381.711 196.55 381.499 196.876H381.417V193.794H380.455V202.142ZM381.401 199.012C381.401 197.609 382.021 196.664 383.195 196.664C384.417 196.664 385.021 197.691 385.021 199.012C385.021 200.349 384.401 201.408 383.195 201.408C382.037 201.408 381.401 200.43 381.401 199.012ZM387.85 204.49C388.718 204.49 389.329 204.029 389.692 203.055L392.358 195.897L391.306 195.881L389.578 200.87H389.513L387.784 195.881H386.741L389.056 202.175L388.877 202.664C388.526 203.618 388.094 203.707 387.393 203.528L387.148 204.376C387.246 204.425 387.523 204.49 387.85 204.49ZM396.859 204.49H397.821V201.18H397.903C398.115 201.523 398.522 202.273 399.729 202.273C401.294 202.273 402.386 201.017 402.386 199.028C402.386 197.055 401.294 195.8 399.712 195.8C398.49 195.8 398.115 196.55 397.903 196.876H397.788V195.881H396.859V204.49ZM397.805 199.012C397.805 197.609 398.424 196.664 399.598 196.664C400.821 196.664 401.424 197.691 401.424 199.012C401.424 200.349 400.805 201.408 399.598 201.408C398.441 201.408 397.805 200.43 397.805 199.012ZM403.854 202.142H404.816V198.18C404.816 197.332 405.484 196.713 406.397 196.713C406.654 196.713 406.919 196.761 406.984 196.778V195.8C406.874 195.791 406.622 195.783 406.479 195.783C405.729 195.783 405.077 196.207 404.848 196.827H404.783V195.881H403.854V202.142ZM407.945 202.142H412.853V201.245H409.282V201.18L412.739 196.647V195.881H408.059V196.778H411.5V196.843L407.945 201.408V202.142ZM416.781 202.273C418.052 202.273 418.982 201.637 419.275 200.691L418.346 200.43C418.101 201.082 417.535 201.408 416.781 201.408C415.651 201.408 414.873 200.679 414.828 199.338H419.373V198.93C419.373 196.598 417.987 195.8 416.683 195.8C414.987 195.8 413.862 197.136 413.862 199.06C413.862 200.984 414.971 202.273 416.781 202.273ZM414.828 198.506C414.893 197.532 415.582 196.664 416.683 196.664C417.726 196.664 418.395 197.446 418.395 198.506H414.828ZM422.695 196.925L421.798 197.263V193.794H420.836V197.63L419.94 197.968V198.685L420.836 198.347V202.142H421.798V197.98L422.695 197.642V196.925ZM424.18 204.49C425.048 204.49 425.66 204.029 426.022 203.055L428.688 195.897L427.636 195.881L425.908 200.87H425.843L424.115 195.881H423.071L425.386 202.175L425.207 202.664C424.857 203.618 424.424 203.707 423.723 203.528L423.479 204.376C423.577 204.425 423.854 204.49 424.18 204.49ZM429.961 202.142H430.923V199.798L431.596 199.175L433.939 202.142H435.162L432.321 198.555L434.967 195.881H433.776L431.037 198.669H430.923V193.794H429.961V202.142ZM440.15 199.582C440.15 200.756 439.254 201.294 438.536 201.294C437.737 201.294 437.167 200.707 437.167 199.794V195.881H436.205V199.859C436.205 201.457 437.053 202.224 438.226 202.224C439.172 202.224 439.792 201.718 440.085 201.082H440.15V202.142H441.112V195.881H440.15V199.582ZM444.309 201.001H443.266L443.217 201.457C443.099 202.562 442.866 203.663 442.76 204.18H443.494C443.69 203.626 444.105 202.37 444.244 201.441L444.309 201.001ZM449.32 195.881V202.599C449.32 203.235 449.059 203.593 448.472 203.593H448.293V204.49H448.488C449.695 204.49 450.282 203.756 450.282 202.599V195.881H449.32ZM449.793 194.838C450.168 194.838 450.478 194.544 450.478 194.185C450.478 193.827 450.168 193.533 449.793 193.533C449.418 193.533 449.108 193.827 449.108 194.185C449.108 194.544 449.418 194.838 449.793 194.838ZM453.886 202.289C454.979 202.289 455.549 201.702 455.745 201.294H455.794V202.142H456.756V198.017C456.756 196.028 455.24 195.8 454.441 195.8C453.495 195.8 452.419 196.126 451.93 197.267L452.843 197.593C453.055 197.136 453.556 196.647 454.473 196.647C455.358 196.647 455.794 197.116 455.794 197.919V197.952C455.794 198.416 455.321 198.376 454.18 198.522C453.018 198.673 451.75 198.93 451.75 200.365C451.75 201.588 452.696 202.289 453.886 202.289ZM454.033 201.425C453.267 201.425 452.712 201.082 452.712 200.414C452.712 199.68 453.381 199.452 454.131 199.354C454.538 199.305 455.631 199.191 455.794 198.995V199.876C455.794 200.658 455.174 201.425 454.033 201.425ZM458.512 202.142H459.474V198.229C459.474 197.312 460.142 196.664 460.892 196.664C461.622 196.664 462.131 197.141 462.131 197.854V202.142H463.11V198.066C463.11 197.259 463.615 196.664 464.496 196.664C465.18 196.664 465.767 197.026 465.767 197.952V202.142H466.729V197.952C466.729 196.48 465.939 195.8 464.822 195.8C463.925 195.8 463.269 196.211 462.947 196.859H462.881C462.572 196.191 462.025 195.8 461.202 195.8C460.387 195.8 459.784 196.191 459.523 196.859H459.441V195.881H458.512V202.142ZM468.884 204.49C469.752 204.49 470.363 204.029 470.726 203.055L473.392 195.897L472.34 195.881L470.612 200.87H470.547L468.818 195.881H467.775L470.09 202.175L469.911 202.664C469.56 203.618 469.128 203.707 468.427 203.528L468.183 204.376C468.28 204.425 468.558 204.49 468.884 204.49ZM481.839 199.582C481.839 200.756 480.942 201.294 480.225 201.294C479.426 201.294 478.855 200.707 478.855 199.794V195.881H477.893V199.859C477.893 201.457 478.741 202.224 479.915 202.224C480.861 202.224 481.48 201.718 481.774 201.082H481.839V202.142H482.801V195.881H481.839V199.582ZM488.998 197.283C488.696 196.395 488.019 195.8 486.78 195.8C485.46 195.8 484.481 196.55 484.481 197.609C484.481 198.473 484.995 199.052 486.144 199.321L487.188 199.566C487.82 199.713 488.117 200.014 488.117 200.446C488.117 200.984 487.547 201.425 486.65 201.425C485.863 201.425 485.37 201.086 485.199 200.414L484.286 200.642C484.51 201.706 485.386 202.273 486.666 202.273C488.121 202.273 489.112 201.478 489.112 200.397C489.112 199.525 488.566 198.975 487.449 198.702L486.519 198.473C485.778 198.29 485.443 198.041 485.443 197.56C485.443 197.022 486.014 196.631 486.78 196.631C487.62 196.631 487.967 197.096 488.134 197.528L488.998 197.283ZM493.283 195.881H491.946V194.381H490.984V195.881H490.038V196.696H490.984V200.609C490.984 201.702 491.864 202.224 492.68 202.224C493.038 202.224 493.267 202.158 493.397 202.109L493.201 201.245C493.12 201.262 492.989 201.294 492.777 201.294C492.354 201.294 491.946 201.164 491.946 200.349V196.696H493.283V195.881ZM495.692 198.376C495.692 197.283 496.369 196.664 497.29 196.664C498.183 196.664 498.725 197.247 498.725 198.229V202.142H499.687V198.164C499.687 196.566 498.835 195.8 497.567 195.8C496.621 195.8 496.034 196.223 495.741 196.859H495.659V195.881H494.73V202.142H495.692V198.376ZM504.07 202.273C505.341 202.273 506.271 201.637 506.564 200.691L505.635 200.43C505.39 201.082 504.824 201.408 504.07 201.408C502.94 201.408 502.162 200.679 502.117 199.338H506.662V198.93C506.662 196.598 505.276 195.8 503.972 195.8C502.276 195.8 501.151 197.136 501.151 199.06C501.151 200.984 502.26 202.273 504.07 202.273ZM502.117 198.506C502.182 197.532 502.871 196.664 503.972 196.664C505.015 196.664 505.684 197.446 505.684 198.506H502.117ZM508.125 195.881V202.599C508.125 203.235 507.865 203.593 507.278 203.593H507.098V204.49H507.294C508.5 204.49 509.087 203.756 509.087 202.599V195.881H508.125ZM508.598 194.838C508.973 194.838 509.283 194.544 509.283 194.185C509.283 193.827 508.973 193.533 508.598 193.533C508.223 193.533 507.913 193.827 507.913 194.185C507.913 194.544 508.223 194.838 508.598 194.838Z" fill="#333333"/>
</g>
<g clip-path="url(#clip12_1923_10154)">
<rect x="324.396" y="230.317" width="13.1184" height="13.9383" rx="1.6398" fill="#FF6984"/>
<path d="M327.368 236.774L330.135 239.541L337.514 232.162" stroke="black" stroke-width="1.6398" stroke-linecap="round" stroke-linejoin="round"/>
<path d="M337.514 237.696V243.231C337.514 243.72 337.32 244.189 336.974 244.535C336.628 244.881 336.159 245.076 335.67 245.076H324.601C324.112 245.076 323.642 244.881 323.296 244.535C322.95 244.189 322.756 243.72 322.756 243.231V232.162C322.756 231.673 322.95 231.204 323.296 230.858C323.642 230.512 324.112 230.317 324.601 230.317H332.902" stroke="black" stroke-width="1.6398" stroke-linecap="round" stroke-linejoin="round"/>
<path d="M354.384 235.864C354.099 234.079 352.7 233.035 350.935 233.035C348.775 233.035 347.181 234.654 347.181 237.324C347.181 239.993 348.767 241.612 350.935 241.612C352.77 241.612 354.111 240.462 354.384 238.811L353.112 238.807C352.896 239.875 351.999 240.462 350.944 240.462C349.513 240.462 348.433 239.366 348.433 237.324C348.433 235.298 349.509 234.185 350.948 234.185C352.012 234.185 352.904 234.784 353.112 235.864H354.384ZM357.012 237.78C357.012 236.781 357.644 236.211 358.512 236.211C359.352 236.211 359.853 236.745 359.853 237.662V241.498H361.072V237.515C361.072 235.954 360.216 235.155 358.928 235.155C357.954 235.155 357.367 235.579 357.073 236.256H356.996V233.149H355.793V241.498H357.012V237.78ZM365.336 241.624C367.101 241.624 368.254 240.332 368.254 238.396C368.254 236.447 367.101 235.155 365.336 235.155C363.571 235.155 362.417 236.447 362.417 238.396C362.417 240.332 363.571 241.624 365.336 241.624ZM365.34 240.601C364.186 240.601 363.648 239.594 363.648 238.391C363.648 237.193 364.186 236.174 365.34 236.174C366.485 236.174 367.023 237.193 367.023 238.391C367.023 239.594 366.485 240.601 365.34 240.601ZM369.615 241.498H370.833V237.674C370.833 236.855 371.465 236.264 372.329 236.264C372.582 236.264 372.867 236.309 372.965 236.337V235.171C372.843 235.155 372.603 235.143 372.448 235.143C371.714 235.143 371.086 235.559 370.858 236.231H370.793V235.236H369.615V241.498ZM376.433 241.624C378.198 241.624 379.352 240.332 379.352 238.396C379.352 236.447 378.198 235.155 376.433 235.155C374.668 235.155 373.515 236.447 373.515 238.396C373.515 240.332 374.668 241.624 376.433 241.624ZM376.437 240.601C375.284 240.601 374.746 239.594 374.746 238.391C374.746 237.193 375.284 236.174 376.437 236.174C377.583 236.174 378.121 237.193 378.121 238.391C378.121 239.594 377.583 240.601 376.437 240.601ZM380.81 241.498H382V240.523H382.102C382.322 240.923 382.771 241.62 383.912 241.62C385.428 241.62 386.529 240.405 386.529 238.379C386.529 236.349 385.412 235.155 383.9 235.155C382.738 235.155 382.318 235.864 382.102 236.251H382.029V233.149H380.81V241.498ZM382.004 238.367C382.004 237.059 382.575 236.19 383.639 236.19C384.744 236.19 385.298 237.124 385.298 238.367C385.298 239.623 384.727 240.58 383.639 240.58C382.591 240.58 382.004 239.684 382.004 238.367ZM388.444 243.845C389.451 243.845 390.086 243.32 390.449 242.333L393.038 235.249L391.721 235.236L390.135 240.095H390.07L388.484 235.236H387.18L389.471 241.579L389.32 241.995C389.01 242.826 388.574 242.896 387.906 242.712L387.612 243.711C387.759 243.776 388.077 243.845 388.444 243.845ZM398.581 241.498H399.82L401.092 236.977H401.186L402.458 241.498H403.701L405.539 235.236H404.28L403.061 239.814H403L401.777 235.236H400.517L399.286 239.834H399.225L397.998 235.236H396.739L398.581 241.498ZM408.518 241.636C409.553 241.636 410.136 241.11 410.369 240.642H410.418V241.371C409.806 241.787 409.57 242.321 409.602 242.83C409.647 243.528 410.144 243.907 410.829 243.907C411.229 243.907 411.53 243.776 411.718 243.662L411.612 242.888C411.502 242.941 411.327 243.018 411.102 243.018C410.797 243.018 410.687 242.871 410.687 242.619C410.687 242.162 411.11 241.816 411.608 241.498V237.34C411.608 235.518 410.173 235.155 409.178 235.155C408.045 235.155 407.002 235.612 406.594 236.753L407.739 237.014C407.919 236.569 408.375 236.141 409.195 236.141C409.981 236.141 410.385 236.553 410.385 237.262V237.291C410.385 237.735 409.928 237.727 408.803 237.857C407.617 237.996 406.402 238.306 406.402 239.728C406.402 240.959 407.328 241.636 408.518 241.636ZM408.783 240.658C408.094 240.658 407.597 240.348 407.597 239.745C407.597 239.093 408.176 238.86 408.881 238.766C409.276 238.714 410.214 238.608 410.389 238.432V239.239C410.389 239.981 409.798 240.658 408.783 240.658ZM416.154 235.236H414.87V233.736H413.651V235.236H412.734V236.215H413.651V239.912C413.647 241.049 414.515 241.599 415.477 241.579C415.864 241.575 416.125 241.502 416.268 241.449L416.048 240.442C415.966 240.458 415.815 240.495 415.62 240.495C415.224 240.495 414.87 240.364 414.87 239.659V236.215H416.154V235.236ZM417.502 241.498H418.721V237.674C418.721 236.855 419.353 236.264 420.217 236.264C420.469 236.264 420.755 236.309 420.853 236.337V235.171C420.73 235.155 420.49 235.143 420.335 235.143C419.601 235.143 418.974 235.559 418.745 236.231H418.68V235.236H417.502V241.498ZM424.32 241.624C426.085 241.624 427.239 240.332 427.239 238.396C427.239 236.447 426.085 235.155 424.32 235.155C422.555 235.155 421.402 236.447 421.402 238.396C421.402 240.332 422.555 241.624 424.32 241.624ZM424.325 240.601C423.171 240.601 422.633 239.594 422.633 238.391C422.633 237.193 423.171 236.174 424.325 236.174C425.47 236.174 426.008 237.193 426.008 238.391C426.008 239.594 425.47 240.601 424.325 240.601ZM428.697 241.498H429.888V240.523H429.989C430.21 240.923 430.658 241.62 431.799 241.62C433.316 241.62 434.416 240.405 434.416 238.379C434.416 236.349 433.299 235.155 431.787 235.155C430.625 235.155 430.206 235.864 429.989 236.251H429.916V233.149H428.697V241.498ZM429.892 238.367C429.892 237.059 430.462 236.19 431.526 236.19C432.631 236.19 433.185 237.124 433.185 238.367C433.185 239.623 432.615 240.58 431.526 240.58C430.479 240.58 429.892 239.684 429.892 238.367ZM436.331 243.845C437.338 243.845 437.974 243.32 438.337 242.333L440.925 235.249L439.608 235.236L438.023 240.095H437.957L436.372 235.236H435.067L437.358 241.579L437.207 241.995C436.898 242.826 436.461 242.896 435.793 242.712L435.5 243.711C435.646 243.776 435.964 243.845 436.331 243.845Z" fill="#333333"/>
</g>
<g clip-path="url(#clip13_1923_10154)">
<rect x="322.757" y="269.674" width="14.7582" height="14.7582" rx="2.4597" fill="white" stroke="#333333" stroke-width="1.6398"/>
<path d="M354.262 275.113C353.952 273.401 352.582 272.391 350.903 272.391C348.767 272.391 347.218 274.037 347.218 276.679C347.218 279.32 348.767 280.967 350.903 280.967C352.582 280.967 353.952 279.956 354.262 278.244H353.251C353.006 279.402 352.012 280.021 350.903 280.021C349.386 280.021 348.196 278.847 348.196 276.679C348.196 274.51 349.386 273.336 350.903 273.336C352.012 273.336 353.006 273.956 353.251 275.113H354.262ZM356.727 277.086C356.727 275.994 357.424 275.374 358.373 275.374C359.278 275.374 359.825 275.945 359.825 276.94V280.853H360.787V276.874C360.787 275.264 359.931 274.51 358.651 274.51C357.664 274.51 357.102 274.922 356.808 275.57H356.727V272.505H355.765V280.853H356.727V277.086ZM365.09 280.983C366.786 280.983 367.927 279.695 367.927 277.755C367.927 275.798 366.786 274.51 365.09 274.51C363.394 274.51 362.253 275.798 362.253 277.755C362.253 279.695 363.394 280.983 365.09 280.983ZM365.09 280.119C363.802 280.119 363.215 279.01 363.215 277.755C363.215 276.499 363.802 275.374 365.09 275.374C366.378 275.374 366.965 276.499 366.965 277.755C366.965 279.01 366.378 280.119 365.09 280.119ZM369.396 280.853H370.358V276.891C370.358 276.043 371.026 275.423 371.939 275.423C372.196 275.423 372.461 275.472 372.526 275.488V274.51C372.416 274.502 372.163 274.494 372.021 274.494C371.271 274.494 370.618 274.918 370.39 275.537H370.325V274.592H369.396V280.853ZM376.019 280.983C377.715 280.983 378.856 279.695 378.856 277.755C378.856 275.798 377.715 274.51 376.019 274.51C374.324 274.51 373.182 275.798 373.182 277.755C373.182 279.695 374.324 280.983 376.019 280.983ZM376.019 280.119C374.731 280.119 374.144 279.01 374.144 277.755C374.144 276.499 374.731 275.374 376.019 275.374C377.307 275.374 377.894 276.499 377.894 277.755C377.894 279.01 377.307 280.119 376.019 280.119ZM380.455 280.853H381.385V279.891H381.499C381.711 280.233 382.118 280.983 383.325 280.983C384.89 280.983 385.983 279.728 385.983 277.739C385.983 275.766 384.89 274.51 383.309 274.51C382.086 274.51 381.711 275.26 381.499 275.586H381.417V272.505H380.455V280.853ZM381.401 277.722C381.401 276.32 382.021 275.374 383.195 275.374C384.417 275.374 385.021 276.402 385.021 277.722C385.021 279.059 384.401 280.119 383.195 280.119C382.037 280.119 381.401 279.141 381.401 277.722ZM387.85 283.201C388.718 283.201 389.329 282.74 389.692 281.766L392.358 274.608L391.306 274.592L389.578 279.581H389.513L387.784 274.592H386.741L389.056 280.885L388.877 281.375C388.526 282.328 388.094 282.418 387.393 282.239L387.148 283.087C387.246 283.135 387.523 283.201 387.85 283.201ZM396.68 280.853H401.587V279.956H398.017V279.891L401.473 275.358V274.592H396.794V275.488H400.234V275.554L396.68 280.119V280.853ZM404.912 281C406.004 281 406.575 280.413 406.77 280.005H406.819V280.853H407.781V276.728C407.781 274.738 406.265 274.51 405.466 274.51C404.52 274.51 403.444 274.836 402.955 275.978L403.868 276.304C404.08 275.847 404.581 275.358 405.499 275.358C406.383 275.358 406.819 275.827 406.819 276.63V276.662C406.819 277.127 406.346 277.086 405.205 277.233C404.043 277.384 402.776 277.641 402.776 279.076C402.776 280.298 403.721 281 404.912 281ZM405.058 280.135C404.292 280.135 403.738 279.793 403.738 279.124C403.738 278.391 404.406 278.162 405.156 278.065C405.564 278.016 406.656 277.902 406.819 277.706V278.586C406.819 279.369 406.2 280.135 405.058 280.135ZM409.537 283.201H410.499V279.891H410.581C410.793 280.233 411.2 280.983 412.407 280.983C413.972 280.983 415.064 279.728 415.064 277.739C415.064 275.766 413.972 274.51 412.39 274.51C411.168 274.51 410.793 275.26 410.581 275.586H410.466V274.592H409.537V283.201ZM410.483 277.722C410.483 276.32 411.102 275.374 412.276 275.374C413.499 275.374 414.102 276.402 414.102 277.722C414.102 279.059 413.483 280.119 412.276 280.119C411.119 280.119 410.483 279.141 410.483 277.722ZM418.374 281C419.467 281 420.037 280.413 420.233 280.005H420.282V280.853H421.244V276.728C421.244 274.738 419.728 274.51 418.929 274.51C417.983 274.51 416.907 274.836 416.418 275.978L417.331 276.304C417.543 275.847 418.044 275.358 418.961 275.358C419.846 275.358 420.282 275.827 420.282 276.63V276.662C420.282 277.127 419.809 277.086 418.668 277.233C417.506 277.384 416.238 277.641 416.238 279.076C416.238 280.298 417.184 281 418.374 281ZM418.521 280.135C417.755 280.135 417.2 279.793 417.2 279.124C417.2 278.391 417.869 278.162 418.619 278.065C419.027 278.016 420.119 277.902 420.282 277.706V278.586C420.282 279.369 419.662 280.135 418.521 280.135ZM423.962 272.505H423V280.853H423.962V272.505ZM426.686 277.086C426.686 275.994 427.362 275.374 428.284 275.374C429.176 275.374 429.718 275.957 429.718 276.94V280.853H430.68V276.874C430.68 275.277 429.828 274.51 428.561 274.51C427.615 274.51 427.028 274.934 426.735 275.57H426.653V274.592H425.724V280.853H426.686V277.086ZM435.063 280.983C436.335 280.983 437.265 280.347 437.558 279.402L436.629 279.141C436.384 279.793 435.817 280.119 435.063 280.119C433.934 280.119 433.156 279.389 433.111 278.048H437.656V277.641C437.656 275.309 436.27 274.51 434.966 274.51C433.27 274.51 432.145 275.847 432.145 277.771C432.145 279.695 433.254 280.983 435.063 280.983ZM433.111 277.217C433.176 276.243 433.865 275.374 434.966 275.374C436.009 275.374 436.678 276.157 436.678 277.217H433.111ZM442.348 274.592V281.309C442.348 281.945 442.087 282.304 441.5 282.304H441.32V283.201H441.516C442.723 283.201 443.31 282.467 443.31 281.309V274.592H442.348ZM442.82 273.548C443.195 273.548 443.505 273.255 443.505 272.896C443.505 272.537 443.195 272.244 442.82 272.244C442.445 272.244 442.136 272.537 442.136 272.896C442.136 273.255 442.445 273.548 442.82 273.548ZM447.697 280.983C448.968 280.983 449.898 280.347 450.191 279.402L449.262 279.141C449.017 279.793 448.451 280.119 447.697 280.119C446.567 280.119 445.789 279.389 445.744 278.048H450.289V277.641C450.289 275.309 448.903 274.51 447.599 274.51C445.903 274.51 444.778 275.847 444.778 277.771C444.778 279.695 445.887 280.983 447.697 280.983ZM445.744 277.217C445.809 276.243 446.498 275.374 447.599 275.374C448.642 275.374 449.311 276.157 449.311 277.217H445.744ZM452.714 272.505H451.752V280.853H452.714V272.505ZM454.476 280.853H455.438V274.592H454.476V280.853ZM454.965 273.548C455.34 273.548 455.65 273.255 455.65 272.896C455.65 272.537 455.34 272.244 454.965 272.244C454.59 272.244 454.281 272.537 454.281 272.896C454.281 273.255 454.59 273.548 454.965 273.548ZM459.923 274.592H458.586V273.092H457.624V274.592H456.679V275.407H457.624V279.32C457.624 280.413 458.505 280.934 459.32 280.934C459.679 280.934 459.907 280.869 460.037 280.82L459.842 279.956C459.76 279.972 459.63 280.005 459.418 280.005C458.994 280.005 458.586 279.874 458.586 279.059V275.407H459.923V274.592Z" fill="#333333"/>
</g>
<g clip-path="url(#clip14_1923_10154)">
<rect x="324.396" y="309.028" width="13.1184" height="13.9383" rx="1.6398" fill="#FF6984"/>
<path d="M327.368 315.485L330.135 318.252L337.514 310.873" stroke="black" stroke-width="1.6398" stroke-linecap="round" stroke-linejoin="round"/>
<path d="M337.514 316.407V321.942C337.514 322.431 337.32 322.9 336.974 323.246C336.628 323.592 336.159 323.786 335.67 323.786H324.601C324.112 323.786 323.642 323.592 323.296 323.246C322.95 322.9 322.756 322.431 322.756 321.942V310.873C322.756 310.384 322.95 309.914 323.296 309.568C323.642 309.222 324.112 309.028 324.601 309.028H332.902" stroke="black" stroke-width="1.6398" stroke-linecap="round" stroke-linejoin="round"/>
<path d="M354.384 314.575C354.099 312.79 352.7 311.746 350.935 311.746C348.775 311.746 347.181 313.364 347.181 316.034C347.181 318.704 348.767 320.322 350.935 320.322C352.77 320.322 354.111 319.173 354.384 317.522L353.112 317.518C352.896 318.586 351.999 319.173 350.944 319.173C349.513 319.173 348.433 318.076 348.433 316.034C348.433 314.008 349.509 312.896 350.948 312.896C352.012 312.896 352.904 313.495 353.112 314.575H354.384ZM359.759 317.612C359.763 318.676 358.973 319.181 358.288 319.181C357.534 319.181 357.012 318.635 357.012 317.783V313.947H355.793V317.93C355.793 319.483 356.645 320.29 357.848 320.29C358.789 320.29 359.429 319.792 359.719 319.124H359.784V320.208H360.982V313.947H359.759V317.612ZM362.62 320.208H363.839V317.987L364.446 317.379L366.574 320.208H368.07L365.363 316.633L367.899 313.947H366.439L363.945 316.597H363.839V311.86H362.62V320.208ZM369.009 320.208H370.228V316.385C370.228 315.565 370.86 314.974 371.724 314.974C371.977 314.974 372.262 315.019 372.36 315.048V313.882C372.238 313.866 371.997 313.853 371.842 313.853C371.109 313.853 370.481 314.269 370.253 314.942H370.187V313.947H369.009V320.208ZM373.284 320.208H378.31V319.148H374.935V319.091L378.196 314.836V313.947H373.394V315.007H376.676V315.064L373.284 319.373V320.208ZM380.519 322.556C381.525 322.556 382.161 322.03 382.524 321.044L385.112 313.959L383.796 313.947L382.21 318.806H382.145L380.559 313.947H379.255L381.546 320.29L381.395 320.706C381.085 321.537 380.649 321.606 379.98 321.423L379.687 322.422C379.834 322.487 380.152 322.556 380.519 322.556ZM388.674 320.335C390.154 320.335 391.112 319.446 391.246 318.227H390.06C389.905 318.904 389.379 319.303 388.682 319.303C387.651 319.303 386.986 318.443 386.986 317.078C386.986 315.737 387.663 314.893 388.682 314.893C389.457 314.893 389.929 315.382 390.06 315.969H391.246C391.116 314.705 390.084 313.866 388.662 313.866C386.897 313.866 385.755 315.195 385.755 317.106C385.755 318.994 386.856 320.335 388.674 320.335ZM394.372 320.347C395.407 320.347 395.99 319.821 396.222 319.352H396.271V320.208H397.461V316.051C397.461 314.228 396.026 313.866 395.032 313.866C393.899 313.866 392.855 314.322 392.448 315.464L393.593 315.724C393.772 315.28 394.229 314.852 395.048 314.852C395.835 314.852 396.238 315.264 396.238 315.973V316.002C396.238 316.446 395.782 316.438 394.657 316.568C393.471 316.707 392.256 317.017 392.256 318.439C392.256 319.67 393.181 320.347 394.372 320.347ZM394.636 319.369C393.948 319.369 393.45 319.059 393.45 318.455C393.45 317.803 394.029 317.571 394.734 317.477C395.13 317.424 396.067 317.318 396.243 317.143V317.95C396.243 318.692 395.651 319.369 394.636 319.369Z" fill="#333333"/>
</g>
<g clip-path="url(#clip15_1923_10154)">
<rect x="322.757" y="348.384" width="14.7582" height="14.7582" rx="2.4597" fill="white" stroke="#333333" stroke-width="1.6398"/>
<path d="M350.12 359.563C352.664 359.563 354.099 357.982 354.099 355.373C354.099 352.781 352.664 351.215 350.234 351.215H347.544V359.563H350.12ZM348.555 358.667V352.112H350.169C352.126 352.112 353.12 353.351 353.12 355.373C353.12 357.411 352.126 358.667 350.055 358.667H348.555ZM356.626 355.797C356.626 354.705 357.302 354.085 358.224 354.085C359.116 354.085 359.658 354.668 359.658 355.65V359.563H360.62V355.585C360.62 353.987 359.769 353.221 358.501 353.221C357.555 353.221 356.968 353.645 356.675 354.281H356.593V353.302H355.664V359.563H356.626V355.797ZM364.221 359.71C365.313 359.71 365.884 359.123 366.08 358.716H366.128V359.563H367.09V355.438C367.09 353.449 365.574 353.221 364.775 353.221C363.829 353.221 362.753 353.547 362.264 354.688L363.177 355.014C363.389 354.558 363.891 354.069 364.808 354.069C365.692 354.069 366.128 354.538 366.128 355.341V355.373C366.128 355.838 365.656 355.797 364.514 355.944C363.353 356.095 362.085 356.351 362.085 357.786C362.085 359.009 363.031 359.71 364.221 359.71ZM364.368 358.846C363.601 358.846 363.047 358.504 363.047 357.835C363.047 357.101 363.715 356.873 364.465 356.775C364.873 356.726 365.965 356.612 366.128 356.417V357.297C366.128 358.08 365.509 358.846 364.368 358.846ZM372.075 359.563H373.037V355.65C373.037 354.733 373.705 354.085 374.455 354.085C375.185 354.085 375.694 354.562 375.694 355.275V359.563H376.673V355.487C376.673 354.68 377.178 354.085 378.059 354.085C378.743 354.085 379.33 354.448 379.33 355.373V359.563H380.292V355.373C380.292 353.902 379.502 353.221 378.385 353.221C377.488 353.221 376.832 353.633 376.51 354.281H376.444C376.135 353.612 375.588 353.221 374.765 353.221C373.95 353.221 373.346 353.612 373.086 354.281H373.004V353.302H372.075V359.563ZM384.595 359.694C386.29 359.694 387.432 358.406 387.432 356.466C387.432 354.509 386.29 353.221 384.595 353.221C382.899 353.221 381.758 354.509 381.758 356.466C381.758 358.406 382.899 359.694 384.595 359.694ZM384.595 358.83C383.307 358.83 382.72 357.721 382.72 356.466C382.72 355.21 383.307 354.085 384.595 354.085C385.883 354.085 386.47 355.21 386.47 356.466C386.47 357.721 385.883 358.83 384.595 358.83ZM391.444 359.694C392.83 359.694 393.743 358.846 393.906 357.737H392.944C392.764 358.422 392.194 358.83 391.444 358.83C390.302 358.83 389.569 357.884 389.569 356.433C389.569 355.014 390.319 354.085 391.444 354.085C392.292 354.085 392.797 354.607 392.944 355.177H393.906C393.743 354.004 392.748 353.221 391.427 353.221C389.732 353.221 388.607 354.558 388.607 356.466C388.607 358.341 389.683 359.694 391.444 359.694ZM395.133 359.563H400.041V358.667H396.47V358.601L399.926 354.069V353.302H395.247V354.199H398.687V354.264L395.133 358.83V359.563ZM403.365 359.71C404.457 359.71 405.028 359.123 405.223 358.716H405.272V359.563H406.234V355.438C406.234 353.449 404.718 353.221 403.919 353.221C402.973 353.221 401.897 353.547 401.408 354.688L402.321 355.014C402.533 354.558 403.035 354.069 403.952 354.069C404.836 354.069 405.272 354.538 405.272 355.341V355.373C405.272 355.838 404.8 355.797 403.658 355.944C402.496 356.095 401.229 356.351 401.229 357.786C401.229 359.009 402.174 359.71 403.365 359.71ZM403.511 358.846C402.745 358.846 402.191 358.504 402.191 357.835C402.191 357.101 402.859 356.873 403.609 356.775C404.017 356.726 405.109 356.612 405.272 356.417V357.297C405.272 358.08 404.653 358.846 403.511 358.846ZM408.952 355.797C408.952 354.705 409.629 354.085 410.55 354.085C411.443 354.085 411.985 354.668 411.985 355.65V359.563H412.947V355.585C412.947 353.987 412.095 353.221 410.827 353.221C409.882 353.221 409.295 353.645 409.001 354.281H408.92V353.302H407.99V359.563H408.952V355.797ZM417.248 359.694C418.944 359.694 420.085 358.406 420.085 356.466C420.085 354.509 418.944 353.221 417.248 353.221C415.553 353.221 414.411 354.509 414.411 356.466C414.411 358.406 415.553 359.694 417.248 359.694ZM417.248 358.83C415.96 358.83 415.373 357.721 415.373 356.466C415.373 355.21 415.96 354.085 417.248 354.085C418.536 354.085 419.123 355.21 419.123 356.466C419.123 357.721 418.536 358.83 417.248 358.83ZM422.759 359.563H423.705L425.075 354.754H425.172L426.542 359.563H427.488L429.395 353.302H428.384L427.031 358.08H426.966L425.645 353.302H424.618L423.281 358.096H423.216L421.863 353.302H420.852L422.759 359.563ZM432.51 359.71C433.602 359.71 434.173 359.123 434.368 358.716H434.417V359.563H435.379V355.438C435.379 353.449 433.863 353.221 433.064 353.221C432.118 353.221 431.042 353.547 430.553 354.688L431.466 355.014C431.678 354.558 432.179 354.069 433.097 354.069C433.981 354.069 434.417 354.538 434.417 355.341V355.373C434.417 355.838 433.944 355.797 432.803 355.944C431.641 356.095 430.374 356.351 430.374 357.786C430.374 359.009 431.319 359.71 432.51 359.71ZM432.656 358.846C431.89 358.846 431.336 358.504 431.336 357.835C431.336 357.101 432.004 356.873 432.754 356.775C433.162 356.726 434.254 356.612 434.417 356.417V357.297C434.417 358.08 433.798 358.846 432.656 358.846Z" fill="#333333"/>
</g>
</g>
</g>
<path d="M124 329H525V376C525 389.255 514.255 400 501 400H148C134.745 400 124 389.255 124 376V329Z" fill="url(#paint0_linear_1923_10154)"/>
</g>
<mask id="mask0_1923_10154" style="mask-type:alpha" maskUnits="userSpaceOnUse" x="127" y="76" width="490" height="364">
<path d="M177.444 124.609C179.217 116.286 186.239 110.111 194.721 109.418L595.444 76.6831C606.667 75.7663 616.281 84.6269 616.281 95.8868V420.148C616.281 431.818 605.99 440.808 594.426 439.241L144.598 378.292C133.488 376.787 126.005 366.151 128.34 355.186L177.444 124.609Z" stroke="black" stroke-width="0.819901"/>
</mask>
<g mask="url(#mask0_1923_10154)">
</g>
</g>
<g filter="url(#filter2_d_1923_10154)">
<rect x="27" y="235.137" width="116.209" height="33.2026" rx="6.64052" fill="#2F80ED"/>
<path d="M49.9472 250.246L49.0523 250.566V247.05H47.7782V251.022L46.879 251.342V252.177L47.7782 251.857V255.778H49.0523V251.401L49.9472 251.082V250.246ZM52.6713 255.922C53.7537 255.922 54.363 255.373 54.6059 254.883H54.6571V255.778H55.9014V251.431C55.9014 249.526 54.4014 249.147 53.3616 249.147C52.177 249.147 51.086 249.624 50.6599 250.817L51.8574 251.09C52.0449 250.626 52.5221 250.178 53.3787 250.178C54.2011 250.178 54.623 250.609 54.623 251.35V251.38C54.623 251.844 54.1457 251.836 52.9696 251.972C51.7295 252.117 50.4596 252.441 50.4596 253.928C50.4596 255.215 51.427 255.922 52.6713 255.922ZM52.9483 254.9C52.2281 254.9 51.7082 254.576 51.7082 253.945C51.7082 253.263 52.3133 253.02 53.0505 252.922C53.4639 252.867 54.444 252.756 54.6272 252.573V253.417C54.6272 254.192 54.0093 254.9 52.9483 254.9ZM60.6539 249.232H59.3115V247.664H58.0374V249.232H57.0786V250.255H58.0374V254.12C58.0331 255.309 58.9408 255.884 59.9465 255.863C60.3513 255.859 60.624 255.782 60.7732 255.726L60.5431 254.674C60.4579 254.691 60.3002 254.729 60.0956 254.729C59.6823 254.729 59.3115 254.593 59.3115 253.856V250.255H60.6539V249.232ZM63.4824 255.778H64.7778L66.1074 251.052H66.2054L67.5349 255.778H68.8346L70.7565 249.232H69.4397L68.1656 254.018H68.1017L66.8233 249.232H65.5065L64.2196 254.039H64.1557L62.873 249.232H61.5562L63.4824 255.778ZM74.5235 255.91C76.3687 255.91 77.5747 254.559 77.5747 252.535C77.5747 250.498 76.3687 249.147 74.5235 249.147C72.6784 249.147 71.4724 250.498 71.4724 252.535C71.4724 254.559 72.6784 255.91 74.5235 255.91ZM74.5278 254.84C73.3218 254.84 72.7593 253.788 72.7593 252.53C72.7593 251.278 73.3218 250.212 74.5278 250.212C75.7253 250.212 76.2878 251.278 76.2878 252.53C76.2878 253.788 75.7253 254.84 74.5278 254.84ZM83.9017 250.83C83.6375 249.812 82.8407 249.147 81.4259 249.147C79.9472 249.147 78.8989 249.927 78.8989 251.086C78.8989 252.015 79.4614 252.633 80.6887 252.905L81.7966 253.148C82.4273 253.289 82.7213 253.57 82.7213 253.979C82.7213 254.486 82.1802 254.883 81.3449 254.883C80.5821 254.883 80.0921 254.555 79.9387 253.911L78.7071 254.099C78.9202 255.258 79.8833 255.91 81.3534 255.91C82.9344 255.91 84.0296 255.07 84.0296 253.886C84.0296 252.961 83.4415 252.39 82.2398 252.113L81.2 251.874C80.4799 251.704 80.1688 251.461 80.1731 251.018C80.1688 250.515 80.7142 250.157 81.4387 250.157C82.2313 250.157 82.5978 250.596 82.7469 251.035L83.9017 250.83ZM88.4859 249.232H87.1436V247.664H85.8694V249.232H84.9106V250.255H85.8694V254.12C85.8652 255.309 86.7728 255.884 87.7785 255.863C88.1833 255.859 88.4561 255.782 88.6052 255.726L88.3751 254.674C88.2899 254.691 88.1322 254.729 87.9277 254.729C87.5143 254.729 87.1436 254.593 87.1436 253.856V250.255H88.4859V249.232ZM89.8954 255.778H91.1695V251.78C91.1695 250.924 91.83 250.306 92.7334 250.306C92.9976 250.306 93.2959 250.353 93.3982 250.383V249.164C93.2704 249.147 93.0189 249.134 92.857 249.134C92.09 249.134 91.4337 249.569 91.1951 250.272H91.1269V249.232H89.8954V255.778ZM96.3471 255.922C97.4294 255.922 98.0388 255.373 98.2817 254.883H98.3329V255.778H99.5772V251.431C99.5772 249.526 98.0772 249.147 97.0374 249.147C95.8527 249.147 94.7618 249.624 94.3357 250.817L95.5331 251.09C95.7206 250.626 96.1979 250.178 97.0544 250.178C97.8769 250.178 98.2988 250.609 98.2988 251.35V251.38C98.2988 251.844 97.8215 251.836 96.6454 251.972C95.4053 252.117 94.1354 252.441 94.1354 253.928C94.1354 255.215 95.1027 255.922 96.3471 255.922ZM96.624 254.9C95.9039 254.9 95.384 254.576 95.384 253.945C95.384 253.263 95.9891 253.02 96.7263 252.922C97.1397 252.867 98.1198 252.756 98.303 252.573V253.417C98.303 254.192 97.6851 254.9 96.624 254.9ZM102.693 255.778H103.989L105.318 251.052H105.416L106.746 255.778H108.046L109.967 249.232H108.651L107.377 254.018H107.313L106.034 249.232H104.717L103.431 254.039H103.367L102.084 249.232H100.767L102.693 255.778ZM112.451 251.891C112.451 250.847 113.09 250.251 113.976 250.251C114.841 250.251 115.366 250.817 115.366 251.768V255.778H116.64V251.614C116.64 249.995 115.749 249.147 114.411 249.147C113.427 249.147 112.783 249.603 112.481 250.297H112.4V249.232H111.177V255.778H112.451V251.891ZM120.253 255.922C121.336 255.922 121.945 255.373 122.188 254.883H122.239V255.778H123.483V251.431C123.483 249.526 121.983 249.147 120.944 249.147C119.759 249.147 118.668 249.624 118.242 250.817L119.439 251.09C119.627 250.626 120.104 250.178 120.961 250.178C121.783 250.178 122.205 250.609 122.205 251.35V251.38C122.205 251.844 121.728 251.836 120.552 251.972C119.312 252.117 118.042 252.441 118.042 253.928C118.042 255.215 119.009 255.922 120.253 255.922ZM120.53 254.9C119.81 254.9 119.29 254.576 119.29 253.945C119.29 253.263 119.895 253.02 120.633 252.922C121.046 252.867 122.026 252.756 122.209 252.573V253.417C122.209 254.192 121.591 254.9 120.53 254.9Z" fill="white"/>
</g>
<g filter="url(#filter3_d_1923_10154)">
<rect x="417.961" y="94.0261" width="117.039" height="33.2026" rx="6.64052" fill="#EEF5FE"/>
<path d="M438.906 114.667H439.847V113.693H439.962C440.177 114.039 440.589 114.799 441.811 114.799C443.396 114.799 444.502 113.528 444.502 111.514C444.502 109.517 443.396 108.246 441.794 108.246C440.556 108.246 440.177 109.005 439.962 109.335H439.88V106.215H438.906V114.667ZM439.863 111.497C439.863 110.078 440.49 109.12 441.679 109.12C442.917 109.12 443.528 110.16 443.528 111.497C443.528 112.851 442.9 113.924 441.679 113.924C440.507 113.924 439.863 112.934 439.863 111.497ZM448.649 114.799C449.936 114.799 450.877 114.155 451.174 113.198L450.234 112.934C449.986 113.594 449.412 113.924 448.649 113.924C447.506 113.924 446.718 113.185 446.672 111.828H451.273V111.415C451.273 109.054 449.87 108.246 448.55 108.246C446.833 108.246 445.694 109.599 445.694 111.547C445.694 113.495 446.817 114.799 448.649 114.799ZM446.672 110.986C446.738 109.999 447.436 109.12 448.55 109.12C449.606 109.12 450.283 109.913 450.283 110.986H446.672ZM452.573 114.667H457.542V113.759H453.927V113.693L457.426 109.104V108.328H452.689V109.236H456.172V109.302L452.573 113.924V114.667ZM461.419 117.176C462.938 117.176 464.159 116.483 464.159 114.848V108.328H463.218V109.335H463.119C462.905 109.005 462.509 108.246 461.271 108.246C459.669 108.246 458.563 109.517 458.563 111.464C458.563 113.445 459.719 114.568 461.254 114.568C462.492 114.568 462.888 113.841 463.103 113.495H463.185V114.782C463.185 115.839 462.443 116.317 461.419 116.317C460.268 116.317 459.863 115.711 459.603 115.36L458.827 115.905C459.224 116.569 460.004 117.176 461.419 117.176ZM461.386 113.693C460.165 113.693 459.537 112.768 459.537 111.448C459.537 110.16 460.148 109.12 461.386 109.12C462.575 109.12 463.202 110.078 463.202 111.448C463.202 112.851 462.558 113.693 461.386 113.693ZM466.916 106.215H465.942V114.667H466.916V106.215ZM472.694 112.075C472.694 113.264 471.787 113.808 471.06 113.808C470.251 113.808 469.674 113.214 469.674 112.29V108.328H468.7V112.356C468.7 113.973 469.558 114.749 470.747 114.749C471.704 114.749 472.331 114.238 472.628 113.594H472.694V114.667H473.668V108.328H472.694V112.075ZM478.209 108.328H476.855V106.809H475.881V108.328H474.924V109.153H475.881V113.115C475.881 114.221 476.773 114.749 477.598 114.749C477.961 114.749 478.192 114.683 478.324 114.634L478.126 113.759C478.044 113.775 477.912 113.808 477.697 113.808C477.268 113.808 476.855 113.676 476.855 112.851V109.153H478.209V108.328ZM482.263 114.799C483.551 114.799 484.492 114.155 484.789 113.198L483.848 112.934C483.6 113.594 483.027 113.924 482.263 113.924C481.12 113.924 480.332 113.185 480.287 111.828H484.888V111.415C484.888 109.054 483.485 108.246 482.164 108.246C480.448 108.246 479.309 109.599 479.309 111.547C479.309 113.495 480.431 114.799 482.263 114.799ZM480.287 110.986C480.353 109.999 481.05 109.12 482.164 109.12C483.221 109.12 483.897 109.913 483.897 110.986H480.287ZM487.343 110.854C487.343 109.748 488.028 109.12 488.961 109.12C489.865 109.12 490.414 109.711 490.414 110.705V114.667H491.388V110.639C491.388 109.021 490.525 108.246 489.242 108.246C488.284 108.246 487.69 108.675 487.393 109.318H487.31V108.328H486.369V114.667H487.343V110.854ZM495.742 114.799C497.459 114.799 498.614 113.495 498.614 111.53C498.614 109.55 497.459 108.246 495.742 108.246C494.026 108.246 492.87 109.55 492.87 111.53C492.87 113.495 494.026 114.799 495.742 114.799ZM495.742 113.924C494.438 113.924 493.844 112.801 493.844 111.53C493.844 110.259 494.438 109.12 495.742 109.12C497.046 109.12 497.641 110.259 497.641 111.53C497.641 112.801 497.046 113.924 495.742 113.924ZM501.322 114.667H502.279L503.666 109.797H503.765L505.151 114.667H506.109L508.04 108.328H507.017L505.646 113.165H505.58L504.243 108.328H503.203L501.85 113.181H501.784L500.414 108.328H499.39L501.322 114.667ZM511.193 114.815C512.299 114.815 512.877 114.221 513.075 113.808H513.124V114.667H514.098V110.49C514.098 108.477 512.563 108.246 511.754 108.246C510.797 108.246 509.707 108.576 509.212 109.731L510.136 110.061C510.351 109.599 510.859 109.104 511.787 109.104C512.683 109.104 513.124 109.578 513.124 110.391V110.424C513.124 110.895 512.645 110.854 511.49 111.002C510.314 111.155 509.03 111.415 509.03 112.867C509.03 114.106 509.988 114.815 511.193 114.815ZM511.341 113.94C510.566 113.94 510.004 113.594 510.004 112.917C510.004 112.174 510.681 111.943 511.44 111.844C511.853 111.795 512.959 111.679 513.124 111.481V112.372C513.124 113.165 512.497 113.94 511.341 113.94Z" fill="#2F80ED"/>
</g>
<g filter="url(#filter4_d_1923_10154)">
<rect x="272.6" y="16.223" width="115.08" height="40.0612" rx="7.91017" fill="#2F80ED"/>
<path d="M298.955 41.1332H300.45L301.984 35.6816H302.097L303.63 41.1332H305.13L307.347 33.5826H305.828L304.358 39.103H304.284L302.809 33.5826H301.29L299.806 39.1275H299.732L298.253 33.5826H296.734L298.955 41.1332ZM311.766 41.2856C313.413 41.2856 314.578 40.4745 314.912 39.2455L313.521 38.9948C313.255 39.7076 312.616 40.0714 311.781 40.0714C310.522 40.0714 309.677 39.2554 309.637 37.8003H315.005V37.2792C315.005 34.551 313.373 33.4842 311.663 33.4842C309.559 33.4842 308.173 35.0868 308.173 37.407C308.173 39.7518 309.539 41.2856 311.766 41.2856ZM309.642 36.6992C309.701 35.6275 310.478 34.6984 311.673 34.6984C312.813 34.6984 313.56 35.544 313.565 36.6992H309.642ZM319.802 44.122C321.724 44.122 323.209 43.242 323.209 41.3003V33.5826H321.768V34.8066H321.66C321.4 34.3396 320.879 33.4842 319.473 33.4842C317.649 33.4842 316.307 34.9246 316.307 37.3284C316.307 39.7371 317.678 41.0201 319.463 41.0201C320.849 41.0201 321.385 40.2385 321.65 39.7568H321.744V41.2413C321.744 42.426 320.933 42.9373 319.817 42.9373C318.593 42.9373 318.116 42.3228 317.855 41.8902L316.592 42.4113C316.99 43.3354 317.998 44.122 319.802 44.122ZM319.787 39.801C318.475 39.801 317.791 38.7933 317.791 37.3087C317.791 35.8586 318.46 34.7329 319.787 34.7329C321.07 34.7329 321.758 35.7799 321.758 37.3087C321.758 38.867 321.056 39.801 319.787 39.801ZM327.377 41.3003C328.626 41.3003 329.329 40.6662 329.609 40.1009H329.668V41.1332H331.103V36.1191C331.103 33.9218 329.373 33.4842 328.174 33.4842C326.807 33.4842 325.549 34.0348 325.057 35.4112L326.438 35.7258C326.655 35.19 327.205 34.6739 328.193 34.6739C329.142 34.6739 329.629 35.1704 329.629 36.0257V36.0601C329.629 36.5959 329.078 36.5861 327.721 36.7434C326.291 36.9105 324.826 37.2841 324.826 38.9997C324.826 40.4843 325.942 41.3003 327.377 41.3003ZM327.697 40.1205C326.866 40.1205 326.266 39.7469 326.266 39.0194C326.266 38.2329 326.964 37.9527 327.815 37.8396C328.292 37.7757 329.422 37.6479 329.634 37.4365V38.4098C329.634 39.3045 328.921 40.1205 327.697 40.1205ZM334.531 36.65C334.531 35.4456 335.268 34.7574 336.291 34.7574C337.289 34.7574 337.893 35.4112 337.893 36.5074V41.1332H339.363V36.3305C339.363 34.4625 338.336 33.4842 336.792 33.4842C335.657 33.4842 334.914 34.0102 334.565 34.8115H334.472V33.5826H333.061V41.1332H334.531V36.65ZM335.602 32.5748H336.777L338.301 30.3087H336.753L335.602 32.5748ZM346.992 35.426C346.688 34.2511 345.768 33.4842 344.136 33.4842C342.43 33.4842 341.221 34.3838 341.221 35.7209C341.221 36.7926 341.87 37.5053 343.286 37.82L344.564 38.1002C345.291 38.2624 345.631 38.5868 345.631 39.0587C345.631 39.6437 345.006 40.1009 344.043 40.1009C343.163 40.1009 342.598 39.7224 342.421 38.9801L341 39.1964C341.246 40.5335 342.357 41.2856 344.053 41.2856C345.876 41.2856 347.14 40.3172 347.14 38.9506C347.14 37.8839 346.461 37.2251 345.075 36.9056L343.876 36.6303C343.045 36.4337 342.686 36.1535 342.691 35.6423C342.686 35.0622 343.315 34.6493 344.151 34.6493C345.065 34.6493 345.488 35.1556 345.66 35.6619L346.992 35.426ZM348.756 41.1332H350.226V38.4541L350.958 37.7216L353.524 41.1332H355.328L352.064 36.8221L355.122 33.5826H353.362L350.353 36.7778H350.226V31.0657H348.756V41.1332ZM358.659 41.3003C359.907 41.3003 360.61 40.6662 360.89 40.1009H360.949V41.1332H362.385V36.1191C362.385 33.9218 360.654 33.4842 359.455 33.4842C358.088 33.4842 356.83 34.0348 356.338 35.4112L357.72 35.7258C357.936 35.19 358.487 34.6739 359.475 34.6739C360.423 34.6739 360.91 35.1704 360.91 36.0257V36.0601C360.91 36.5959 360.359 36.5861 359.003 36.7434C357.572 36.9105 356.107 37.2841 356.107 38.9997C356.107 40.4843 357.223 41.3003 358.659 41.3003ZM358.978 40.1205C358.147 40.1205 357.548 39.7469 357.548 39.0194C357.548 38.2329 358.246 37.9527 359.096 37.8396C359.573 37.7757 360.704 37.6479 360.915 37.4365V38.4098C360.915 39.3045 360.202 40.1205 358.978 40.1205Z" fill="white"/>
</g>
<g filter="url(#filter5_d_1923_10154)">
<rect x="114.157" y="82.405" width="122.85" height="33.2026" rx="6.64052" fill="#EEF5FE"/>
<path d="M135.944 99.2323C135.944 98.1263 136.629 97.4991 137.562 97.4991C138.465 97.4991 139.014 98.0892 139.014 99.0837V103.045H139.988V99.0177C139.988 97.4 139.126 96.6242 137.842 96.6242C136.885 96.6242 136.291 97.0534 135.993 97.6971H135.911V96.7067H134.97V103.045H135.944V99.2323ZM141.768 103.045H142.742V96.7067H141.768V103.045ZM142.263 95.6503C142.643 95.6503 142.956 95.3532 142.956 94.99C142.956 94.6269 142.643 94.3297 142.263 94.3297C141.883 94.3297 141.57 94.6269 141.57 94.99C141.57 95.3532 141.883 95.6503 142.263 95.6503ZM149.015 98.1263C148.71 97.2267 148.025 96.6242 146.77 96.6242C145.433 96.6242 144.443 97.3835 144.443 98.4565C144.443 99.3313 144.963 99.9173 146.127 100.19L147.183 100.437C147.823 100.586 148.124 100.891 148.124 101.329C148.124 101.873 147.546 102.319 146.638 102.319C145.842 102.319 145.343 101.977 145.169 101.296L144.245 101.527C144.472 102.604 145.359 103.177 146.655 103.177C148.128 103.177 149.131 102.373 149.131 101.279C149.131 100.396 148.578 99.8389 147.447 99.5624L146.506 99.3313C145.755 99.1456 145.417 98.8939 145.417 98.4069C145.417 97.8622 145.995 97.4661 146.77 97.4661C147.621 97.4661 147.971 97.9365 148.14 98.3739L149.015 98.1263ZM150.597 103.045H151.571V100.673L152.252 100.041L154.625 103.045H155.863L152.986 99.4139L155.665 96.7067H154.46L151.686 99.5294H151.571V94.5938H150.597V103.045ZM159.232 103.177C160.949 103.177 162.104 101.873 162.104 99.9091C162.104 97.9282 160.949 96.6242 159.232 96.6242C157.515 96.6242 156.36 97.9282 156.36 99.9091C156.36 101.873 157.515 103.177 159.232 103.177ZM159.232 102.303C157.928 102.303 157.334 101.18 157.334 99.9091C157.334 98.638 157.928 97.4991 159.232 97.4991C160.536 97.4991 161.13 98.638 161.13 99.9091C161.13 101.18 160.536 102.303 159.232 102.303ZM163.591 105.422H164.565V102.071H164.647C164.862 102.418 165.275 103.177 166.496 103.177C168.081 103.177 169.187 101.906 169.187 99.8926C169.187 97.8952 168.081 96.6242 166.48 96.6242C165.242 96.6242 164.862 97.3835 164.647 97.7137H164.532V96.7067H163.591V105.422ZM164.548 99.8761C164.548 98.4565 165.176 97.4991 166.364 97.4991C167.602 97.4991 168.213 98.539 168.213 99.8761C168.213 101.23 167.586 102.303 166.364 102.303C165.192 102.303 164.548 101.312 164.548 99.8761ZM174.667 100.454C174.667 101.642 173.759 102.187 173.033 102.187C172.224 102.187 171.646 101.593 171.646 100.668V96.7067H170.673V100.734C170.673 102.352 171.531 103.128 172.719 103.128C173.677 103.128 174.304 102.616 174.601 101.972H174.667V103.045H175.641V96.7067H174.667V100.454ZM177.425 103.045H178.399V99.0342C178.399 98.1759 179.076 97.5486 180 97.5486C180.26 97.5486 180.528 97.5981 180.594 97.6146V96.6242C180.483 96.6159 180.227 96.6077 180.083 96.6077C179.323 96.6077 178.663 97.0369 178.432 97.6641H178.366V96.7067H177.425V103.045ZM182.569 105.422C183.448 105.422 184.067 104.956 184.434 103.97L187.133 96.7232L186.068 96.7067L184.319 101.758H184.253L182.503 96.7067H181.446L183.79 103.078L183.609 103.574C183.254 104.539 182.817 104.63 182.107 104.449L181.859 105.307C181.958 105.356 182.239 105.422 182.569 105.422ZM189.396 99.2323C189.396 98.1263 190.081 97.4991 191.013 97.4991C191.917 97.4991 192.466 98.0892 192.466 99.0837V103.045H193.44V99.0177C193.44 97.4 192.577 96.6242 191.294 96.6242C190.336 96.6242 189.742 97.0534 189.445 97.6971H189.363V96.7067H188.422V103.045H189.396V99.2323ZM197.795 103.177C199.511 103.177 200.667 101.873 200.667 99.9091C200.667 97.9282 199.511 96.6242 197.795 96.6242C196.078 96.6242 194.922 97.9282 194.922 99.9091C194.922 101.873 196.078 103.177 197.795 103.177ZM197.795 102.303C196.49 102.303 195.896 101.18 195.896 99.9091C195.896 98.638 196.49 97.4991 197.795 97.4991C199.099 97.4991 199.693 98.638 199.693 99.9091C199.693 101.18 199.099 102.303 197.795 102.303ZM203.374 103.045H204.331L205.718 98.1759H205.817L207.204 103.045H208.161L210.092 96.7067H209.069L207.699 101.543H207.633L206.296 96.7067H205.256L203.902 101.56H203.836L202.466 96.7067H201.443L203.374 103.045ZM213.245 103.194C214.351 103.194 214.929 102.6 215.127 102.187H215.176V103.045H216.15V98.8691C216.15 96.8553 214.615 96.6242 213.806 96.6242C212.849 96.6242 211.759 96.9543 211.264 98.1098L212.189 98.44C212.403 97.9778 212.911 97.4826 213.839 97.4826C214.735 97.4826 215.176 97.9571 215.176 98.7701V98.8031C215.176 99.2736 214.698 99.2323 213.542 99.3809C212.366 99.5335 211.083 99.7935 211.083 101.246C211.083 102.484 212.04 103.194 213.245 103.194ZM213.394 102.319C212.618 102.319 212.057 101.972 212.057 101.296C212.057 100.553 212.733 100.322 213.493 100.223C213.905 100.173 215.011 100.058 215.176 99.8596V100.751C215.176 101.543 214.549 102.319 213.394 102.319Z" fill="#2F80ED"/>
</g>
<defs>
<filter id="filter0_d_1923_10154" x="25.0405" y="18.5493" width="525.387" height="409.26" filterUnits="userSpaceOnUse" color-interpolation-filters="sRGB">
<feFlood flood-opacity="0" result="BackgroundImageFix"/>
<feColorMatrix in="SourceAlpha" type="matrix" values="0 0 0 0 0 0 0 0 0 0 0 0 0 0 0 0 0 0 127 0" result="hardAlpha"/>
<feOffset dy="32"/>
<feGaussianBlur stdDeviation="16"/>
<feComposite in2="hardAlpha" operator="out"/>
<feColorMatrix type="matrix" values="0 0 0 0 0 0 0 0 0 0 0 0 0 0 0 0 0 0 0.08 0"/>
<feBlend mode="normal" in2="BackgroundImageFix" result="effect1_dropShadow_1923_10154"/>
<feBlend mode="normal" in="SourceGraphic" in2="effect1_dropShadow_1923_10154" result="shape"/>
</filter>
<filter id="filter1_d_1923_10154" x="249.645" y="83.7632" width="324.474" height="342.474" filterUnits="userSpaceOnUse" color-interpolation-filters="sRGB">
<feFlood flood-opacity="0" result="BackgroundImageFix"/>
<feColorMatrix in="SourceAlpha" type="matrix" values="0 0 0 0 0 0 0 0 0 0 0 0 0 0 0 0 0 0 127 0" result="hardAlpha"/>
<feOffset dx="-13.1184"/>
<feGaussianBlur stdDeviation="13.1184"/>
<feColorMatrix type="matrix" values="0 0 0 0 0 0 0 0 0 0 0 0 0 0 0 0 0 0 0.08 0"/>
<feBlend mode="normal" in2="BackgroundImageFix" result="effect1_dropShadow_1923_10154"/>
<feBlend mode="normal" in="SourceGraphic" in2="effect1_dropShadow_1923_10154" result="shape"/>
</filter>
<filter id="filter2_d_1923_10154" x="0.43791" y="221.856" width="169.333" height="86.3268" filterUnits="userSpaceOnUse" color-interpolation-filters="sRGB">
<feFlood flood-opacity="0" result="BackgroundImageFix"/>
<feColorMatrix in="SourceAlpha" type="matrix" values="0 0 0 0 0 0 0 0 0 0 0 0 0 0 0 0 0 0 127 0" result="hardAlpha"/>
<feOffset dy="13.281"/>
<feGaussianBlur stdDeviation="13.281"/>
<feColorMatrix type="matrix" values="0 0 0 0 0.2 0 0 0 0 0.2 0 0 0 0 0.2 0 0 0 0.16 0"/>
<feBlend mode="normal" in2="BackgroundImageFix" result="effect1_dropShadow_1923_10154"/>
<feBlend mode="normal" in="SourceGraphic" in2="effect1_dropShadow_1923_10154" result="shape"/>
</filter>
<filter id="filter3_d_1923_10154" x="391.399" y="80.7451" width="170.163" height="86.3268" filterUnits="userSpaceOnUse" color-interpolation-filters="sRGB">
<feFlood flood-opacity="0" result="BackgroundImageFix"/>
<feColorMatrix in="SourceAlpha" type="matrix" values="0 0 0 0 0 0 0 0 0 0 0 0 0 0 0 0 0 0 127 0" result="hardAlpha"/>
<feOffset dy="13.281"/>
<feGaussianBlur stdDeviation="13.281"/>
<feColorMatrix type="matrix" values="0 0 0 0 0.2 0 0 0 0 0.2 0 0 0 0 0.2 0 0 0 0.16 0"/>
<feBlend mode="normal" in2="BackgroundImageFix" result="effect1_dropShadow_1923_10154"/>
<feBlend mode="normal" in="SourceGraphic" in2="effect1_dropShadow_1923_10154" result="shape"/>
</filter>
<filter id="filter4_d_1923_10154" x="240.959" y="0.40269" width="178.362" height="103.342" filterUnits="userSpaceOnUse" color-interpolation-filters="sRGB">
<feFlood flood-opacity="0" result="BackgroundImageFix"/>
<feColorMatrix in="SourceAlpha" type="matrix" values="0 0 0 0 0 0 0 0 0 0 0 0 0 0 0 0 0 0 127 0" result="hardAlpha"/>
<feOffset dy="15.8203"/>
<feGaussianBlur stdDeviation="15.8203"/>
<feColorMatrix type="matrix" values="0 0 0 0 0.2 0 0 0 0 0.2 0 0 0 0 0.2 0 0 0 0.16 0"/>
<feBlend mode="normal" in2="BackgroundImageFix" result="effect1_dropShadow_1923_10154"/>
<feBlend mode="normal" in="SourceGraphic" in2="effect1_dropShadow_1923_10154" result="shape"/>
</filter>
<filter id="filter5_d_1923_10154" x="87.595" y="69.124" width="175.974" height="86.3268" filterUnits="userSpaceOnUse" color-interpolation-filters="sRGB">
<feFlood flood-opacity="0" result="BackgroundImageFix"/>
<feColorMatrix in="SourceAlpha" type="matrix" values="0 0 0 0 0 0 0 0 0 0 0 0 0 0 0 0 0 0 127 0" result="hardAlpha"/>
<feOffset dy="13.281"/>
<feGaussianBlur stdDeviation="13.281"/>
<feColorMatrix type="matrix" values="0 0 0 0 0.2 0 0 0 0 0.2 0 0 0 0 0.2 0 0 0 0.16 0"/>
<feBlend mode="normal" in2="BackgroundImageFix" result="effect1_dropShadow_1923_10154"/>
<feBlend mode="normal" in="SourceGraphic" in2="effect1_dropShadow_1923_10154" result="shape"/>
</filter>
<linearGradient id="paint0_linear_1923_10154" x1="324.5" y1="329" x2="324.5" y2="396.619" gradientUnits="userSpaceOnUse">
<stop stop-color="white" stop-opacity="0"/>
<stop offset="1" stop-color="white"/>
</linearGradient>
<clipPath id="clip0_1923_10154">
<rect width="401" height="325" fill="white" transform="translate(124 75)"/>
</clipPath>
<clipPath id="clip1_1923_10154">
<rect width="401.752" height="323.041" fill="white" transform="translate(123.52 76.9958)"/>
</clipPath>
<clipPath id="clip2_1923_10154">
<rect x="124" y="154" width="272" height="246" rx="24" fill="white"/>
</clipPath>
<clipPath id="clip3_1923_10154">
<rect width="241.051" height="19.6776" fill="white" transform="translate(154.676 188.502)"/>
</clipPath>
<clipPath id="clip4_1923_10154">
<rect width="241.051" height="19.6776" fill="white" transform="translate(154.676 227.858)"/>
</clipPath>
<clipPath id="clip5_1923_10154">
<rect width="241.051" height="19.6776" fill="white" transform="translate(154.676 267.213)"/>
</clipPath>
<clipPath id="clip6_1923_10154">
<rect width="241.051" height="19.6776" fill="white" transform="translate(154.676 306.568)"/>
</clipPath>
<clipPath id="clip7_1923_10154">
<rect width="241.051" height="19.6776" fill="white" transform="translate(154.676 345.924)"/>
</clipPath>
<clipPath id="clip8_1923_10154">
<rect width="241.051" height="19.6776" fill="white" transform="translate(154.676 385.279)"/>
</clipPath>
<clipPath id="clip9_1923_10154">
<rect x="289" y="110" width="272" height="290" rx="24" fill="white"/>
</clipPath>
<clipPath id="clip10_1923_10154">
<rect width="241.051" height="19.6776" fill="white" transform="translate(320.296 149.147)"/>
</clipPath>
<clipPath id="clip11_1923_10154">
<rect width="241.051" height="19.6776" fill="white" transform="translate(320.296 188.502)"/>
</clipPath>
<clipPath id="clip12_1923_10154">
<rect width="241.051" height="19.6776" fill="white" transform="translate(320.296 227.858)"/>
</clipPath>
<clipPath id="clip13_1923_10154">
<rect width="241.051" height="19.6776" fill="white" transform="translate(320.296 267.213)"/>
</clipPath>
<clipPath id="clip14_1923_10154">
<rect width="241.051" height="19.6776" fill="white" transform="translate(320.296 306.568)"/>
</clipPath>
<clipPath id="clip15_1923_10154">
<rect width="241.051" height="19.6776" fill="white" transform="translate(320.296 345.924)"/>
</clipPath>
</defs>
</svg>
