<svg width="562" height="443" viewBox="0 0 562 443" fill="none" xmlns="http://www.w3.org/2000/svg">
<g filter="url(#filter0_bd_1923_10250)">
<path d="M136.812 79.3364C139.322 70.7807 146.754 64.5907 155.623 63.6696L437.921 34.3497C449.559 33.141 460.102 41.2657 461.899 52.8276L506.153 337.573C508.295 351.355 497.218 363.619 483.289 362.886L87.9026 342.076C73.7399 341.331 63.984 327.561 67.9767 313.952L136.812 79.3364Z" fill="#572D80"/>
</g>
<g filter="url(#filter1_d_1923_10250)">
<rect x="396.923" y="344.846" width="137.077" height="30.4615" rx="3.38462" fill="#EFE2FF"/>
<path d="M409.447 358.154H410.457C410.41 356.854 409.212 355.882 407.546 355.882C405.897 355.882 404.601 356.841 404.601 358.289C404.601 359.45 405.442 360.14 406.788 360.527L407.849 360.829C408.757 361.082 409.565 361.402 409.565 362.26C409.565 363.202 408.656 363.825 407.462 363.825C406.435 363.825 405.526 363.37 405.442 362.394H404.365C404.466 363.808 405.611 364.767 407.462 364.767C409.447 364.767 410.575 363.673 410.575 362.277C410.575 360.661 409.043 360.14 408.151 359.904L407.276 359.668C406.637 359.5 405.611 359.164 405.611 358.238C405.611 357.414 406.368 356.808 407.512 356.808C408.555 356.808 409.346 357.304 409.447 358.154ZM414.057 364.767C415.184 364.767 415.773 364.161 415.975 363.74H416.025V364.615H417.018V360.358C417.018 358.305 415.453 358.07 414.629 358.07C413.653 358.07 412.542 358.406 412.037 359.584L412.98 359.921C413.198 359.45 413.716 358.945 414.662 358.945C415.575 358.945 416.025 359.429 416.025 360.257V360.291C416.025 360.771 415.537 360.728 414.36 360.88C413.161 361.036 411.852 361.301 411.852 362.781C411.852 364.043 412.828 364.767 414.057 364.767ZM414.208 363.875C413.417 363.875 412.845 363.522 412.845 362.832C412.845 362.075 413.535 361.839 414.309 361.738C414.73 361.688 415.857 361.57 416.025 361.368V362.277C416.025 363.084 415.386 363.875 414.208 363.875ZM420.749 359.231L419.823 359.58V356H418.83V359.959L417.905 360.308V361.048L418.83 360.699V364.615H419.823V360.32L420.749 359.971V359.231ZM423.543 364.767C424.67 364.767 425.259 364.161 425.461 363.74H425.512V364.615H426.504V360.358C426.504 358.305 424.939 358.07 424.115 358.07C423.139 358.07 422.028 358.406 421.524 359.584L422.466 359.921C422.685 359.45 423.202 358.945 424.149 358.945C425.061 358.945 425.512 359.429 425.512 360.257V360.291C425.512 360.771 425.024 360.728 423.846 360.88C422.647 361.036 421.339 361.301 421.339 362.781C421.339 364.043 422.314 364.767 423.543 364.767ZM423.694 363.875C422.903 363.875 422.331 363.522 422.331 362.832C422.331 362.075 423.021 361.839 423.795 361.738C424.216 361.688 425.343 361.57 425.512 361.368V362.277C425.512 363.084 424.872 363.875 423.694 363.875ZM431.127 358.154H429.747V356.606H428.754V358.154H427.778V358.995H428.754V363.034C428.754 364.161 429.663 364.7 430.504 364.7C430.874 364.7 431.11 364.632 431.244 364.582L431.042 363.69C430.958 363.707 430.824 363.74 430.605 363.74C430.167 363.74 429.747 363.606 429.747 362.765V358.995H431.127V358.154ZM432.759 364.615H433.752V362.197L434.446 361.553L436.864 364.615H438.127L435.194 360.914L437.925 358.154H436.696L433.869 361.031H433.752V356H432.759V364.615ZM441.104 364.767C442.231 364.767 442.82 364.161 443.022 363.74H443.073V364.615H444.065V360.358C444.065 358.305 442.5 358.07 441.676 358.07C440.7 358.07 439.589 358.406 439.085 359.584L440.027 359.921C440.246 359.45 440.763 358.945 441.71 358.945C442.622 358.945 443.073 359.429 443.073 360.257V360.291C443.073 360.771 442.585 360.728 441.407 360.88C440.208 361.036 438.9 361.301 438.9 362.781C438.9 364.043 439.875 364.767 441.104 364.767ZM441.255 363.875C440.464 363.875 439.892 363.522 439.892 362.832C439.892 362.075 440.582 361.839 441.356 361.738C441.777 361.688 442.904 361.57 443.073 361.368V362.277C443.073 363.084 442.433 363.875 441.255 363.875ZM449.024 364.615H454.089V363.69H450.404V363.623L453.971 358.945V358.154H449.142V359.079H452.692V359.147L449.024 363.858V364.615ZM461.39 364.75C462.635 364.75 463.056 363.976 463.274 363.623H463.392V364.615H464.351V356H463.358V359.18H463.274C463.056 358.844 462.669 358.07 461.407 358.07C459.774 358.07 458.647 359.365 458.647 361.402C458.647 363.454 459.774 364.75 461.39 364.75ZM461.524 363.858C460.279 363.858 459.64 362.765 459.64 361.385C459.64 360.022 460.262 358.962 461.524 358.962C462.736 358.962 463.375 359.938 463.375 361.385C463.375 362.849 462.719 363.858 461.524 363.858ZM466.122 364.615H471.187V363.69H467.502V363.623L471.069 358.945V358.154H466.24V359.079H469.791V359.147L466.122 363.858V364.615ZM468.596 357.077C468.983 357.077 469.303 356.774 469.303 356.404C469.303 356.034 468.983 355.731 468.596 355.731C468.209 355.731 467.889 356.034 467.889 356.404C467.889 356.774 468.209 357.077 468.596 357.077ZM475.24 364.75C476.553 364.75 477.512 364.094 477.815 363.118L476.856 362.849C476.603 363.522 476.019 363.858 475.24 363.858C474.075 363.858 473.272 363.105 473.225 361.721H477.916V361.301C477.916 358.894 476.486 358.07 475.139 358.07C473.389 358.07 472.228 359.45 472.228 361.435C472.228 363.421 473.373 364.75 475.24 364.75ZM473.225 360.863C473.293 359.858 474.004 358.962 475.139 358.962C476.216 358.962 476.906 359.769 476.906 360.863H473.225ZM479.426 364.615H480.419V360.577C480.419 359.631 481.109 358.962 481.883 358.962C482.636 358.962 483.162 359.454 483.162 360.19V364.615H484.171V360.409C484.171 359.576 484.693 358.962 485.602 358.962C486.308 358.962 486.914 359.336 486.914 360.291V364.615H487.907V360.291C487.907 358.772 487.091 358.07 485.938 358.07C485.013 358.07 484.335 358.495 484.003 359.164H483.936C483.616 358.474 483.052 358.07 482.203 358.07C481.361 358.07 480.739 358.474 480.469 359.164H480.385V358.154H479.426V364.615ZM492.431 364.75C493.744 364.75 494.703 364.094 495.006 363.118L494.047 362.849C493.794 363.522 493.209 363.858 492.431 363.858C491.266 363.858 490.462 363.105 490.416 361.721H495.107V361.301C495.107 358.894 493.676 358.07 492.33 358.07C490.58 358.07 489.419 359.45 489.419 361.435C489.419 363.421 490.563 364.75 492.431 364.75ZM490.416 360.863C490.483 359.858 491.194 358.962 492.33 358.962C493.407 358.962 494.097 359.769 494.097 360.863H490.416ZM496.617 364.615H497.61V360.577C497.61 359.631 498.3 358.962 499.074 358.962C499.827 358.962 500.352 359.454 500.352 360.19V364.615H501.362V360.409C501.362 359.576 501.884 358.962 502.792 358.962C503.499 358.962 504.105 359.336 504.105 360.291V364.615H505.098V360.291C505.098 358.772 504.282 358.07 503.129 358.07C502.203 358.07 501.526 358.495 501.194 359.164H501.127C500.807 358.474 500.243 358.07 499.393 358.07C498.552 358.07 497.929 358.474 497.66 359.164H497.576V358.154H496.617V364.615Z" fill="#333333" fill-opacity="0.88"/>
<rect x="459.538" y="382.077" width="20.3077" height="20.3077" rx="3.38462" fill="#F5F5F5"/>
<path d="M469.692 387.577C471.328 387.577 472.654 388.903 472.654 390.538C472.654 391.336 472.297 391.95 471.883 392.55C471.835 392.619 471.786 392.689 471.735 392.761C471.577 392.986 471.411 393.221 471.282 393.447C471.173 393.636 471.076 393.842 471.018 394.064H468.367C468.309 393.842 468.211 393.636 468.103 393.447C467.973 393.221 467.808 392.986 467.649 392.761C467.599 392.689 467.549 392.619 467.502 392.55C467.087 391.95 466.731 391.336 466.731 390.538C466.731 388.903 468.057 387.577 469.692 387.577Z" stroke="#A0A0A0" stroke-width="0.846154" stroke-linecap="round" stroke-linejoin="round"/>
<path d="M469.692 396.462C469.324 396.462 469.01 396.226 468.894 395.897H470.49C470.374 396.226 470.061 396.462 469.692 396.462Z" stroke="#A0A0A0" stroke-width="1.12821"/>
<path fill-rule="evenodd" clip-rule="evenodd" d="M468.564 390.242C468.564 390.119 468.694 390.039 468.804 390.094C469.363 390.374 470.022 390.374 470.581 390.094C470.691 390.039 470.821 390.119 470.821 390.242V390.985C470.821 391.057 470.78 391.123 470.715 391.155C470.071 391.477 469.313 391.477 468.67 391.155C468.605 391.123 468.564 391.057 468.564 390.985V390.242Z" fill="#A0A0A0"/>
<rect x="486.615" y="382.077" width="20.3077" height="20.3077" rx="3.38462" fill="#F5F5F5"/>
<path d="M497.333 391.667H499.59C499.901 391.667 500.154 391.919 500.154 392.231C500.154 392.542 499.901 392.795 499.59 392.795H497.333V395.051C497.333 395.363 497.081 395.615 496.769 395.615C496.458 395.615 496.205 395.363 496.205 395.051V392.795H493.949C493.637 392.795 493.385 392.542 493.385 392.231C493.385 391.919 493.637 391.667 493.949 391.667H496.205V389.41C496.205 389.099 496.458 388.846 496.769 388.846C497.081 388.846 497.333 389.099 497.333 389.41V391.667Z" fill="#A0A0A0"/>
<rect x="513.692" y="382.077" width="20.3077" height="20.3077" rx="3.38462" fill="#F5F5F5"/>
<path d="M524.41 391.667H526.667C526.978 391.667 527.231 391.919 527.231 392.231C527.231 392.542 526.978 392.795 526.667 392.795H524.41V395.051C524.41 395.363 524.158 395.615 523.846 395.615C523.535 395.615 523.282 395.363 523.282 395.051V392.795H521.026C520.714 392.795 520.462 392.542 520.462 392.231C520.462 391.919 520.714 391.667 521.026 391.667H523.282V389.41C523.282 389.099 523.535 388.846 523.846 388.846C524.158 388.846 524.41 389.099 524.41 389.41V391.667Z" fill="#A0A0A0"/>
</g>
<g filter="url(#filter2_d_1923_10250)">
<rect x="28" y="267" width="137.077" height="98.1538" rx="3.38462" fill="#FFF7E2"/>
<path d="M40.5241 280.308H41.5337C41.4874 279.008 40.2885 278.036 38.6227 278.036C36.9736 278.036 35.6779 278.995 35.6779 280.442C35.6779 281.603 36.5193 282.293 37.8654 282.68L38.9255 282.983C39.8342 283.236 40.6419 283.555 40.6419 284.414C40.6419 285.356 39.7332 285.978 38.5385 285.978C37.5121 285.978 36.6034 285.524 36.5193 284.548H35.4424C35.5433 285.962 36.6876 286.921 38.5385 286.921C40.5241 286.921 41.6515 285.827 41.6515 284.43C41.6515 282.815 40.1202 282.293 39.2284 282.058L38.3534 281.822C37.714 281.654 36.6876 281.317 36.6876 280.392C36.6876 279.567 37.4448 278.962 38.589 278.962C39.6323 278.962 40.4231 279.458 40.5241 280.308ZM45.1336 286.921C46.261 286.921 46.85 286.315 47.0519 285.894H47.1024V286.769H48.0952V282.512C48.0952 280.459 46.5303 280.224 45.7057 280.224C44.7298 280.224 43.6192 280.56 43.1144 281.738L44.0567 282.075C44.2754 281.603 44.7929 281.099 45.7394 281.099C46.6523 281.099 47.1024 281.582 47.1024 282.411V282.445C47.1024 282.924 46.6144 282.882 45.4365 283.034C44.2376 283.189 42.9293 283.454 42.9293 284.935C42.9293 286.197 43.9053 286.921 45.1336 286.921ZM45.2851 286.029C44.4942 286.029 43.9221 285.676 43.9221 284.986C43.9221 284.228 44.612 283.993 45.386 283.892C45.8067 283.841 46.9341 283.724 47.1024 283.522V284.43C47.1024 285.238 46.4629 286.029 45.2851 286.029ZM51.8255 281.385L50.9 281.734V278.154H49.9072V282.112L48.9817 282.462V283.202L49.9072 282.853V286.769H50.9V282.474L51.8255 282.125V281.385ZM54.6198 286.921C55.7472 286.921 56.3361 286.315 56.5381 285.894H56.5885V286.769H57.5813V282.512C57.5813 280.459 56.0164 280.224 55.1919 280.224C54.216 280.224 53.1054 280.56 52.6006 281.738L53.5429 282.075C53.7616 281.603 54.2791 281.099 55.2256 281.099C56.1384 281.099 56.5885 281.582 56.5885 282.411V282.445C56.5885 282.924 56.1006 282.882 54.9227 283.034C53.7238 283.189 52.4155 283.454 52.4155 284.935C52.4155 286.197 53.3914 286.921 54.6198 286.921ZM54.7712 286.029C53.9804 286.029 53.4083 285.676 53.4083 284.986C53.4083 284.228 54.0982 283.993 54.8722 283.892C55.2929 283.841 56.4203 283.724 56.5885 283.522V284.43C56.5885 285.238 55.9491 286.029 54.7712 286.029ZM62.2035 280.308H60.8237V278.76H59.8309V280.308H58.8549V281.149H59.8309V285.188C59.8309 286.315 60.7395 286.853 61.5809 286.853C61.9511 286.853 62.1867 286.786 62.3213 286.736L62.1193 285.844C62.0352 285.861 61.9006 285.894 61.6818 285.894C61.2443 285.894 60.8237 285.76 60.8237 284.918V281.149H62.2035V280.308ZM63.8357 286.769H64.8285V284.35L65.5226 283.707L67.9415 286.769H69.2035L66.2714 283.067L69.0016 280.308H67.7732L64.9463 283.185H64.8285V278.154H63.8357V286.769ZM72.1808 286.921C73.3082 286.921 73.8971 286.315 74.0991 285.894H74.1495V286.769H75.1423V282.512C75.1423 280.459 73.5774 280.224 72.7529 280.224C71.777 280.224 70.6664 280.56 70.1616 281.738L71.1039 282.075C71.3226 281.603 71.8401 281.099 72.7866 281.099C73.6994 281.099 74.1495 281.582 74.1495 282.411V282.445C74.1495 282.924 73.6616 282.882 72.4837 283.034C71.2848 283.189 69.9765 283.454 69.9765 284.935C69.9765 286.197 70.9524 286.921 72.1808 286.921ZM72.3322 286.029C71.5414 286.029 70.9693 285.676 70.9693 284.986C70.9693 284.228 71.6592 283.993 72.4332 283.892C72.8539 283.841 73.9813 283.724 74.1495 283.522V284.43C74.1495 285.238 73.5101 286.029 72.3322 286.029ZM80.101 286.769H85.1659V285.844H81.4808V285.776L85.0481 281.099V280.308H80.2188V281.233H83.7693V281.301L80.101 286.012V286.769ZM38.2861 306.327C39.8342 306.327 41.0794 305.62 41.0794 303.954V297.308H40.1202V298.334H40.0193C39.8005 297.998 39.3967 297.224 38.1347 297.224C36.5025 297.224 35.3751 298.519 35.3751 300.505C35.3751 302.524 36.5529 303.668 38.1178 303.668C39.3799 303.668 39.7837 302.928 40.0025 302.575H40.0866V303.887C40.0866 304.964 39.3294 305.452 38.2861 305.452C37.1124 305.452 36.7002 304.834 36.4352 304.476L35.6443 305.031C36.0481 305.709 36.8432 306.327 38.2861 306.327ZM38.2525 302.776C37.0073 302.776 36.3678 301.834 36.3678 300.488C36.3678 299.176 36.9904 298.115 38.2525 298.115C39.464 298.115 40.1034 299.091 40.1034 300.488C40.1034 301.918 39.4472 302.776 38.2525 302.776ZM42.8967 303.769H43.8895V299.68C43.8895 298.805 44.5794 298.166 45.5217 298.166C45.7867 298.166 46.0602 298.216 46.1275 298.233V297.224C46.0139 297.215 45.7531 297.207 45.6058 297.207C44.8318 297.207 44.1587 297.644 43.9231 298.284H43.8558V297.308H42.8967V303.769ZM47.3043 303.769H48.2971V297.308H47.3043V303.769ZM47.8091 296.231C48.1961 296.231 48.5158 295.928 48.5158 295.558C48.5158 295.188 48.1961 294.885 47.8091 294.885C47.4221 294.885 47.1024 295.188 47.1024 295.558C47.1024 295.928 47.4221 296.231 47.8091 296.231ZM51.1082 295.154H50.1154V303.769H51.1082V295.154ZM53.9194 295.154H52.9266V303.769H53.9194V295.154ZM58.3627 303.904C60.1127 303.904 61.2906 302.575 61.2906 300.572C61.2906 298.553 60.1127 297.224 58.3627 297.224C56.6127 297.224 55.4349 298.553 55.4349 300.572C55.4349 302.575 56.6127 303.904 58.3627 303.904ZM58.3627 303.012C57.0334 303.012 56.4276 301.868 56.4276 300.572C56.4276 299.276 57.0334 298.115 58.3627 298.115C59.6921 298.115 60.2978 299.276 60.2978 300.572C60.2978 301.868 59.6921 303.012 58.3627 303.012ZM64.0502 303.769H65.0262L66.4397 298.805H66.5406L67.9541 303.769H68.93L70.8988 297.308H69.8555L68.4589 302.238H68.3916L67.0286 297.308H65.9685L64.5887 302.255H64.5214L63.1248 297.308H62.0815L64.0502 303.769ZM74.1127 303.921C75.2401 303.921 75.8291 303.315 76.031 302.894H76.0815V303.769H77.0743V299.512C77.0743 297.459 75.5094 297.224 74.6849 297.224C73.7089 297.224 72.5983 297.56 72.0935 298.738L73.0358 299.075C73.2546 298.603 73.772 298.099 74.7185 298.099C75.6314 298.099 76.0815 298.582 76.0815 299.411V299.445C76.0815 299.924 75.5935 299.882 74.4156 300.034C73.2167 300.189 71.9084 300.454 71.9084 301.935C71.9084 303.197 72.8844 303.921 74.1127 303.921ZM74.2642 303.029C73.4733 303.029 72.9012 302.676 72.9012 301.986C72.9012 301.228 73.5911 300.993 74.3651 300.892C74.7858 300.841 75.9132 300.724 76.0815 300.522V301.43C76.0815 302.238 75.4421 303.029 74.2642 303.029ZM79.8791 299.882C79.8791 298.755 80.5774 298.115 81.5282 298.115C82.4494 298.115 83.0089 298.717 83.0089 299.731V303.769H84.0017V299.664C84.0017 298.014 83.1225 297.224 81.8142 297.224C80.8382 297.224 80.2325 297.661 79.9296 298.317H79.8455V297.308H78.8863V303.769H79.8791V299.882ZM88.525 303.904C89.8375 303.904 90.7966 303.248 91.0995 302.272L90.1404 302.002C89.888 302.676 89.3032 303.012 88.525 303.012C87.3597 303.012 86.5562 302.259 86.51 300.875H91.2005V300.454C91.2005 298.048 89.7702 297.224 88.424 297.224C86.674 297.224 85.513 298.603 85.513 300.589C85.513 302.575 86.6572 303.904 88.525 303.904ZM86.51 300.017C86.5773 299.011 87.2882 298.115 88.424 298.115C89.501 298.115 90.1909 298.923 90.1909 300.017H86.51ZM95.3189 306.327C96.8669 306.327 98.1121 305.62 98.1121 303.954V297.308H97.153V298.334H97.052C96.8333 297.998 96.4294 297.224 95.1674 297.224C93.5352 297.224 92.4078 298.519 92.4078 300.505C92.4078 302.524 93.5857 303.668 95.1506 303.668C96.4126 303.668 96.8165 302.928 97.0352 302.575H97.1193V303.887C97.1193 304.964 96.3621 305.452 95.3189 305.452C94.1452 305.452 93.7329 304.834 93.4679 304.476L92.677 305.031C93.0809 305.709 93.876 306.327 95.3189 306.327ZM95.2852 302.776C94.04 302.776 93.4006 301.834 93.4006 300.488C93.4006 299.176 94.0232 298.115 95.2852 298.115C96.4968 298.115 97.1362 299.091 97.1362 300.488C97.1362 301.918 96.4799 302.776 95.2852 302.776ZM102.554 303.904C104.304 303.904 105.482 302.575 105.482 300.572C105.482 298.553 104.304 297.224 102.554 297.224C100.804 297.224 99.6266 298.553 99.6266 300.572C99.6266 302.575 100.804 303.904 102.554 303.904ZM102.554 303.012C101.225 303.012 100.619 301.868 100.619 300.572C100.619 299.276 101.225 298.115 102.554 298.115C103.884 298.115 104.49 299.276 104.49 300.572C104.49 301.868 103.884 303.012 102.554 303.012ZM112.248 298.385L111.322 298.734V295.154H110.33V299.112L109.404 299.462V300.202L110.33 299.853V303.769H111.322V299.474L112.248 299.125V298.385ZM115.766 303.904C117.516 303.904 118.694 302.575 118.694 300.572C118.694 298.553 117.516 297.224 115.766 297.224C114.016 297.224 112.838 298.553 112.838 300.572C112.838 302.575 114.016 303.904 115.766 303.904ZM115.766 303.012C114.436 303.012 113.831 301.868 113.831 300.572C113.831 299.276 114.436 298.115 115.766 298.115C117.095 298.115 117.701 299.276 117.701 300.572C117.701 301.868 117.095 303.012 115.766 303.012ZM124.786 298.755C124.475 297.838 123.776 297.224 122.498 297.224C121.135 297.224 120.125 297.998 120.125 299.091C120.125 299.983 120.655 300.581 121.841 300.858L122.918 301.111C123.57 301.262 123.877 301.573 123.877 302.019C123.877 302.575 123.288 303.029 122.363 303.029C121.551 303.029 121.042 302.68 120.865 301.986L119.923 302.221C120.154 303.319 121.059 303.904 122.38 303.904C123.882 303.904 124.904 303.084 124.904 301.969C124.904 301.069 124.34 300.501 123.187 300.219L122.228 299.983C121.463 299.794 121.118 299.537 121.118 299.041C121.118 298.486 121.707 298.082 122.498 298.082C123.364 298.082 123.722 298.561 123.894 299.007L124.786 298.755ZM129.023 303.904C130.773 303.904 131.951 302.575 131.951 300.572C131.951 298.553 130.773 297.224 129.023 297.224C127.273 297.224 126.095 298.553 126.095 300.572C126.095 302.575 127.273 303.904 129.023 303.904ZM129.023 303.012C127.694 303.012 127.088 301.868 127.088 300.572C127.088 299.276 127.694 298.115 129.023 298.115C130.353 298.115 130.958 299.276 130.958 300.572C130.958 301.868 130.353 303.012 129.023 303.012ZM138.043 298.755C137.732 297.838 137.034 297.224 135.755 297.224C134.392 297.224 133.382 297.998 133.382 299.091C133.382 299.983 133.912 300.581 135.099 300.858L136.176 301.111C136.828 301.262 137.135 301.573 137.135 302.019C137.135 302.575 136.546 303.029 135.62 303.029C134.809 303.029 134.299 302.68 134.123 301.986L133.18 302.221C133.412 303.319 134.316 303.904 135.637 303.904C137.139 303.904 138.161 303.084 138.161 301.969C138.161 301.069 137.598 300.501 136.445 300.219L135.486 299.983C134.72 299.794 134.375 299.537 134.375 299.041C134.375 298.486 134.964 298.082 135.755 298.082C136.622 298.082 136.979 298.561 137.152 299.007L138.043 298.755ZM139.656 303.769H140.648V297.308H139.656V303.769ZM140.161 296.231C140.548 296.231 140.867 295.928 140.867 295.558C140.867 295.188 140.548 294.885 140.161 294.885C139.773 294.885 139.454 295.188 139.454 295.558C139.454 295.928 139.773 296.231 140.161 296.231ZM144.368 303.921C145.496 303.921 146.085 303.315 146.287 302.894H146.337V303.769H147.33V299.512C147.33 297.459 145.765 297.224 144.94 297.224C143.964 297.224 142.854 297.56 142.349 298.738L143.291 299.075C143.51 298.603 144.028 298.099 144.974 298.099C145.887 298.099 146.337 298.582 146.337 299.411V299.445C146.337 299.924 145.849 299.882 144.671 300.034C143.472 300.189 142.164 300.454 142.164 301.935C142.164 303.197 143.14 303.921 144.368 303.921ZM144.52 303.029C143.729 303.029 143.157 302.676 143.157 301.986C143.157 301.228 143.847 300.993 144.621 300.892C145.041 300.841 146.169 300.724 146.337 300.522V301.43C146.337 302.238 145.698 303.029 144.52 303.029ZM152.289 303.769H157.353V302.844H153.668V302.776L157.236 298.099V297.308H152.406V298.233H155.957V298.301L152.289 303.012V303.769ZM35.6779 323.192H36.6707V319.776H36.7549C36.9736 320.13 37.3943 320.904 38.6395 320.904C40.2549 320.904 41.3823 319.608 41.3823 317.555C41.3823 315.519 40.2549 314.224 38.6227 314.224C37.3606 314.224 36.9736 314.998 36.7549 315.334H36.6371V314.308H35.6779V323.192ZM36.6539 317.539C36.6539 316.091 37.2933 315.115 38.5049 315.115C39.7669 315.115 40.3895 316.176 40.3895 317.539C40.3895 318.918 39.7501 320.012 38.5049 320.012C37.3102 320.012 36.6539 319.002 36.6539 317.539ZM44.7981 320.921C45.9255 320.921 46.5145 320.315 46.7164 319.894H46.7669V320.769H47.7597V316.512C47.7597 314.459 46.1948 314.224 45.3702 314.224C44.3943 314.224 43.2837 314.56 42.7789 315.738L43.7212 316.075C43.94 315.603 44.4574 315.099 45.4039 315.099C46.3168 315.099 46.7669 315.582 46.7669 316.411V316.445C46.7669 316.924 46.2789 316.882 45.101 317.034C43.9021 317.189 42.5938 317.454 42.5938 318.935C42.5938 320.197 43.5698 320.921 44.7981 320.921ZM44.9496 320.029C44.1587 320.029 43.5866 319.676 43.5866 318.986C43.5866 318.228 44.2765 317.993 45.0505 317.892C45.4712 317.841 46.5986 317.724 46.7669 317.522V318.43C46.7669 319.238 46.1275 320.029 44.9496 320.029ZM49.5717 323.192H50.5645V319.776H50.6486C50.8674 320.13 51.2881 320.904 52.5333 320.904C54.1486 320.904 55.276 319.608 55.276 317.555C55.276 315.519 54.1486 314.224 52.5164 314.224C51.2544 314.224 50.8674 314.998 50.6486 315.334H50.5309V314.308H49.5717V323.192ZM50.5477 317.539C50.5477 316.091 51.1871 315.115 52.3986 315.115C53.6607 315.115 54.2833 316.176 54.2833 317.539C54.2833 318.918 53.6438 320.012 52.3986 320.012C51.2039 320.012 50.5477 319.002 50.5477 317.539ZM56.7905 320.769H57.7833V316.68C57.7833 315.805 58.4732 315.166 59.4155 315.166C59.6805 315.166 59.9539 315.216 60.0212 315.233V314.224C59.9077 314.215 59.6468 314.207 59.4996 314.207C58.7256 314.207 58.0525 314.644 57.8169 315.284H57.7496V314.308H56.7905V320.769ZM62.0342 323.192C62.9302 323.192 63.5612 322.717 63.9356 321.712L66.6868 314.325L65.6015 314.308L63.8178 319.457H63.7505L61.9669 314.308H60.8899L63.2794 320.803L63.0943 321.308C62.7325 322.292 62.2866 322.385 61.563 322.2L61.3106 323.075C61.4116 323.125 61.6976 323.192 62.0342 323.192ZM68.0004 320.769H68.9931V318.35L69.6873 317.707L72.1061 320.769H73.3681L70.4361 317.067L73.1662 314.308H71.9379L69.1109 317.185H68.9931V312.154H68.0004V320.769ZM76.3455 320.921C77.4729 320.921 78.0618 320.315 78.2637 319.894H78.3142V320.702C77.6033 321.152 77.3214 321.674 77.3214 322.183C77.3214 322.906 77.8262 323.293 78.5161 323.293C78.92 323.293 79.2229 323.159 79.408 323.041L79.3407 322.301C79.2229 322.368 79.0209 322.452 78.7685 322.452C78.432 322.452 78.331 322.301 78.331 322.048C78.331 321.543 78.8022 321.139 79.307 320.769V316.512C79.307 314.459 77.7421 314.224 76.9176 314.224C75.9416 314.224 74.831 314.56 74.3262 315.738L75.2685 316.075C75.4873 315.603 76.0047 315.099 76.9512 315.099C77.8641 315.099 78.3142 315.582 78.3142 316.411V316.445C78.3142 316.924 77.8262 316.882 76.6483 317.034C75.4494 317.189 74.1411 317.454 74.1411 318.935C74.1411 320.197 75.1171 320.921 76.3455 320.921ZM76.4969 320.029C75.706 320.029 75.1339 319.676 75.1339 318.986C75.1339 318.228 75.8238 317.993 76.5979 317.892C77.0185 317.841 78.1459 317.724 78.3142 317.522V318.43C78.3142 319.238 77.6748 320.029 76.4969 320.029ZM84.4508 320.769H85.4436V314.308H84.4508V320.769ZM84.9556 313.231C85.3426 313.231 85.6623 312.928 85.6623 312.558C85.6623 312.188 85.3426 311.885 84.9556 311.885C84.5686 311.885 84.2489 312.188 84.2489 312.558C84.2489 312.928 84.5686 313.231 84.9556 313.231ZM93.2187 320.904C94.9687 320.904 96.1465 319.575 96.1465 317.572C96.1465 315.553 94.9687 314.224 93.2187 314.224C91.4687 314.224 90.2908 315.553 90.2908 317.572C90.2908 319.575 91.4687 320.904 93.2187 320.904ZM93.2187 320.012C91.8893 320.012 91.2836 318.868 91.2836 317.572C91.2836 316.276 91.8893 315.115 93.2187 315.115C94.548 315.115 95.1538 316.276 95.1538 317.572C95.1538 318.868 94.548 320.012 93.2187 320.012ZM100.27 323.327C101.818 323.327 103.063 322.62 103.063 320.954V314.308H102.104V315.334H102.003C101.785 314.998 101.381 314.224 100.119 314.224C98.4865 314.224 97.3591 315.519 97.3591 317.505C97.3591 319.524 98.537 320.668 100.102 320.668C101.364 320.668 101.768 319.928 101.987 319.575H102.071V320.887C102.071 321.964 101.313 322.452 100.27 322.452C99.0965 322.452 98.6843 321.834 98.4192 321.476L97.6284 322.031C98.0322 322.709 98.8273 323.327 100.27 323.327ZM100.237 319.776C98.9913 319.776 98.3519 318.834 98.3519 317.488C98.3519 316.176 98.9745 315.115 100.237 315.115C101.448 315.115 102.087 316.091 102.087 317.488C102.087 318.918 101.431 319.776 100.237 319.776ZM107.506 320.904C109.256 320.904 110.434 319.575 110.434 317.572C110.434 315.553 109.256 314.224 107.506 314.224C105.756 314.224 104.578 315.553 104.578 317.572C104.578 319.575 105.756 320.904 107.506 320.904ZM107.506 320.012C106.176 320.012 105.571 318.868 105.571 317.572C105.571 316.276 106.176 315.115 107.506 315.115C108.835 315.115 109.441 316.276 109.441 317.572C109.441 318.868 108.835 320.012 107.506 320.012ZM107.051 313.433H107.926L109.239 311.481H108.078L107.051 313.433ZM111.949 320.769H112.942V316.68C112.942 315.805 113.632 315.166 114.574 315.166C114.839 315.166 115.113 315.216 115.18 315.233V314.224C115.066 314.215 114.805 314.207 114.658 314.207C113.884 314.207 113.211 314.644 112.976 315.284H112.908V314.308H111.949V320.769ZM116.357 320.769H117.35V318.35L118.044 317.707L120.462 320.769H121.725L118.792 317.067L121.523 314.308H120.294L117.467 317.185H117.35V312.154H116.357V320.769ZM122.8 320.769H123.793V314.308H122.8V320.769ZM123.305 313.231C123.692 313.231 124.012 312.928 124.012 312.558C124.012 312.188 123.692 311.885 123.305 311.885C122.918 311.885 122.598 312.188 122.598 312.558C122.598 312.928 122.918 313.231 123.305 313.231ZM128.321 320.904C129.633 320.904 130.592 320.248 130.895 319.272L129.936 319.002C129.684 319.676 129.099 320.012 128.321 320.012C127.155 320.012 126.352 319.259 126.306 317.875H130.996V317.454C130.996 315.048 129.566 314.224 128.22 314.224C126.47 314.224 125.309 315.603 125.309 317.589C125.309 319.575 126.453 320.904 128.321 320.904ZM126.306 317.017C126.373 316.011 127.084 315.115 128.22 315.115C129.297 315.115 129.987 315.923 129.987 317.017H126.306ZM132.506 320.769H133.499V316.731C133.499 315.784 134.189 315.115 134.963 315.115C135.716 315.115 136.242 315.608 136.242 316.344V320.769H137.252V316.563C137.252 315.73 137.773 315.115 138.682 315.115C139.389 315.115 139.994 315.49 139.994 316.445V320.769H140.987V316.445C140.987 314.926 140.171 314.224 139.018 314.224C138.093 314.224 137.416 314.648 137.083 315.317H137.016C136.696 314.627 136.133 314.224 135.283 314.224C134.441 314.224 133.819 314.627 133.55 315.317H133.466V314.308H132.506V320.769ZM35.6779 337.769H36.6707V335.35L37.3648 334.707L39.7837 337.769H41.0457L38.1136 334.067L40.8438 331.308H39.6154L36.7885 334.185H36.6707V329.154H35.6779V337.769ZM42.1216 337.769H43.1144V331.308H42.1216V337.769ZM42.6264 330.231C43.0134 330.231 43.3331 329.928 43.3331 329.558C43.3331 329.188 43.0134 328.885 42.6264 328.885C42.2394 328.885 41.9197 329.188 41.9197 329.558C41.9197 329.928 42.2394 330.231 42.6264 330.231ZM49.5097 332.755C49.1984 331.838 48.5001 331.224 47.2212 331.224C45.8582 331.224 44.8486 331.998 44.8486 333.091C44.8486 333.983 45.3787 334.581 46.565 334.858L47.6419 335.111C48.2939 335.262 48.601 335.573 48.601 336.019C48.601 336.575 48.0121 337.029 47.0866 337.029C46.2747 337.029 45.7657 336.68 45.589 335.986L44.6467 336.221C44.8781 337.319 45.7825 337.904 47.1034 337.904C48.6052 337.904 49.6275 337.084 49.6275 335.969C49.6275 335.069 49.0638 334.501 47.9111 334.219L46.952 333.983C46.1864 333.794 45.8414 333.537 45.8414 333.041C45.8414 332.486 46.4303 332.082 47.2212 332.082C48.0878 332.082 48.4454 332.561 48.6178 333.007L49.5097 332.755ZM50.9368 337.769H56.0017V336.844H52.3166V336.776L55.8839 332.099V331.308H51.0546V332.233H54.6051V332.301L50.9368 337.012V337.769ZM59.9708 337.904C61.7208 337.904 62.8986 336.575 62.8986 334.572C62.8986 332.553 61.7208 331.224 59.9708 331.224C58.2208 331.224 57.0429 332.553 57.0429 334.572C57.0429 336.575 58.2208 337.904 59.9708 337.904ZM59.9708 337.012C58.6414 337.012 58.0357 335.868 58.0357 334.572C58.0357 333.276 58.6414 332.115 59.9708 332.115C61.3001 332.115 61.9059 333.276 61.9059 334.572C61.9059 335.868 61.3001 337.012 59.9708 337.012ZM65.4069 333.882C65.4069 332.755 66.1052 332.115 67.0559 332.115C67.9772 332.115 68.5367 332.717 68.5367 333.731V337.769H69.5295V333.664C69.5295 332.014 68.6503 331.224 67.342 331.224C66.366 331.224 65.7603 331.661 65.4574 332.317H65.3733V331.308H64.4141V337.769H65.4069V333.882ZM71.7517 340.192C72.6477 340.192 73.2788 339.717 73.6532 338.712L76.4044 331.325L75.319 331.308L73.5354 336.457H73.4681L71.6844 331.308H70.6075L72.9969 337.803L72.8118 338.308C72.45 339.292 72.0041 339.385 71.2806 339.2L71.0282 340.075C71.1291 340.125 71.4152 340.192 71.7517 340.192ZM77.7179 337.769H78.7107V333.731C78.7107 332.784 79.4006 332.115 80.1746 332.115C80.9276 332.115 81.4535 332.608 81.4535 333.344V337.769H82.4631V333.563C82.4631 332.73 82.9847 332.115 83.8934 332.115C84.6001 332.115 85.2059 332.49 85.2059 333.445V337.769H86.1987V333.445C86.1987 331.926 85.3826 331.224 84.2299 331.224C83.3044 331.224 82.6272 331.648 82.2948 332.317H82.2275C81.9078 331.627 81.3441 331.224 80.4944 331.224C79.653 331.224 79.0304 331.627 78.7612 332.317H78.677V331.308H77.7179V337.769ZM94.3913 328.75H93.4826L90.7062 339.065H91.6148L94.3913 328.75ZM98.8998 331.308V338.24C98.8998 338.897 98.6306 339.267 98.0248 339.267H97.8398V340.192H98.0417C99.2869 340.192 99.8926 339.435 99.8926 338.24V331.308H98.8998ZM99.3878 330.231C99.7748 330.231 100.095 329.928 100.095 329.558C100.095 329.188 99.7748 328.885 99.3878 328.885C99.0008 328.885 98.6811 329.188 98.6811 329.558C98.6811 329.928 99.0008 330.231 99.3878 330.231ZM103.612 337.921C104.74 337.921 105.329 337.315 105.531 336.894H105.581V337.769H106.574V333.512C106.574 331.459 105.009 331.224 104.185 331.224C103.209 331.224 102.098 331.56 101.593 332.738L102.536 333.075C102.754 332.603 103.272 332.099 104.218 332.099C105.131 332.099 105.581 332.582 105.581 333.411V333.445C105.581 333.924 105.093 333.882 103.915 334.034C102.716 334.189 101.408 334.454 101.408 335.935C101.408 337.197 102.384 337.921 103.612 337.921ZM103.764 337.029C102.973 337.029 102.401 336.676 102.401 335.986C102.401 335.228 103.091 334.993 103.865 334.892C104.286 334.841 105.413 334.724 105.581 334.522V335.43C105.581 336.238 104.942 337.029 103.764 337.029ZM110.994 340.327C112.542 340.327 113.787 339.62 113.787 337.954V331.308H112.828V332.334H112.727C112.509 331.998 112.105 331.224 110.843 331.224C109.211 331.224 108.083 332.519 108.083 334.505C108.083 336.524 109.261 337.668 110.826 337.668C112.088 337.668 112.492 336.928 112.711 336.575H112.795V337.887C112.795 338.964 112.037 339.452 110.994 339.452C109.821 339.452 109.408 338.834 109.143 338.476L108.352 339.031C108.756 339.709 109.551 340.327 110.994 340.327ZM110.961 336.776C109.715 336.776 109.076 335.834 109.076 334.488C109.076 333.176 109.699 332.115 110.961 332.115C112.172 332.115 112.812 333.091 112.812 334.488C112.812 335.918 112.155 336.776 110.961 336.776ZM118.23 337.904C119.98 337.904 121.158 336.575 121.158 334.572C121.158 332.553 119.98 331.224 118.23 331.224C116.48 331.224 115.302 332.553 115.302 334.572C115.302 336.575 116.48 337.904 118.23 337.904ZM118.23 337.012C116.9 337.012 116.295 335.868 116.295 334.572C116.295 333.276 116.9 332.115 118.23 332.115C119.559 332.115 120.165 333.276 120.165 334.572C120.165 335.868 119.559 337.012 118.23 337.012ZM125.113 337.904C126.358 337.904 126.779 337.13 126.998 336.776H127.115V337.769H128.075V329.154H127.082V332.334H126.998C126.779 331.998 126.392 331.224 125.13 331.224C123.498 331.224 122.37 332.519 122.37 334.555C122.37 336.608 123.498 337.904 125.113 337.904ZM125.248 337.012C124.002 337.012 123.363 335.918 123.363 334.539C123.363 333.176 123.986 332.115 125.248 332.115C126.459 332.115 127.099 333.091 127.099 334.539C127.099 336.002 126.442 337.012 125.248 337.012ZM130.67 340.192C131.566 340.192 132.197 339.717 132.572 338.712L135.323 331.325L134.237 331.308L132.454 336.457H132.386L130.603 331.308H129.526L131.915 337.803L131.73 338.308C131.368 339.292 130.923 339.385 130.199 339.2L129.947 340.075C130.048 340.125 130.334 340.192 130.67 340.192ZM139.783 337.769H144.848V336.844H141.163V336.776L144.73 332.099V331.308H139.901V332.233H143.451V332.301L139.783 337.012V337.769ZM35.6779 347.308V354.24C35.6779 354.897 35.4087 355.267 34.8029 355.267H34.6178V356.192H34.8198C36.065 356.192 36.6707 355.435 36.6707 354.24V347.308H35.6779ZM36.1659 346.231C36.5529 346.231 36.8727 345.928 36.8727 345.558C36.8727 345.188 36.5529 344.885 36.1659 344.885C35.7789 344.885 35.4592 345.188 35.4592 345.558C35.4592 345.928 35.7789 346.231 36.1659 346.231ZM41.1141 353.904C42.8641 353.904 44.042 352.575 44.042 350.572C44.042 348.553 42.8641 347.224 41.1141 347.224C39.3641 347.224 38.1862 348.553 38.1862 350.572C38.1862 352.575 39.3641 353.904 41.1141 353.904ZM41.1141 353.012C39.7848 353.012 39.179 351.868 39.179 350.572C39.179 349.276 39.7848 348.115 41.1141 348.115C42.4434 348.115 43.0492 349.276 43.0492 350.572C43.0492 351.868 42.4434 353.012 41.1141 353.012ZM48.1656 356.327C49.7137 356.327 50.9589 355.62 50.9589 353.954V347.308H49.9998V348.334H49.8988C49.68 347.998 49.2762 347.224 48.0142 347.224C46.382 347.224 45.2546 348.519 45.2546 350.505C45.2546 352.524 46.4324 353.668 47.9974 353.668C49.2594 353.668 49.6632 352.928 49.882 352.575H49.9661V353.887C49.9661 354.964 49.2089 355.452 48.1656 355.452C46.9919 355.452 46.5797 354.834 46.3147 354.476L45.5238 355.031C45.9276 355.709 46.7227 356.327 48.1656 356.327ZM48.132 352.776C46.8868 352.776 46.2474 351.834 46.2474 350.488C46.2474 349.176 46.8699 348.115 48.132 348.115C49.3435 348.115 49.9829 349.091 49.9829 350.488C49.9829 351.918 49.3267 352.776 48.132 352.776ZM56.8483 351.127C56.8483 352.339 55.9228 352.894 55.1824 352.894C54.3579 352.894 53.769 352.289 53.769 351.346V347.308H52.7762V351.414C52.7762 353.063 53.6512 353.853 54.8627 353.853C55.8387 353.853 56.4781 353.332 56.781 352.676H56.8483V353.769H57.8411V347.308H56.8483V351.127ZM59.6595 353.769H60.6523V349.68C60.6523 348.805 61.3422 348.166 62.2845 348.166C62.5495 348.166 62.8229 348.216 62.8902 348.233V347.224C62.7767 347.215 62.5158 347.207 62.3686 347.207C61.5946 347.207 60.9215 347.644 60.6859 348.284H60.6186V347.308H59.6595V353.769ZM67.2821 347.308H65.9023V345.76H64.9095V347.308H63.9335V348.149H64.9095V352.188C64.9095 353.315 65.8181 353.853 66.6595 353.853C67.0297 353.853 67.2652 353.786 67.3998 353.736L67.1979 352.844C67.1138 352.861 66.9792 352.894 66.7604 352.894C66.3229 352.894 65.9023 352.76 65.9023 351.918V348.149H67.2821V347.308ZM71.4152 353.904C72.7277 353.904 73.6868 353.248 73.9897 352.272L73.0306 352.002C72.7782 352.676 72.1934 353.012 71.4152 353.012C70.2499 353.012 69.4464 352.259 69.4001 350.875H74.0907V350.454C74.0907 348.048 72.6604 347.224 71.3142 347.224C69.5642 347.224 68.4032 348.603 68.4032 350.589C68.4032 352.575 69.5474 353.904 71.4152 353.904ZM69.4001 350.017C69.4675 349.011 70.1784 348.115 71.3142 348.115C72.3911 348.115 73.081 348.923 73.081 350.017H69.4001ZM75.6009 353.769H76.5937V349.731C76.5937 348.784 77.2836 348.115 78.0576 348.115C78.8106 348.115 79.3364 348.608 79.3364 349.344V353.769H80.3461V349.563C80.3461 348.73 80.8677 348.115 81.7763 348.115C82.4831 348.115 83.0888 348.49 83.0888 349.445V353.769H84.0816V349.445C84.0816 347.926 83.2655 347.224 82.1129 347.224C81.1874 347.224 80.5101 347.648 80.1778 348.317H80.1105C79.7908 347.627 79.2271 347.224 78.3773 347.224C77.536 347.224 76.9134 347.627 76.6441 348.317H76.56V347.308H75.6009V353.769Z" fill="#333333" fill-opacity="0.88"/>
<rect x="90.6154" y="371.923" width="20.3077" height="20.3077" rx="3.38462" fill="#F5F5F5"/>
<path d="M100.769 377.423C102.405 377.423 103.731 378.749 103.731 380.385C103.731 381.183 103.374 381.796 102.96 382.396C102.912 382.465 102.863 382.536 102.812 382.607C102.654 382.832 102.488 383.067 102.359 383.293C102.25 383.482 102.153 383.688 102.095 383.91H99.4438C99.3856 383.688 99.2881 383.482 99.1797 383.293C99.0501 383.067 98.8849 382.832 98.7261 382.607C98.6759 382.536 98.6265 382.465 98.5789 382.396C98.1643 381.796 97.8077 381.183 97.8077 380.385C97.8077 378.749 99.1336 377.423 100.769 377.423Z" stroke="#A0A0A0" stroke-width="0.846154" stroke-linecap="round" stroke-linejoin="round"/>
<path d="M100.769 386.308C100.401 386.308 100.087 386.072 99.9712 385.744H101.567C101.451 386.072 101.138 386.308 100.769 386.308Z" stroke="#A0A0A0" stroke-width="1.12821"/>
<path fill-rule="evenodd" clip-rule="evenodd" d="M99.641 380.088C99.641 379.965 99.7705 379.885 99.8806 379.94C100.44 380.22 101.098 380.22 101.658 379.94C101.768 379.885 101.897 379.965 101.897 380.088V380.831C101.897 380.903 101.857 380.969 101.792 381.001C101.148 381.323 100.39 381.323 99.7464 381.001C99.6818 380.969 99.641 380.903 99.641 380.831V380.088Z" fill="#A0A0A0"/>
<rect x="117.692" y="371.923" width="20.3077" height="20.3077" rx="3.38462" fill="#F5F5F5"/>
<path d="M128.41 381.513H130.667C130.978 381.513 131.231 381.765 131.231 382.077C131.231 382.389 130.978 382.641 130.667 382.641H128.41V384.898C128.41 385.209 128.158 385.462 127.846 385.462C127.535 385.462 127.282 385.209 127.282 384.898V382.641H125.026C124.714 382.641 124.462 382.389 124.462 382.077C124.462 381.765 124.714 381.513 125.026 381.513H127.282V379.256C127.282 378.945 127.535 378.692 127.846 378.692C128.158 378.692 128.41 378.945 128.41 379.256V381.513Z" fill="#A0A0A0"/>
<rect x="144.769" y="371.923" width="20.3077" height="20.3077" rx="3.38462" fill="#F5F5F5"/>
<path d="M155.487 381.513H157.744C158.055 381.513 158.308 381.765 158.308 382.077C158.308 382.389 158.055 382.641 157.744 382.641H155.487V384.898C155.487 385.209 155.235 385.462 154.923 385.462C154.612 385.462 154.359 385.209 154.359 384.898V382.641H152.103C151.791 382.641 151.538 382.389 151.538 382.077C151.538 381.765 151.791 381.513 152.103 381.513H154.359V379.256C154.359 378.945 154.612 378.692 154.923 378.692C155.235 378.692 155.487 378.945 155.487 379.256V381.513Z" fill="#A0A0A0"/>
</g>
<g filter="url(#filter3_d_1923_10250)">
<rect x="55.2307" y="52.0769" width="137.077" height="47.3846" rx="3.38462" fill="#F2FFE2"/>
<path d="M66.3413 63.2308V69.3895C66.3413 70.4622 65.8281 71.0385 64.9279 71.0385C64.1076 71.0385 63.5144 70.5589 63.5144 69.827H62.488C62.488 71.1521 63.5144 71.964 64.9279 71.964C66.4255 71.964 67.3846 71.0427 67.3846 69.3895V63.2308H66.3413ZM71.2422 71.9976C72.3696 71.9976 72.9585 71.3919 73.1605 70.9712H73.2109V71.8462H74.2037V67.589C74.2037 65.5361 72.6388 65.3005 71.8143 65.3005C70.8383 65.3005 69.7278 65.6371 69.223 66.8149L70.1653 67.1515C70.384 66.6803 70.9014 66.1755 71.848 66.1755C72.7608 66.1755 73.2109 66.6593 73.2109 67.488V67.5217C73.2109 68.0012 72.723 67.9592 71.5451 68.1106C70.3462 68.2663 69.0379 68.5313 69.0379 70.0121C69.0379 71.2741 70.0138 71.9976 71.2422 71.9976ZM71.3936 71.1058C70.6028 71.1058 70.0306 70.7524 70.0306 70.0625C70.0306 69.3053 70.7206 69.0697 71.4946 68.9688C71.9153 68.9183 73.0427 68.8005 73.2109 68.5986V69.5072C73.2109 70.3149 72.5715 71.1058 71.3936 71.1058ZM76.0158 65.3847V72.3173C76.0158 72.9736 75.7465 73.3438 75.1408 73.3438H74.9557V74.2693H75.1576C76.4028 74.2693 77.0086 73.5121 77.0086 72.3173V65.3847H76.0158ZM76.5038 64.3077C76.8908 64.3077 77.2105 64.0048 77.2105 63.6347C77.2105 63.2645 76.8908 62.9616 76.5038 62.9616C76.1167 62.9616 75.797 63.2645 75.797 63.6347C75.797 64.0048 76.1167 64.3077 76.5038 64.3077ZM78.8269 71.8462H79.8197V69.4273L80.5138 68.7837L82.9327 71.8462H84.1947L81.2626 68.1443L83.9928 65.3847H82.7644L79.9375 68.2621H79.8197V63.2308H78.8269V71.8462ZM87.172 71.9976C88.2994 71.9976 88.8884 71.3919 89.0903 70.9712H89.1408V71.8462H90.1336V67.589C90.1336 65.5361 88.5687 65.3005 87.7441 65.3005C86.7682 65.3005 85.6576 65.6371 85.1528 66.8149L86.0951 67.1515C86.3139 66.6803 86.8313 66.1755 87.7778 66.1755C88.6907 66.1755 89.1408 66.6593 89.1408 67.488V67.5217C89.1408 68.0012 88.6528 67.9592 87.4749 68.1106C86.276 68.2663 84.9677 68.5313 84.9677 70.0121C84.9677 71.2741 85.9437 71.9976 87.172 71.9976ZM87.3235 71.1058C86.5326 71.1058 85.9605 70.7524 85.9605 70.0625C85.9605 69.3053 86.6504 69.0697 87.4244 68.9688C87.8451 68.9183 88.9725 68.8005 89.1408 68.5986V69.5072C89.1408 70.3149 88.5014 71.1058 87.3235 71.1058ZM99.8543 66.8318C99.543 65.9147 98.8447 65.3005 97.5658 65.3005C96.2028 65.3005 95.1932 66.0746 95.1932 67.1683C95.1932 68.0601 95.7233 68.6575 96.9096 68.9351L97.9865 69.1875C98.6385 69.339 98.9456 69.6503 98.9456 70.0962C98.9456 70.6515 98.3567 71.1058 97.4312 71.1058C96.6193 71.1058 96.1103 70.7566 95.9336 70.0625L94.9913 70.2981C95.2227 71.3961 96.1271 71.9808 97.448 71.9808C98.9498 71.9808 99.9721 71.1605 99.9721 70.0457C99.9721 69.1455 99.4084 68.5776 98.2557 68.2957L97.2966 68.0601C96.531 67.8708 96.186 67.6142 96.186 67.1178C96.186 66.5625 96.7749 66.1587 97.5658 66.1587C98.4324 66.1587 98.79 66.6383 98.9624 67.0842L99.8543 66.8318ZM103.368 71.9976C104.495 71.9976 105.084 71.3919 105.286 70.9712H105.337V71.8462H106.329V67.589C106.329 65.5361 104.765 65.3005 103.94 65.3005C102.964 65.3005 101.854 65.6371 101.349 66.8149L102.291 67.1515C102.51 66.6803 103.027 66.1755 103.974 66.1755C104.887 66.1755 105.337 66.6593 105.337 67.488V67.5217C105.337 68.0012 104.849 67.9592 103.671 68.1106C102.472 68.2663 101.164 68.5313 101.164 70.0121C101.164 71.2741 102.14 71.9976 103.368 71.9976ZM103.519 71.1058C102.729 71.1058 102.156 70.7524 102.156 70.0625C102.156 69.3053 102.846 69.0697 103.62 68.9688C104.041 68.9183 105.168 68.8005 105.337 68.5986V69.5072C105.337 70.3149 104.697 71.1058 103.519 71.1058ZM110.581 71.9808C111.827 71.9808 112.247 71.2068 112.466 70.8534H112.584V71.8462H113.543V63.2308H112.55V66.4111H112.466C112.247 66.0746 111.86 65.3005 110.598 65.3005C108.966 65.3005 107.839 66.5962 107.839 68.6322C107.839 70.6851 108.966 71.9808 110.581 71.9808ZM110.716 71.089C109.471 71.089 108.831 69.9952 108.831 68.6154C108.831 67.2524 109.454 66.1923 110.716 66.1923C111.928 66.1923 112.567 67.1683 112.567 68.6154C112.567 70.0794 111.911 71.089 110.716 71.089ZM115.314 71.8462H120.379V70.9207H116.694V70.8534L120.261 66.1755V65.3847H115.432V66.3101H118.982V66.3774L115.314 71.089V71.8462ZM124.348 71.9808C126.098 71.9808 127.276 70.6515 127.276 68.6491C127.276 66.6298 126.098 65.3005 124.348 65.3005C122.598 65.3005 121.42 66.6298 121.42 68.6491C121.42 70.6515 122.598 71.9808 124.348 71.9808ZM124.348 71.089C123.019 71.089 122.413 69.9447 122.413 68.6491C122.413 67.3534 123.019 66.1923 124.348 66.1923C125.677 66.1923 126.283 67.3534 126.283 68.6491C126.283 69.9447 125.677 71.089 124.348 71.089ZM129.784 67.9592C129.784 66.8318 130.482 66.1923 131.433 66.1923C132.354 66.1923 132.914 66.7939 132.914 67.8077V71.8462H133.907V67.7404C133.907 66.0914 133.027 65.3005 131.719 65.3005C130.743 65.3005 130.137 65.738 129.835 66.3943H129.75V65.3847H128.791V71.8462H129.784V67.9592ZM138.43 71.9808C139.742 71.9808 140.702 71.3246 141.005 70.3486L140.045 70.0794C139.793 70.7524 139.208 71.089 138.43 71.089C137.265 71.089 136.461 70.336 136.415 68.952H141.105V68.5313C141.105 66.125 139.675 65.3005 138.329 65.3005C136.579 65.3005 135.418 66.6803 135.418 68.6659C135.418 70.6515 136.562 71.9808 138.43 71.9808ZM136.415 68.0938C136.482 67.0884 137.193 66.1923 138.329 66.1923C139.406 66.1923 140.096 67 140.096 68.0938H136.415ZM144.096 70.6683H143.02L142.969 71.1395C142.847 72.2795 142.607 73.4153 142.498 73.9496H143.255C143.457 73.3774 143.886 72.0818 144.029 71.1226L144.096 70.6683ZM62.7236 88.8462H67.7885V87.9207H64.1034V87.8534L67.6707 83.1755V82.3847H62.8413V83.3101H66.3918V83.3774L62.7236 88.089V88.8462ZM69.3176 88.8462H70.3104V82.3847H69.3176V88.8462ZM69.8224 81.3077C70.2094 81.3077 70.5291 81.0048 70.5291 80.6347C70.5291 80.2645 70.2094 79.9616 69.8224 79.9616C69.4354 79.9616 69.1157 80.2645 69.1157 80.6347C69.1157 81.0048 69.4354 81.3077 69.8224 81.3077ZM74.8379 88.9808C76.1504 88.9808 77.1095 88.3246 77.4124 87.3486L76.4533 87.0794C76.2009 87.7524 75.6161 88.089 74.8379 88.089C73.6726 88.089 72.8691 87.336 72.8229 85.952H77.5134V85.5313C77.5134 83.125 76.0831 82.3005 74.7369 82.3005C72.9869 82.3005 71.8259 83.6803 71.8259 85.6659C71.8259 87.6515 72.9701 88.9808 74.8379 88.9808ZM72.8229 85.0938C72.8902 84.0884 73.6011 83.1923 74.7369 83.1923C75.8139 83.1923 76.5038 84 76.5038 85.0938H72.8229ZM79.0236 88.8462H80.0164V84.8077C80.0164 83.8612 80.7063 83.1923 81.4803 83.1923C82.2333 83.1923 82.7592 83.6845 82.7592 84.4207V88.8462H83.7688V84.6395C83.7688 83.8065 84.2904 83.1923 85.1991 83.1923C85.9058 83.1923 86.5116 83.5667 86.5116 84.5217V88.8462H87.5044V84.5217C87.5044 83.003 86.6883 82.3005 85.5356 82.3005C84.6101 82.3005 83.9328 82.7254 83.6005 83.3943H83.5332C83.2135 82.7044 82.6498 82.3005 81.8 82.3005C80.9587 82.3005 80.3361 82.7044 80.0669 83.3943H79.9827V82.3847H79.0236V88.8462ZM90.3124 84.9592C90.3124 83.8318 91.0107 83.1923 91.9614 83.1923C92.8827 83.1923 93.4422 83.7939 93.4422 84.8077V88.8462H94.4349V84.7404C94.4349 83.0914 93.5557 82.3005 92.2474 82.3005C91.2715 82.3005 90.6657 82.738 90.3628 83.3943H90.2787V82.3847H89.3196V88.8462H90.3124V84.9592ZM96.2491 88.8462H97.2419V82.3847H96.2491V88.8462ZM96.7539 81.3077C97.1409 81.3077 97.4606 81.0048 97.4606 80.6347C97.4606 80.2645 97.1409 79.9616 96.7539 79.9616C96.3669 79.9616 96.0472 80.2645 96.0472 80.6347C96.0472 81.0048 96.3669 81.3077 96.7539 81.3077ZM100.962 88.9976C102.089 88.9976 102.678 88.3919 102.88 87.9712H102.93V88.8462H103.923V84.589C103.923 82.5361 102.358 82.3005 101.534 82.3005C100.558 82.3005 99.4473 82.6371 98.9425 83.8149L99.8848 84.1515C100.104 83.6803 100.621 83.1755 101.567 83.1755C102.48 83.1755 102.93 83.6593 102.93 84.488V84.5217C102.93 85.0012 102.442 84.9592 101.265 85.1106C100.066 85.2663 98.7574 85.5313 98.7574 87.0121C98.7574 88.2741 99.7333 88.9976 100.962 88.9976ZM101.113 88.1058C100.322 88.1058 99.7502 87.7524 99.7502 87.0625C99.7502 86.3053 100.44 86.0697 101.214 85.9688C101.635 85.9183 102.762 85.8005 102.93 85.5986V86.5072C102.93 87.3149 102.291 88.1058 101.113 88.1058ZM105.735 88.8462H106.728V86.4273L107.422 85.7837L109.841 88.8462H111.103L108.171 85.1443L110.901 82.3847H109.673L106.846 85.2621H106.728V80.2308H105.735V88.8462ZM112.179 88.8462H113.172V82.3847H112.179V88.8462ZM112.684 81.3077C113.071 81.3077 113.39 81.0048 113.39 80.6347C113.39 80.2645 113.071 79.9616 112.684 79.9616C112.297 79.9616 111.977 80.2645 111.977 80.6347C111.977 81.0048 112.297 81.3077 112.684 81.3077ZM118.322 88.8462H119.315V82.3847H118.322V88.8462ZM118.827 81.3077C119.214 81.3077 119.533 81.0048 119.533 80.6347C119.533 80.2645 119.214 79.9616 118.827 79.9616C118.44 79.9616 118.12 80.2645 118.12 80.6347C118.12 81.0048 118.44 81.3077 118.827 81.3077ZM124.465 88.8462H125.457V84.8077C125.457 83.8612 126.147 83.1923 126.921 83.1923C127.674 83.1923 128.2 83.6845 128.2 84.4207V88.8462H129.21V84.6395C129.21 83.8065 129.732 83.1923 130.64 83.1923C131.347 83.1923 131.953 83.5667 131.953 84.5217V88.8462H132.945V84.5217C132.945 83.003 132.129 82.3005 130.977 82.3005C130.051 82.3005 129.374 82.7254 129.042 83.3943H128.974C128.655 82.7044 128.091 82.3005 127.241 82.3005C126.4 82.3005 125.777 82.7044 125.508 83.3943H125.424V82.3847H124.465V88.8462ZM134.761 88.8462H135.753V82.3847H134.761V88.8462ZM135.265 81.3077C135.652 81.3077 135.972 81.0048 135.972 80.6347C135.972 80.2645 135.652 79.9616 135.265 79.9616C134.878 79.9616 134.559 80.2645 134.559 80.6347C134.559 81.0048 134.878 81.3077 135.265 81.3077ZM137.387 88.8462H142.452V87.9207H138.767V87.8534L142.334 83.1755V82.3847H137.505V83.3101H141.055V83.3774L137.387 88.089V88.8462ZM146.505 88.9808C147.817 88.9808 148.776 88.3246 149.079 87.3486L148.12 87.0794C147.868 87.7524 147.283 88.089 146.505 88.089C145.34 88.089 144.536 87.336 144.49 85.952H149.18V85.5313C149.18 83.125 147.75 82.3005 146.404 82.3005C144.654 82.3005 143.493 83.6803 143.493 85.6659C143.493 87.6515 144.637 88.9808 146.505 88.9808ZM144.49 85.0938C144.557 84.0884 145.268 83.1923 146.404 83.1923C147.481 83.1923 148.171 84 148.171 85.0938H144.49ZM150.691 88.8462H151.683V84.7572C151.683 83.8822 152.373 83.2428 153.316 83.2428C153.581 83.2428 153.854 83.2933 153.921 83.3101V82.3005C153.808 82.2921 153.547 82.2837 153.4 82.2837C152.626 82.2837 151.953 82.7212 151.717 83.3606H151.65V82.3847H150.691V88.8462ZM155.098 88.8462H156.091V82.3847H155.098V88.8462ZM155.603 81.3077C155.99 81.3077 156.31 81.0048 156.31 80.6347C156.31 80.2645 155.99 79.9616 155.603 79.9616C155.216 79.9616 154.896 80.2645 154.896 80.6347C154.896 81.0048 155.216 81.3077 155.603 81.3077ZM159.811 88.9976C160.938 88.9976 161.527 88.3919 161.729 87.9712H161.779V88.8462H162.772V84.589C162.772 82.5361 161.207 82.3005 160.383 82.3005C159.407 82.3005 158.296 82.6371 157.791 83.8149L158.734 84.1515C158.953 83.6803 159.47 83.1755 160.416 83.1755C161.329 83.1755 161.779 83.6593 161.779 84.488V84.5217C161.779 85.0012 161.291 84.9592 160.114 85.1106C158.915 85.2663 157.606 85.5313 157.606 87.0121C157.606 88.2741 158.582 88.9976 159.811 88.9976ZM159.962 88.1058C159.171 88.1058 158.599 87.7524 158.599 87.0625C158.599 86.3053 159.289 86.0697 160.063 85.9688C160.484 85.9183 161.611 85.8005 161.779 85.5986V86.5072C161.779 87.3149 161.14 88.1058 159.962 88.1058Z" fill="#333333" fill-opacity="0.88"/>
<rect x="117.846" y="106.231" width="20.3077" height="20.3077" rx="3.38462" fill="#F5F5F5"/>
<path d="M128 111.731C129.636 111.731 130.962 113.057 130.962 114.692C130.962 115.49 130.605 116.104 130.19 116.704C130.143 116.773 130.093 116.843 130.043 116.915C129.884 117.14 129.719 117.375 129.59 117.601C129.481 117.79 129.384 117.996 129.325 118.218H126.674C126.616 117.996 126.519 117.79 126.41 117.601C126.281 117.375 126.116 117.14 125.957 116.915C125.907 116.843 125.857 116.773 125.81 116.704C125.395 116.104 125.038 115.49 125.038 114.692C125.038 113.057 126.364 111.731 128 111.731Z" stroke="#A0A0A0" stroke-width="0.846154" stroke-linecap="round" stroke-linejoin="round"/>
<path d="M128 120.615C127.632 120.615 127.318 120.38 127.202 120.051H128.798C128.682 120.38 128.368 120.615 128 120.615Z" stroke="#A0A0A0" stroke-width="1.12821"/>
<path fill-rule="evenodd" clip-rule="evenodd" d="M126.872 114.396C126.872 114.273 127.001 114.193 127.111 114.248C127.671 114.528 128.329 114.528 128.888 114.248C128.999 114.193 129.128 114.273 129.128 114.396V115.139C129.128 115.211 129.087 115.277 129.023 115.309C128.379 115.631 127.621 115.631 126.977 115.309C126.912 115.277 126.872 115.211 126.872 115.139V114.396Z" fill="#A0A0A0"/>
<rect x="144.923" y="106.231" width="20.3077" height="20.3077" rx="3.38462" fill="#F5F5F5"/>
<path d="M155.641 115.821H157.897C158.209 115.821 158.461 116.073 158.461 116.385C158.461 116.696 158.209 116.949 157.897 116.949H155.641V119.205C155.641 119.517 155.388 119.769 155.077 119.769C154.765 119.769 154.513 119.517 154.513 119.205V116.949H152.256C151.945 116.949 151.692 116.696 151.692 116.385C151.692 116.073 151.945 115.821 152.256 115.821H154.513V113.564C154.513 113.253 154.765 113 155.077 113C155.388 113 155.641 113.253 155.641 113.564V115.821Z" fill="#A0A0A0"/>
<rect x="172" y="106.231" width="20.3077" height="20.3077" rx="3.38462" fill="#F5F5F5"/>
<path d="M182.718 115.821H184.974C185.286 115.821 185.539 116.073 185.539 116.385C185.539 116.696 185.286 116.949 184.974 116.949H182.718V119.205C182.718 119.517 182.465 119.769 182.154 119.769C181.842 119.769 181.59 119.517 181.59 119.205V116.949H179.333C179.022 116.949 178.769 116.696 178.769 116.385C178.769 116.073 179.022 115.821 179.333 115.821H181.59V113.564C181.59 113.253 181.842 113 182.154 113C182.465 113 182.718 113.253 182.718 113.564V115.821Z" fill="#A0A0A0"/>
</g>
<path fill-rule="evenodd" clip-rule="evenodd" d="M264.246 155.699C265.435 155.699 266.576 156.172 267.417 157.013C268.258 157.854 268.731 158.994 268.731 160.184V169.606C272.462 165.8 277.101 163.006 282.21 161.488C287.32 159.97 292.731 159.777 297.936 160.928C303.14 162.079 307.966 164.536 311.958 168.068C315.951 171.599 318.979 176.089 320.757 181.114C320.972 181.673 321.074 182.27 321.055 182.869C321.036 183.469 320.897 184.058 320.646 184.603C320.395 185.147 320.037 185.636 319.594 186.04C319.151 186.444 318.632 186.756 318.066 186.955C317.501 187.155 316.901 187.239 316.303 187.203C315.704 187.167 315.119 187.012 314.582 186.745C314.044 186.479 313.566 186.108 313.174 185.654C312.783 185.199 312.487 184.671 312.303 184.1C310.949 180.274 308.583 176.887 305.456 174.3C302.329 171.712 298.559 170.022 294.547 169.408C290.535 168.795 286.431 169.281 282.674 170.816C278.917 172.35 275.646 174.876 273.211 178.122H286.669C287.859 178.122 288.999 178.595 289.84 179.436C290.681 180.277 291.154 181.418 291.154 182.607C291.154 183.796 290.681 184.937 289.84 185.778C288.999 186.619 287.859 187.092 286.669 187.092H264.246C263.057 187.092 261.916 186.619 261.075 185.778C260.234 184.937 259.761 183.796 259.761 182.607V160.184C259.761 158.994 260.234 157.854 261.075 157.013C261.916 156.172 263.057 155.699 264.246 155.699ZM264.282 196.316C264.837 196.12 265.426 196.035 266.014 196.067C266.602 196.098 267.178 196.245 267.71 196.499C268.241 196.753 268.717 197.109 269.111 197.547C269.505 197.985 269.808 198.497 270.004 199.052C271.358 202.878 273.725 206.265 276.852 208.853C279.979 211.44 283.749 213.131 287.761 213.744C291.773 214.358 295.876 213.871 299.633 212.337C303.391 210.802 306.661 208.277 309.097 205.03H295.638C294.449 205.03 293.308 204.558 292.467 203.716C291.626 202.875 291.154 201.735 291.154 200.545C291.154 199.356 291.626 198.215 292.467 197.374C293.308 196.533 294.449 196.061 295.638 196.061H318.061C319.251 196.061 320.392 196.533 321.233 197.374C322.074 198.215 322.546 199.356 322.546 200.545V222.968C322.546 224.158 322.074 225.299 321.233 226.14C320.392 226.981 319.251 227.453 318.061 227.453C316.872 227.453 315.731 226.981 314.89 226.14C314.049 225.299 313.577 224.158 313.577 222.968V213.546C309.845 217.352 305.207 220.146 300.097 221.664C294.988 223.183 289.576 223.375 284.372 222.224C279.167 221.073 274.342 218.616 270.349 215.085C266.357 211.553 263.329 207.064 261.551 202.039C261.355 201.483 261.27 200.895 261.301 200.307C261.332 199.719 261.479 199.142 261.733 198.611C261.987 198.08 262.344 197.603 262.782 197.21C263.22 196.816 263.731 196.512 264.286 196.316H264.282Z" fill="#FF6984"/>
<rect x="56.7693" y="173.923" width="74.4615" height="27.0769" rx="13.5385" fill="#FDECEF"/>
<path d="M67.7997 184.057C67.6794 183.945 67.5203 183.884 67.3559 183.886C67.1915 183.889 67.0346 183.956 66.9183 184.072C66.8021 184.189 66.7355 184.345 66.7326 184.51C66.7297 184.674 66.7907 184.833 66.9028 184.954L69.4099 187.462L66.9028 189.969C66.8404 190.027 66.7904 190.097 66.7557 190.175C66.7211 190.253 66.7024 190.337 66.7009 190.422C66.6994 190.507 66.7151 190.592 66.747 190.671C66.7789 190.75 66.8264 190.822 66.8867 190.882C66.9469 190.942 67.0187 190.99 67.0977 191.022C67.1768 191.053 67.2614 191.069 67.3466 191.068C67.4318 191.066 67.5159 191.047 67.5937 191.013C67.6716 190.978 67.7416 190.928 67.7997 190.866L70.3077 188.359L72.8149 190.867C72.9345 190.982 73.0948 191.046 73.2612 191.045C73.4276 191.044 73.5868 190.977 73.7045 190.859C73.8222 190.742 73.889 190.583 73.8905 190.416C73.8921 190.25 73.8282 190.089 73.7126 189.97L71.2055 187.462L73.7126 184.954C73.775 184.896 73.825 184.825 73.8597 184.748C73.8944 184.67 73.913 184.586 73.9145 184.501C73.916 184.415 73.9003 184.331 73.8684 184.252C73.8365 184.173 73.789 184.101 73.7287 184.041C73.6685 183.98 73.5967 183.933 73.5177 183.901C73.4387 183.869 73.354 183.853 73.2688 183.855C73.1836 183.856 73.0996 183.875 73.0217 183.91C72.9439 183.944 72.8738 183.994 72.8157 184.057L70.3077 186.564L67.7997 184.057Z" fill="#E21B1B"/>
<path d="M87.3798 191.442C88.8101 191.442 89.7524 190.567 89.9207 189.423H88.9279C88.7428 190.13 88.1539 190.551 87.3798 190.551C86.202 190.551 85.4447 189.575 85.4447 188.077C85.4447 186.613 86.2188 185.654 87.3798 185.654C88.2548 185.654 88.7765 186.192 88.9279 186.781H89.9207C89.7524 185.57 88.726 184.762 87.363 184.762C85.613 184.762 84.452 186.142 84.452 188.111C84.452 190.046 85.5625 191.442 87.3798 191.442ZM91.372 191.308H92.3648V184.846H91.372V191.308ZM91.8768 183.769C92.2639 183.769 92.5836 183.467 92.5836 183.096C92.5836 182.726 92.2639 182.423 91.8768 182.423C91.4898 182.423 91.1701 182.726 91.1701 183.096C91.1701 183.467 91.4898 183.769 91.8768 183.769ZM96.0846 191.459C97.212 191.459 97.801 190.854 98.0029 190.433H98.0534V191.308H99.0462V187.051C99.0462 184.998 97.4813 184.762 96.6567 184.762C95.6808 184.762 94.5702 185.099 94.0654 186.277L95.0077 186.613C95.2264 186.142 95.7439 185.637 96.6904 185.637C97.6033 185.637 98.0534 186.121 98.0534 186.95V186.983C98.0534 187.463 97.5654 187.421 96.3875 187.572C95.1886 187.728 93.8803 187.993 93.8803 189.474C93.8803 190.736 94.8563 191.459 96.0846 191.459ZM96.2361 190.567C95.4452 190.567 94.8731 190.214 94.8731 189.524C94.8731 188.767 95.563 188.531 96.337 188.43C96.7577 188.38 97.8851 188.262 98.0534 188.06V188.969C98.0534 189.777 97.414 190.567 96.2361 190.567ZM105.435 186.293C105.124 185.376 104.426 184.762 103.147 184.762C101.784 184.762 100.774 185.536 100.774 186.63C100.774 187.522 101.304 188.119 102.49 188.397L103.567 188.649C104.219 188.801 104.526 189.112 104.526 189.558C104.526 190.113 103.938 190.567 103.012 190.567C102.2 190.567 101.691 190.218 101.514 189.524L100.572 189.76C100.804 190.858 101.708 191.442 103.029 191.442C104.531 191.442 105.553 190.622 105.553 189.507C105.553 188.607 104.989 188.039 103.837 187.757L102.877 187.522C102.112 187.333 101.767 187.076 101.767 186.579C101.767 186.024 102.356 185.62 103.147 185.62C104.013 185.62 104.371 186.1 104.543 186.546L105.435 186.293ZM109.857 184.846H108.478V183.298H107.485V184.846H106.509V185.688H107.485V189.726C107.485 190.854 108.394 191.392 109.235 191.392C109.605 191.392 109.841 191.325 109.975 191.274L109.773 190.382C109.689 190.399 109.555 190.433 109.336 190.433C108.898 190.433 108.478 190.298 108.478 189.457V185.688H109.857V184.846ZM113.252 191.459C114.38 191.459 114.969 190.854 115.171 190.433H115.221V191.308H116.214V187.051C116.214 184.998 114.649 184.762 113.824 184.762C112.848 184.762 111.738 185.099 111.233 186.277L112.175 186.613C112.394 186.142 112.912 185.637 113.858 185.637C114.771 185.637 115.221 186.121 115.221 186.95V186.983C115.221 187.463 114.733 187.421 113.555 187.572C112.356 187.728 111.048 187.993 111.048 189.474C111.048 190.736 112.024 191.459 113.252 191.459ZM113.404 190.567C112.613 190.567 112.041 190.214 112.041 189.524C112.041 188.767 112.731 188.531 113.505 188.43C113.925 188.38 115.053 188.262 115.221 188.06V188.969C115.221 189.777 114.582 190.567 113.404 190.567Z" fill="#E21B1B"/>
<rect x="57.1924" y="174.346" width="73.6154" height="26.2308" rx="13.1154" stroke="#E60A0A" stroke-opacity="0.32" stroke-width="0.846154"/>
<g filter="url(#filter4_d_1923_10250)">
<rect x="376.615" y="14" width="137.077" height="64.3077" rx="3.38462" fill="#FFE9E2"/>
<path d="M390.317 27.8462H391.394C391.075 26.1803 389.678 25.0361 387.861 25.0361C385.652 25.0361 384.091 26.7356 384.091 29.4616C384.091 32.1876 385.639 33.8871 387.928 33.8871C389.981 33.8871 391.445 32.5199 391.445 30.3871V29.4616H388.163V30.3871H390.435C390.406 31.9352 389.388 32.9111 387.928 32.9111C386.329 32.9111 385.101 31.6996 385.101 29.4616C385.101 27.2236 386.329 26.0121 387.861 26.0121C389.106 26.0121 389.951 26.7146 390.317 27.8462ZM397.169 31.1275C397.169 32.339 396.244 32.8943 395.503 32.8943C394.679 32.8943 394.09 32.2885 394.09 31.3462V27.3077H393.097V31.4135C393.097 33.0626 393.972 33.8534 395.183 33.8534C396.159 33.8534 396.799 33.3318 397.102 32.6755H397.169V33.7693H398.162V27.3077H397.169V31.1275ZM400.973 25.1539H399.98V33.7693H400.973V25.1539ZM404.693 33.9207C405.82 33.9207 406.409 33.315 406.611 32.8943H406.662V33.7693H407.654V29.5121C407.654 27.4592 406.089 27.2236 405.265 27.2236C404.289 27.2236 403.178 27.5602 402.674 28.738L403.616 29.0746C403.835 28.6034 404.352 28.0986 405.299 28.0986C406.211 28.0986 406.662 28.5824 406.662 29.4111V29.4448C406.662 29.9243 406.174 29.8823 404.996 30.0337C403.797 30.1894 402.488 30.4544 402.488 31.9352C402.488 33.1972 403.464 33.9207 404.693 33.9207ZM404.844 33.0289C404.053 33.0289 403.481 32.6755 403.481 31.9856C403.481 31.2284 404.171 30.9928 404.945 30.8919C405.366 30.8414 406.493 30.7236 406.662 30.5217V31.4303C406.662 32.238 406.022 33.0289 404.844 33.0289ZM414.043 28.7549C413.732 27.8378 413.034 27.2236 411.755 27.2236C410.392 27.2236 409.382 27.9977 409.382 29.0914C409.382 29.9832 409.912 30.5806 411.099 30.8582L412.176 31.1106C412.828 31.2621 413.135 31.5734 413.135 32.0193C413.135 32.5746 412.546 33.0289 411.62 33.0289C410.808 33.0289 410.299 32.6797 410.123 31.9856L409.18 32.2212C409.412 33.3192 410.316 33.9039 411.637 33.9039C413.139 33.9039 414.161 33.0836 414.161 31.9688C414.161 31.0686 413.597 30.5007 412.445 30.2188L411.486 29.9832C410.72 29.7939 410.375 29.5373 410.375 29.0409C410.375 28.4856 410.964 28.0818 411.755 28.0818C412.621 28.0818 412.979 28.5614 413.151 29.0073L414.043 28.7549ZM415.47 33.7693H420.535V32.8438H416.85V32.7765L420.418 28.0986V27.3077H415.588V28.2332H419.139V28.3005L415.47 33.0121V33.7693ZM425.211 33.7693H430.276V32.8438H426.591V32.7765L430.158 28.0986V27.3077H425.329V28.2332H428.879V28.3005L425.211 33.0121V33.7693ZM435.137 33.7693H436.13V27.3077H435.137V33.7693ZM435.642 26.2308C436.029 26.2308 436.348 25.9279 436.348 25.5577C436.348 25.1876 436.029 24.8847 435.642 24.8847C435.255 24.8847 434.935 25.1876 434.935 25.5577C434.935 25.9279 435.255 26.2308 435.642 26.2308ZM438.941 29.8823C438.941 28.7549 439.639 28.1154 440.59 28.1154C441.511 28.1154 442.071 28.717 442.071 29.7308V33.7693H443.063V29.6635C443.063 28.0145 442.184 27.2236 440.876 27.2236C439.9 27.2236 439.294 27.6611 438.991 28.3174H438.907V27.3077H437.948V33.7693H438.941V29.8823ZM447.317 33.9039C448.563 33.9039 448.983 33.1299 449.202 32.7765H449.32V33.7693H450.279V25.1539H449.286V28.3342H449.202C448.983 27.9977 448.596 27.2236 447.334 27.2236C445.702 27.2236 444.575 28.5193 444.575 30.5553C444.575 32.6082 445.702 33.9039 447.317 33.9039ZM447.452 33.0121C446.207 33.0121 445.567 31.9183 445.567 30.5385C445.567 29.1755 446.19 28.1154 447.452 28.1154C448.664 28.1154 449.303 29.0914 449.303 30.5385C449.303 32.0025 448.647 33.0121 447.452 33.0121ZM452.875 36.1924C453.771 36.1924 454.402 35.717 454.776 34.7116L457.527 27.3246L456.442 27.3077L454.658 32.4568H454.591L452.807 27.3077H451.73L454.12 33.8029L453.935 34.3077C453.573 35.2921 453.127 35.3847 452.403 35.1996L452.151 36.0746C452.252 36.1251 452.538 36.1924 452.875 36.1924ZM458.841 33.7693H459.834V31.3504L460.528 30.7068L462.947 33.7693H464.209L461.276 30.0674L464.007 27.3077H462.778L459.951 30.1852H459.834V25.1539H458.841V33.7693ZM467.186 33.9207C468.313 33.9207 468.902 33.315 469.104 32.8943H469.155V33.7693H470.147V29.5121C470.147 27.4592 468.583 27.2236 467.758 27.2236C466.782 27.2236 465.671 27.5602 465.167 28.738L466.109 29.0746C466.328 28.6034 466.845 28.0986 467.792 28.0986C468.705 28.0986 469.155 28.5824 469.155 29.4111V29.4448C469.155 29.9243 468.667 29.8823 467.489 30.0337C466.29 30.1894 464.982 30.4544 464.982 31.9352C464.982 33.1972 465.958 33.9207 467.186 33.9207ZM467.337 33.0289C466.546 33.0289 465.974 32.6755 465.974 31.9856C465.974 31.2284 466.664 30.9928 467.438 30.8919C467.859 30.8414 468.986 30.7236 469.155 30.5217V31.4303C469.155 32.238 468.515 33.0289 467.337 33.0289ZM475.106 33.7693H480.171V32.8438H476.486V32.7765L480.053 28.0986V27.3077H475.224V28.2332H478.774V28.3005L475.106 33.0121V33.7693ZM385.757 50.7693H386.733L388.147 45.8053H388.248L389.661 50.7693H390.637L392.606 44.3077H391.563L390.166 49.238H390.099L388.736 44.3077H387.676L386.296 49.2549H386.228L384.832 44.3077H383.788L385.757 50.7693ZM395.82 50.9207C396.947 50.9207 397.536 50.315 397.738 49.8943H397.788V50.7693H398.781V46.5121C398.781 44.4592 397.216 44.2236 396.392 44.2236C395.416 44.2236 394.305 44.5602 393.801 45.738L394.743 46.0746C394.962 45.6034 395.479 45.0986 396.426 45.0986C397.338 45.0986 397.788 45.5824 397.788 46.4111V46.4448C397.788 46.9243 397.301 46.8823 396.123 47.0337C394.924 47.1894 393.615 47.4544 393.615 48.9352C393.615 50.1972 394.591 50.9207 395.82 50.9207ZM395.971 50.0289C395.18 50.0289 394.608 49.6755 394.608 48.9856C394.608 48.2284 395.298 47.9928 396.072 47.8919C396.493 47.8414 397.62 47.7236 397.788 47.5217V48.4303C397.788 49.238 397.149 50.0289 395.971 50.0289ZM400.593 50.7693H401.586V46.6803C401.586 45.8053 402.276 45.1659 403.218 45.1659C403.483 45.1659 403.757 45.2164 403.824 45.2332V44.2236C403.711 44.2152 403.45 44.2068 403.302 44.2068C402.528 44.2068 401.855 44.6443 401.62 45.2837H401.552V44.3077H400.593V50.7693ZM404.816 50.7693H409.881V49.8438H406.196V49.7765L409.763 45.0986V44.3077H404.934V45.2332H408.484V45.3005L404.816 50.0121V50.7693ZM412.049 53.1924C412.945 53.1924 413.576 52.717 413.951 51.7116L416.702 44.3246L415.617 44.3077L413.833 49.4568H413.766L411.982 44.3077H410.905L413.294 50.8029L413.109 51.3077C412.748 52.2921 412.302 52.3847 411.578 52.1996L411.326 53.0746C411.427 53.1251 411.713 53.1924 412.049 53.1924ZM419.479 50.7693H420.455L421.869 45.8053H421.97L423.383 50.7693H424.359L426.328 44.3077H425.285L423.888 49.238H423.821L422.458 44.3077H421.398L420.018 49.2549H419.951L418.554 44.3077H417.511L419.479 50.7693ZM429.542 50.9207C430.669 50.9207 431.258 50.315 431.46 49.8943H431.511V50.7693H432.503V46.5121C432.503 44.4592 430.939 44.2236 430.114 44.2236C429.138 44.2236 428.028 44.5602 427.523 45.738L428.465 46.0746C428.684 45.6034 429.201 45.0986 430.148 45.0986C431.061 45.0986 431.511 45.5824 431.511 46.4111V46.4448C431.511 46.9243 431.023 46.8823 429.845 47.0337C428.646 47.1894 427.338 47.4544 427.338 48.9352C427.338 50.1972 428.314 50.9207 429.542 50.9207ZM429.693 50.0289C428.903 50.0289 428.33 49.6755 428.33 48.9856C428.33 48.2284 429.02 47.9928 429.794 47.8919C430.215 47.8414 431.342 47.7236 431.511 47.5217V48.4303C431.511 49.238 430.871 50.0289 429.693 50.0289ZM434.316 50.7693H435.308V46.7308C435.308 45.7843 435.998 45.1154 436.772 45.1154C437.525 45.1154 438.051 45.6076 438.051 46.3438V50.7693H439.061V46.5626C439.061 45.7296 439.582 45.1154 440.491 45.1154C441.198 45.1154 441.804 45.4898 441.804 46.4448V50.7693H442.796V46.4448C442.796 44.9261 441.98 44.2236 440.828 44.2236C439.902 44.2236 439.225 44.6485 438.892 45.3174H438.825C438.505 44.6275 437.942 44.2236 437.092 44.2236C436.251 44.2236 435.628 44.6275 435.359 45.3174H435.275V44.3077H434.316V50.7693ZM444.612 50.7693H445.604V44.3077H444.612V50.7693ZM445.116 43.2308C445.503 43.2308 445.823 42.9279 445.823 42.5577C445.823 42.1876 445.503 41.8847 445.116 41.8847C444.729 41.8847 444.41 42.1876 444.41 42.5577C444.41 42.9279 444.729 43.2308 445.116 43.2308ZM450.754 50.7693H451.747V44.3077H450.754V50.7693ZM451.259 43.2308C451.646 43.2308 451.966 42.9279 451.966 42.5577C451.966 42.1876 451.646 41.8847 451.259 41.8847C450.872 41.8847 450.552 42.1876 450.552 42.5577C450.552 42.9279 450.872 43.2308 451.259 43.2308ZM456.897 50.7693H457.89V48.3504L458.584 47.7068L461.003 50.7693H462.265L459.333 47.0674L462.063 44.3077H460.835L458.008 47.1852H457.89V42.1539H456.897V50.7693ZM465.242 50.9207C466.37 50.9207 466.959 50.315 467.161 49.8943H467.211V50.7693H468.204V46.5121C468.204 44.4592 466.639 44.2236 465.814 44.2236C464.839 44.2236 463.728 44.5602 463.223 45.738L464.165 46.0746C464.384 45.6034 464.902 45.0986 465.848 45.0986C466.761 45.0986 467.211 45.5824 467.211 46.4111V46.4448C467.211 46.9243 466.723 46.8823 465.545 47.0337C464.346 47.1894 463.038 47.4544 463.038 48.9352C463.038 50.1972 464.014 50.9207 465.242 50.9207ZM465.394 50.0289C464.603 50.0289 464.031 49.6755 464.031 48.9856C464.031 48.2284 464.721 47.9928 465.495 47.8919C465.915 47.8414 467.043 47.7236 467.211 47.5217V48.4303C467.211 49.238 466.572 50.0289 465.394 50.0289ZM474.593 45.7549C474.282 44.8378 473.583 44.2236 472.304 44.2236C470.941 44.2236 469.932 44.9977 469.932 46.0914C469.932 46.9832 470.462 47.5806 471.648 47.8582L472.725 48.1106C473.377 48.2621 473.684 48.5734 473.684 49.0193C473.684 49.5746 473.095 50.0289 472.17 50.0289C471.358 50.0289 470.849 49.6797 470.672 48.9856L469.73 49.2212C469.961 50.3192 470.866 50.9039 472.187 50.9039C473.688 50.9039 474.711 50.0836 474.711 48.9688C474.711 48.0686 474.147 47.5007 472.994 47.2188L472.035 46.9832C471.27 46.7939 470.925 46.5373 470.925 46.0409C470.925 45.4856 471.514 45.0818 472.304 45.0818C473.171 45.0818 473.529 45.5614 473.701 46.0073L474.593 45.7549ZM476.02 50.7693H481.085V49.8438H477.4V49.7765L480.967 45.0986V44.3077H476.138V45.2332H479.688V45.3005L476.02 50.0121V50.7693ZM484.516 50.9207C485.643 50.9207 486.232 50.315 486.434 49.8943H486.484V50.7693H487.477V46.5121C487.477 44.4592 485.912 44.2236 485.088 44.2236C484.112 44.2236 483.001 44.5602 482.496 45.738L483.439 46.0746C483.657 45.6034 484.175 45.0986 485.121 45.0986C486.034 45.0986 486.484 45.5824 486.484 46.4111V46.4448C486.484 46.9243 485.996 46.8823 484.818 47.0337C483.619 47.1894 482.311 47.4544 482.311 48.9352C482.311 50.1972 483.287 50.9207 484.516 50.9207ZM484.667 50.0289C483.876 50.0289 483.304 49.6755 483.304 48.9856C483.304 48.2284 483.994 47.9928 484.768 47.8919C485.189 47.8414 486.316 47.7236 486.484 47.5217V48.4303C486.484 49.238 485.845 50.0289 484.667 50.0289ZM384.293 61.3077V68.2404C384.293 68.8967 384.024 69.2669 383.418 69.2669H383.233V70.1924H383.435C384.68 70.1924 385.286 69.4352 385.286 68.2404V61.3077H384.293ZM384.781 60.2308C385.168 60.2308 385.488 59.9279 385.488 59.5577C385.488 59.1876 385.168 58.8847 384.781 58.8847C384.394 58.8847 384.075 59.1876 384.075 59.5577C384.075 59.9279 384.394 60.2308 384.781 60.2308ZM389.006 67.9207C390.133 67.9207 390.722 67.315 390.924 66.8943H390.975V67.7693H391.967V63.5121C391.967 61.4592 390.403 61.2236 389.578 61.2236C388.602 61.2236 387.491 61.5602 386.987 62.738L387.929 63.0746C388.148 62.6034 388.665 62.0986 389.612 62.0986C390.525 62.0986 390.975 62.5824 390.975 63.4111V63.4448C390.975 63.9243 390.487 63.8823 389.309 64.0337C388.11 64.1894 386.802 64.4544 386.802 65.9352C386.802 67.1972 387.778 67.9207 389.006 67.9207ZM389.157 67.0289C388.366 67.0289 387.794 66.6755 387.794 65.9856C387.794 65.2284 388.484 64.9928 389.258 64.8919C389.679 64.8414 390.806 64.7236 390.975 64.5217V65.4303C390.975 66.238 390.335 67.0289 389.157 67.0289ZM396.388 70.327C397.936 70.327 399.181 69.6202 399.181 67.9544V61.3077H398.222V62.3342H398.121C397.902 61.9977 397.498 61.2236 396.236 61.2236C394.604 61.2236 393.477 62.5193 393.477 64.5049C393.477 66.5241 394.654 67.6683 396.219 67.6683C397.481 67.6683 397.885 66.9279 398.104 66.5746H398.188V67.8871C398.188 68.964 397.431 69.452 396.388 69.452C395.214 69.452 394.802 68.8336 394.537 68.476L393.746 69.0313C394.15 69.7086 394.945 70.327 396.388 70.327ZM396.354 66.7765C395.109 66.7765 394.469 65.8342 394.469 64.488C394.469 63.1755 395.092 62.1154 396.354 62.1154C397.566 62.1154 398.205 63.0914 398.205 64.488C398.205 65.9183 397.549 66.7765 396.354 66.7765ZM401.991 59.1539H400.998V67.7693H401.991V59.1539ZM405.711 67.9207C406.838 67.9207 407.427 67.315 407.629 66.8943H407.68V67.7693H408.672V63.5121C408.672 61.4592 407.107 61.2236 406.283 61.2236C405.307 61.2236 404.196 61.5602 403.692 62.738L404.634 63.0746C404.853 62.6034 405.37 62.0986 406.317 62.0986C407.229 62.0986 407.68 62.5824 407.68 63.4111V63.4448C407.68 63.9243 407.192 63.8823 406.014 64.0337C404.815 64.1894 403.506 64.4544 403.506 65.9352C403.506 67.1972 404.482 67.9207 405.711 67.9207ZM405.862 67.0289C405.071 67.0289 404.499 66.6755 404.499 65.9856C404.499 65.2284 405.189 64.9928 405.963 64.8919C406.384 64.8414 407.511 64.7236 407.68 64.5217V65.4303C407.68 66.238 407.04 67.0289 405.862 67.0289ZM411.477 63.8823C411.477 62.7549 412.176 62.1154 413.126 62.1154C414.048 62.1154 414.607 62.717 414.607 63.7308V67.7693H415.6V63.6635C415.6 62.0145 414.721 61.2236 413.412 61.2236C412.436 61.2236 411.831 61.6611 411.528 62.3174H411.444V61.3077H410.484V67.7693H411.477V63.8823ZM419.315 67.9207C420.443 67.9207 421.032 67.315 421.234 66.8943H421.284V67.702C420.573 68.1521 420.291 68.6737 420.291 69.1827C420.291 69.9063 420.796 70.2933 421.486 70.2933C421.89 70.2933 422.193 70.1587 422.378 70.0409L422.311 69.3005C422.193 69.3678 421.991 69.452 421.738 69.452C421.402 69.452 421.301 69.3005 421.301 69.0481C421.301 68.5433 421.772 68.1395 422.277 67.7693V63.5121C422.277 61.4592 420.712 61.2236 419.887 61.2236C418.912 61.2236 417.801 61.5602 417.296 62.738L418.238 63.0746C418.457 62.6034 418.975 62.0986 419.921 62.0986C420.834 62.0986 421.284 62.5824 421.284 63.4111V63.4448C421.284 63.9243 420.796 63.8823 419.618 64.0337C418.419 64.1894 417.111 64.4544 417.111 65.9352C417.111 67.1972 418.087 67.9207 419.315 67.9207ZM419.467 67.0289C418.676 67.0289 418.104 66.6755 418.104 65.9856C418.104 65.2284 418.794 64.9928 419.568 64.8919C419.988 64.8414 421.116 64.7236 421.284 64.5217V65.4303C421.284 66.238 420.645 67.0289 419.467 67.0289Z" fill="#333333" fill-opacity="0.88"/>
<rect x="439.231" y="85.0769" width="20.3077" height="20.3077" rx="3.38462" fill="#F5F5F5"/>
<path d="M449.385 90.5769C451.02 90.5769 452.346 91.9028 452.346 93.5384C452.346 94.3364 451.99 94.9501 451.575 95.5502C451.527 95.6191 451.478 95.6893 451.428 95.7605C451.269 95.986 451.104 96.2205 450.974 96.4468C450.866 96.6362 450.768 96.842 450.71 97.0641H448.059C448.001 96.842 447.903 96.6362 447.795 96.4468C447.665 96.2205 447.5 95.986 447.341 95.7605C447.291 95.6893 447.242 95.6191 447.194 95.5502C446.78 94.9501 446.423 94.3364 446.423 93.5384C446.423 91.9028 447.749 90.5769 449.385 90.5769Z" stroke="#A0A0A0" stroke-width="0.846154" stroke-linecap="round" stroke-linejoin="round"/>
<path d="M449.385 99.4615C449.016 99.4615 448.703 99.2261 448.587 98.8974H450.183C450.066 99.2261 449.753 99.4615 449.385 99.4615Z" stroke="#A0A0A0" stroke-width="1.12821"/>
<path fill-rule="evenodd" clip-rule="evenodd" d="M448.256 93.2423C448.256 93.1192 448.386 93.0391 448.496 93.0942C449.055 93.3739 449.714 93.3739 450.273 93.0942C450.383 93.0391 450.513 93.1192 450.513 93.2423V93.9848C450.513 94.057 450.472 94.123 450.407 94.1552C449.764 94.4772 449.006 94.4772 448.362 94.1552C448.297 94.123 448.256 94.057 448.256 93.9848V93.2423Z" fill="#A0A0A0"/>
<rect x="466.308" y="85.0769" width="20.3077" height="20.3077" rx="3.38462" fill="#F5F5F5"/>
<path d="M477.026 94.6667H479.282C479.594 94.6667 479.846 94.9193 479.846 95.2308C479.846 95.5424 479.594 95.7949 479.282 95.7949H477.026V98.0513C477.026 98.3629 476.773 98.6154 476.462 98.6154C476.15 98.6154 475.897 98.3629 475.897 98.0513V95.7949H473.641C473.329 95.7949 473.077 95.5424 473.077 95.2308C473.077 94.9193 473.329 94.6667 473.641 94.6667H475.897V92.4103C475.897 92.0987 476.15 91.8462 476.462 91.8462C476.773 91.8462 477.026 92.0987 477.026 92.4103V94.6667Z" fill="#A0A0A0"/>
<rect x="493.385" y="85.0769" width="20.3077" height="20.3077" rx="3.38462" fill="#F5F5F5"/>
<path d="M504.103 94.6667H506.359C506.671 94.6667 506.923 94.9193 506.923 95.2308C506.923 95.5424 506.671 95.7949 506.359 95.7949H504.103V98.0513C504.103 98.3629 503.85 98.6154 503.538 98.6154C503.227 98.6154 502.974 98.3629 502.974 98.0513V95.7949H500.718C500.406 95.7949 500.154 95.5424 500.154 95.2308C500.154 94.9193 500.406 94.6667 500.718 94.6667H502.974V92.4103C502.974 92.0987 503.227 91.8462 503.538 91.8462C503.85 91.8462 504.103 92.0987 504.103 92.4103V94.6667Z" fill="#A0A0A0"/>
</g>
<rect x="237" y="34.3079" width="88.8462" height="27.0769" rx="13.5385" fill="#FDECEF"/>
<path d="M248.03 44.4412C247.91 44.3291 247.751 44.2681 247.587 44.271C247.422 44.2739 247.265 44.3405 247.149 44.4568C247.033 44.5731 246.966 44.7299 246.963 44.8943C246.96 45.0587 247.021 45.2179 247.134 45.3382L249.641 47.8462L247.134 50.3533C247.071 50.4114 247.021 50.4815 246.986 50.5593C246.952 50.6372 246.933 50.7212 246.932 50.8064C246.93 50.8916 246.946 50.9763 246.978 51.0553C247.01 51.1343 247.057 51.2061 247.117 51.2664C247.178 51.3266 247.249 51.3741 247.328 51.406C247.407 51.438 247.492 51.4536 247.577 51.4521C247.663 51.4506 247.747 51.432 247.824 51.3973C247.902 51.3626 247.972 51.3126 248.03 51.2502L250.538 48.7431L253.046 51.2511C253.165 51.3667 253.325 51.4308 253.492 51.4294C253.658 51.4281 253.817 51.3614 253.935 51.2438C254.053 51.1262 254.12 50.967 254.121 50.8006C254.123 50.6342 254.059 50.4739 253.943 50.3542L251.436 47.8462L253.943 45.3382C254.006 45.2801 254.056 45.21 254.09 45.1322C254.125 45.0543 254.144 44.9703 254.145 44.8851C254.147 44.7999 254.131 44.7152 254.099 44.6362C254.067 44.5572 254.02 44.4854 253.959 44.4251C253.899 44.3649 253.827 44.3174 253.748 44.2854C253.669 44.2535 253.585 44.2379 253.5 44.2394C253.414 44.2409 253.33 44.2595 253.252 44.2942C253.175 44.3289 253.105 44.3789 253.046 44.4412L250.538 46.9484L248.03 44.4412Z" fill="#E21B1B"/>
<path d="M269.562 46.678C269.251 45.7609 268.553 45.1467 267.274 45.1467C265.911 45.1467 264.901 45.9207 264.901 47.0145C264.901 47.9063 265.431 48.5037 266.618 48.7813L267.695 49.0337C268.347 49.1852 268.654 49.4965 268.654 49.9424C268.654 50.4977 268.065 50.952 267.139 50.952C266.328 50.952 265.818 50.6028 265.642 49.9087L264.7 50.1443C264.931 51.2423 265.835 51.827 267.156 51.827C268.658 51.827 269.68 51.0067 269.68 49.8919C269.68 48.9917 269.117 48.4238 267.964 48.1419L267.005 47.9063C266.239 47.717 265.894 47.4604 265.894 46.964C265.894 46.4087 266.483 46.0049 267.274 46.0049C268.141 46.0049 268.498 46.4844 268.671 46.9304L269.562 46.678ZM273.884 51.827C275.196 51.827 276.155 51.1707 276.458 50.1948L275.499 49.9256C275.247 50.5986 274.662 50.9352 273.884 50.9352C272.719 50.9352 271.915 50.1822 271.869 48.7982H276.559V48.3775C276.559 45.9712 275.129 45.1467 273.783 45.1467C272.033 45.1467 270.872 46.5265 270.872 48.5121C270.872 50.4977 272.016 51.827 273.884 51.827ZM271.869 47.94C271.936 46.9346 272.647 46.0385 273.783 46.0385C274.86 46.0385 275.55 46.8462 275.55 47.94H271.869ZM278.07 51.6924H279.062V47.6034C279.062 46.7284 279.752 46.089 280.695 46.089C280.96 46.089 281.233 46.1395 281.3 46.1563V45.1467C281.187 45.1383 280.926 45.1299 280.779 45.1299C280.005 45.1299 279.332 45.5674 279.096 46.2068H279.029V45.2308H278.07V51.6924ZM285.624 51.6924H290.689V50.7669H287.004V50.6996L290.571 46.0217V45.2308H285.742V46.1563H289.292V46.2236L285.624 50.9352V51.6924ZM288.097 44.1539C288.484 44.1539 288.804 43.851 288.804 43.4808C288.804 43.1107 288.484 42.8078 288.097 42.8078C287.71 42.8078 287.391 43.1107 287.391 43.4808C287.391 43.851 287.71 44.1539 288.097 44.1539ZM294.658 51.827C296.408 51.827 297.586 50.4977 297.586 48.4953C297.586 46.476 296.408 45.1467 294.658 45.1467C292.908 45.1467 291.73 46.476 291.73 48.4953C291.73 50.4977 292.908 51.827 294.658 51.827ZM294.658 50.9352C293.328 50.9352 292.723 49.7909 292.723 48.4953C292.723 47.1996 293.328 46.0385 294.658 46.0385C295.987 46.0385 296.593 47.1996 296.593 48.4953C296.593 49.7909 295.987 50.9352 294.658 50.9352ZM294.203 44.3558H295.078L296.391 42.4039H295.23L294.203 44.3558ZM301.019 46.3078L300.094 46.6569V43.077H299.101V47.0355L298.176 47.3847V48.1251L299.101 47.7759V51.6924H300.094V47.3973L301.019 47.0482V46.3078ZM304.722 45.2308H303.343V43.6828H302.35V45.2308H301.374V46.0722H302.35V50.1107C302.35 51.2381 303.258 51.7765 304.1 51.7765C304.47 51.7765 304.706 51.7092 304.84 51.6587L304.638 50.7669C304.554 50.7837 304.419 50.8174 304.201 50.8174C303.763 50.8174 303.343 50.6828 303.343 49.8414V46.0722H304.722V45.2308ZM306.855 54.1155C307.751 54.1155 308.382 53.6401 308.757 52.6347L311.508 45.2477L310.422 45.2308L308.639 50.3799H308.571L306.788 45.2308H305.711L308.1 51.726L307.915 52.2308C307.553 53.2152 307.108 53.3078 306.384 53.1227L306.132 53.9977C306.233 54.0482 306.519 54.1155 306.855 54.1155Z" fill="#E21B1B"/>
<rect x="237.423" y="34.7309" width="88" height="26.2308" rx="13.1154" stroke="#E60A0A" stroke-opacity="0.32" stroke-width="0.846154"/>
<rect x="261.538" y="308.462" width="79.5385" height="27.0769" rx="13.5385" fill="#FDECEF"/>
<path d="M272.569 318.595C272.449 318.483 272.29 318.422 272.125 318.425C271.961 318.428 271.804 318.494 271.688 318.611C271.571 318.727 271.505 318.884 271.502 319.048C271.499 319.213 271.56 319.372 271.672 319.492L274.179 322L271.672 324.507C271.61 324.565 271.56 324.635 271.525 324.713C271.49 324.791 271.472 324.875 271.47 324.96C271.469 325.045 271.484 325.13 271.516 325.209C271.548 325.288 271.596 325.36 271.656 325.42C271.716 325.48 271.788 325.528 271.867 325.56C271.946 325.592 272.031 325.607 272.116 325.606C272.201 325.604 272.285 325.586 272.363 325.551C272.441 325.516 272.511 325.466 272.569 325.404L275.077 322.897L277.584 325.405C277.704 325.521 277.864 325.585 278.03 325.583C278.197 325.582 278.356 325.515 278.474 325.398C278.591 325.28 278.658 325.121 278.66 324.954C278.661 324.788 278.597 324.628 278.482 324.508L275.975 322L278.482 319.492C278.544 319.434 278.594 319.364 278.629 319.286C278.664 319.208 278.682 319.124 278.684 319.039C278.685 318.954 278.67 318.869 278.638 318.79C278.606 318.711 278.558 318.639 278.498 318.579C278.438 318.519 278.366 318.471 278.287 318.439C278.208 318.407 278.123 318.392 278.038 318.393C277.953 318.395 277.869 318.413 277.791 318.448C277.713 318.483 277.643 318.533 277.585 318.595L275.077 321.102L272.569 318.595Z" fill="#E21B1B"/>
<path d="M291.964 325.981C293.209 325.981 293.63 325.207 293.849 324.853H293.966V325.846H294.925V317.231H293.933V320.411H293.849C293.63 320.075 293.243 319.301 291.981 319.301C290.349 319.301 289.221 320.596 289.221 322.632C289.221 324.685 290.349 325.981 291.964 325.981ZM292.099 325.089C290.853 325.089 290.214 323.995 290.214 322.615C290.214 321.252 290.837 320.192 292.099 320.192C293.31 320.192 293.949 321.168 293.949 322.615C293.949 324.079 293.293 325.089 292.099 325.089ZM299.591 325.981C300.903 325.981 301.862 325.325 302.165 324.349L301.206 324.079C300.954 324.752 300.369 325.089 299.591 325.089C298.425 325.089 297.622 324.336 297.576 322.952H302.266V322.531C302.266 320.125 300.836 319.301 299.49 319.301C297.74 319.301 296.579 320.68 296.579 322.666C296.579 324.651 297.723 325.981 299.591 325.981ZM297.576 322.094C297.643 321.088 298.354 320.192 299.49 320.192C300.567 320.192 301.257 321 301.257 322.094H297.576ZM308.353 320.832C308.042 319.915 307.344 319.301 306.065 319.301C304.702 319.301 303.692 320.075 303.692 321.168C303.692 322.06 304.222 322.657 305.409 322.935L306.486 323.188C307.138 323.339 307.445 323.65 307.445 324.096C307.445 324.651 306.856 325.106 305.93 325.106C305.118 325.106 304.609 324.757 304.433 324.063L303.49 324.298C303.722 325.396 304.626 325.981 305.947 325.981C307.449 325.981 308.471 325.16 308.471 324.046C308.471 323.145 307.907 322.578 306.755 322.296L305.796 322.06C305.03 321.871 304.685 321.614 304.685 321.118C304.685 320.563 305.274 320.159 306.065 320.159C306.931 320.159 307.289 320.638 307.462 321.084L308.353 320.832ZM312.675 325.981C313.987 325.981 314.946 325.325 315.249 324.349L314.29 324.079C314.038 324.752 313.453 325.089 312.675 325.089C311.509 325.089 310.706 324.336 310.66 322.952H315.35V322.531C315.35 320.125 313.92 319.301 312.574 319.301C310.824 319.301 309.663 320.68 309.663 322.666C309.663 324.651 310.807 325.981 312.675 325.981ZM310.66 322.094C310.727 321.088 311.438 320.192 312.574 320.192C313.651 320.192 314.341 321 314.341 322.094H310.66ZM316.86 325.846H317.853V321.757C317.853 320.882 318.543 320.243 319.485 320.243C319.75 320.243 320.024 320.293 320.091 320.31V319.301C319.978 319.292 319.717 319.284 319.57 319.284C318.795 319.284 318.122 319.721 317.887 320.361H317.82V319.385H316.86V325.846ZM322.104 328.269C323 328.269 323.631 327.794 324.006 326.788L326.757 319.401L325.671 319.385L323.888 324.534H323.82L322.037 319.385H320.96L323.349 325.88L323.164 326.385C322.802 327.369 322.356 327.462 321.633 327.276L321.381 328.151C321.481 328.202 321.768 328.269 322.104 328.269Z" fill="#E21B1B"/>
<rect x="261.962" y="308.885" width="78.6923" height="26.2308" rx="13.1154" stroke="#E60A0A" stroke-opacity="0.32" stroke-width="0.846154"/>
<rect x="418.077" y="236.539" width="110.846" height="27.0769" rx="13.5385" fill="#FDECEF"/>
<path d="M429.107 246.672C428.987 246.56 428.828 246.499 428.664 246.502C428.499 246.505 428.342 246.571 428.226 246.688C428.11 246.804 428.043 246.961 428.04 247.125C428.037 247.29 428.098 247.449 428.21 247.569L430.718 250.077L428.21 252.584C428.148 252.642 428.098 252.712 428.063 252.79C428.029 252.868 428.01 252.952 428.009 253.037C428.007 253.123 428.023 253.207 428.055 253.286C428.087 253.365 428.134 253.437 428.194 253.497C428.255 253.558 428.326 253.605 428.405 253.637C428.484 253.669 428.569 253.685 428.654 253.683C428.74 253.682 428.824 253.663 428.901 253.628C428.979 253.594 429.049 253.544 429.107 253.481L431.615 250.974L434.123 253.482C434.242 253.598 434.402 253.662 434.569 253.66C434.735 253.659 434.894 253.592 435.012 253.475C435.13 253.357 435.197 253.198 435.198 253.032C435.2 252.865 435.136 252.705 435.02 252.585L432.513 250.077L435.02 247.569C435.083 247.511 435.133 247.441 435.167 247.363C435.202 247.285 435.221 247.201 435.222 247.116C435.224 247.031 435.208 246.946 435.176 246.867C435.144 246.788 435.097 246.716 435.036 246.656C434.976 246.596 434.904 246.548 434.825 246.516C434.746 246.484 434.662 246.469 434.576 246.47C434.491 246.472 434.407 246.49 434.329 246.525C434.252 246.56 434.181 246.61 434.123 246.672L431.615 249.179L429.107 246.672Z" fill="#E21B1B"/>
<path d="M447.526 253.923H448.502L449.916 248.959H450.017L451.43 253.923H452.406L454.375 247.462H453.332L451.935 252.392H451.868L450.505 247.462H449.445L448.065 252.409H447.998L446.601 247.462H445.558L447.526 253.923ZM455.688 253.923H456.68V247.462H455.688V253.923ZM456.192 246.385C456.579 246.385 456.899 246.082 456.899 245.712C456.899 245.341 456.579 245.038 456.192 245.038C455.805 245.038 455.486 245.341 455.486 245.712C455.486 246.082 455.805 246.385 456.192 246.385ZM461.208 254.058C462.52 254.058 463.479 253.401 463.782 252.425L462.823 252.156C462.571 252.829 461.986 253.166 461.208 253.166C460.043 253.166 459.239 252.413 459.193 251.029H463.883V250.608C463.883 248.202 462.453 247.377 461.107 247.377C459.357 247.377 458.196 248.757 458.196 250.743C458.196 252.728 459.34 254.058 461.208 254.058ZM459.193 250.171C459.26 249.165 459.971 248.269 461.107 248.269C462.184 248.269 462.874 249.077 462.874 250.171H459.193ZM465.394 256.346H466.386V252.93H466.47C466.689 253.284 467.11 254.058 468.355 254.058C469.97 254.058 471.098 252.762 471.098 250.709C471.098 248.673 469.97 247.377 468.338 247.377C467.076 247.377 466.689 248.151 466.47 248.488H466.353V247.462H465.394V256.346ZM466.369 250.692C466.369 249.245 467.009 248.269 468.22 248.269C469.482 248.269 470.105 249.329 470.105 250.692C470.105 252.072 469.466 253.166 468.22 253.166C467.026 253.166 466.369 252.156 466.369 250.692ZM472.612 253.923H473.605V249.834C473.605 248.959 474.295 248.32 475.237 248.32C475.502 248.32 475.776 248.37 475.843 248.387V247.377C475.729 247.369 475.469 247.361 475.321 247.361C474.547 247.361 473.874 247.798 473.639 248.438H473.571V247.462H472.612V253.923ZM476.835 253.923H481.9V252.998H478.215V252.93L481.782 248.252V247.462H476.953V248.387H480.503V248.454L476.835 253.166V253.923ZM485.869 254.058C487.619 254.058 488.797 252.728 488.797 250.726C488.797 248.707 487.619 247.377 485.869 247.377C484.119 247.377 482.941 248.707 482.941 250.726C482.941 252.728 484.119 254.058 485.869 254.058ZM485.869 253.166C484.539 253.166 483.934 252.022 483.934 250.726C483.934 249.43 484.539 248.269 485.869 248.269C487.198 248.269 487.804 249.43 487.804 250.726C487.804 252.022 487.198 253.166 485.869 253.166ZM491.556 253.923H492.532L493.946 248.959H494.047L495.46 253.923H496.436L498.405 247.462H497.362L495.965 252.392H495.898L494.535 247.462H493.474L492.095 252.409H492.027L490.631 247.462H489.587L491.556 253.923ZM499.717 253.923H500.71V247.462H499.717V253.923ZM500.222 246.385C500.609 246.385 500.929 246.082 500.929 245.712C500.929 245.341 500.609 245.038 500.222 245.038C499.835 245.038 499.515 245.341 499.515 245.712C499.515 246.082 499.835 246.385 500.222 246.385ZM503.521 250.036C503.521 248.909 504.22 248.269 505.17 248.269C506.092 248.269 506.651 248.871 506.651 249.885V253.923H507.644V249.817C507.644 248.168 506.765 247.377 505.456 247.377C504.48 247.377 503.875 247.815 503.572 248.471H503.488V247.462H502.528V253.923H503.521V250.036ZM511.359 254.075C512.487 254.075 513.076 253.469 513.278 253.048H513.328V253.923H514.321V249.666C514.321 247.613 512.756 247.377 511.932 247.377C510.956 247.377 509.845 247.714 509.34 248.892L510.282 249.228C510.501 248.757 511.019 248.252 511.965 248.252C512.878 248.252 513.328 248.736 513.328 249.565V249.599C513.328 250.078 512.84 250.036 511.662 250.188C510.463 250.343 509.155 250.608 509.155 252.089C509.155 253.351 510.131 254.075 511.359 254.075ZM511.511 253.183C510.72 253.183 510.148 252.829 510.148 252.139C510.148 251.382 510.838 251.147 511.612 251.046C512.032 250.995 513.16 250.877 513.328 250.675V251.584C513.328 252.392 512.689 253.183 511.511 253.183Z" fill="#E21B1B"/>
<rect x="418.5" y="236.962" width="110" height="26.2308" rx="13.1154" stroke="#E60A0A" stroke-opacity="0.32" stroke-width="0.846154"/>
<path d="M291.315 102.308C291.199 100.772 292.415 99.4617 293.955 99.4617C295.496 99.4617 296.711 100.772 296.596 102.308L294.569 129.336C294.545 129.657 294.277 129.906 293.955 129.906C293.633 129.906 293.366 129.657 293.342 129.336L291.315 102.308Z" fill="white" fill-opacity="0.32"/>
<path d="M292.791 280.231C292.906 281.767 291.69 283.077 290.15 283.077C288.609 283.077 287.394 281.767 287.509 280.231L289.536 253.202C289.56 252.881 289.828 252.633 290.15 252.633C290.472 252.633 290.739 252.881 290.763 253.202L292.791 280.231Z" fill="white" fill-opacity="0.32"/>
<path d="M244.753 115.839C243.811 114.472 244.235 112.592 245.673 111.762C247.111 110.931 248.951 111.504 249.664 113.004L261.346 137.578C261.495 137.892 261.378 138.268 261.077 138.442C260.776 138.616 260.391 138.529 260.194 138.243L244.753 115.839Z" fill="white" fill-opacity="0.32"/>
<path d="M338.4 266.7C339.342 268.067 338.918 269.947 337.48 270.777C336.043 271.607 334.202 271.035 333.49 269.535L321.807 244.961C321.658 244.647 321.775 244.271 322.076 244.097C322.378 243.923 322.762 244.009 322.96 244.296L338.4 266.7Z" fill="white" fill-opacity="0.32"/>
<path d="M213.311 149.355C211.812 148.642 211.239 146.802 212.069 145.364C212.9 143.926 214.78 143.502 216.147 144.444L238.551 159.885C238.837 160.082 238.924 160.467 238.75 160.768C238.576 161.07 238.2 161.187 237.885 161.037L213.311 149.355Z" fill="white" fill-opacity="0.32"/>
<path d="M369.842 233.182C371.342 233.895 371.914 235.735 371.084 237.173C370.254 238.611 368.374 239.035 367.007 238.093L344.603 222.652C344.316 222.455 344.23 222.07 344.404 221.769C344.578 221.468 344.954 221.35 345.268 221.5L369.842 233.182Z" fill="white" fill-opacity="0.32"/>
<path d="M202.84 194.104C201.185 194.237 199.769 192.93 199.769 191.269C199.769 189.609 201.185 188.302 202.84 188.434L229.963 190.604C230.31 190.632 230.577 190.921 230.577 191.269C230.577 191.617 230.31 191.907 229.963 191.935L202.84 194.104Z" fill="white" fill-opacity="0.32"/>
<path d="M380.314 188.434C381.969 188.302 383.385 189.609 383.385 191.269C383.385 192.929 381.969 194.237 380.314 194.104L353.191 191.935C352.844 191.907 352.577 191.617 352.577 191.269C352.577 190.921 352.844 190.632 353.191 190.604L380.314 188.434Z" fill="white" fill-opacity="0.32"/>
<path d="M216.146 238.093C214.779 239.035 212.899 238.611 212.069 237.173C211.239 235.735 211.811 233.895 213.311 233.182L237.885 221.5C238.199 221.351 238.575 221.468 238.749 221.769C238.923 222.07 238.837 222.455 238.55 222.652L216.146 238.093Z" fill="white" fill-opacity="0.32"/>
<path d="M367.007 144.446C368.374 143.504 370.254 143.928 371.084 145.366C371.914 146.803 371.341 148.644 369.842 149.356L345.268 161.039C344.954 161.188 344.577 161.071 344.404 160.77C344.23 160.468 344.316 160.084 344.603 159.886L367.007 144.446Z" fill="white" fill-opacity="0.32"/>
<path d="M249.664 269.535C248.951 271.034 247.111 271.607 245.673 270.777C244.235 269.947 243.811 268.067 244.753 266.7L260.194 244.296C260.391 244.009 260.776 243.923 261.077 244.097C261.378 244.271 261.496 244.647 261.346 244.961L249.664 269.535Z" fill="white" fill-opacity="0.32"/>
<path d="M333.49 113.003C334.203 111.504 336.043 110.931 337.481 111.761C338.919 112.591 339.343 114.471 338.401 115.838L322.96 138.243C322.763 138.529 322.378 138.616 322.077 138.442C321.776 138.268 321.659 137.892 321.808 137.577L333.49 113.003Z" fill="white" fill-opacity="0.32"/>
<defs>
<filter id="filter0_bd_1923_10250" x="-71.6932" y="-104.539" width="716.881" height="606.225" filterUnits="userSpaceOnUse" color-interpolation-filters="sRGB">
<feFlood flood-opacity="0" result="BackgroundImageFix"/>
<feGaussianBlur in="BackgroundImage" stdDeviation="69.3846"/>
<feComposite in2="SourceAlpha" operator="in" result="effect1_backgroundBlur_1923_10250"/>
<feColorMatrix in="SourceAlpha" type="matrix" values="0 0 0 0 0 0 0 0 0 0 0 0 0 0 0 0 0 0 127 0" result="hardAlpha"/>
<feOffset dy="32"/>
<feGaussianBlur stdDeviation="16"/>
<feComposite in2="hardAlpha" operator="out"/>
<feColorMatrix type="matrix" values="0 0 0 0 0 0 0 0 0 0 0 0 0 0 0 0 0 0 0.08 0"/>
<feBlend mode="normal" in2="effect1_backgroundBlur_1923_10250" result="effect2_dropShadow_1923_10250"/>
<feBlend mode="normal" in="SourceGraphic" in2="effect2_dropShadow_1923_10250" result="shape"/>
</filter>
<filter id="filter1_d_1923_10250" x="369.846" y="331.308" width="191.231" height="111.692" filterUnits="userSpaceOnUse" color-interpolation-filters="sRGB">
<feFlood flood-opacity="0" result="BackgroundImageFix"/>
<feColorMatrix in="SourceAlpha" type="matrix" values="0 0 0 0 0 0 0 0 0 0 0 0 0 0 0 0 0 0 127 0" result="hardAlpha"/>
<feOffset dy="13.5385"/>
<feGaussianBlur stdDeviation="13.5385"/>
<feColorMatrix type="matrix" values="0 0 0 0 0.2 0 0 0 0 0.2 0 0 0 0 0.2 0 0 0 0.08 0"/>
<feBlend mode="normal" in2="BackgroundImageFix" result="effect1_dropShadow_1923_10250"/>
<feBlend mode="normal" in="SourceGraphic" in2="effect1_dropShadow_1923_10250" result="shape"/>
</filter>
<filter id="filter2_d_1923_10250" x="0.923077" y="253.462" width="191.231" height="179.385" filterUnits="userSpaceOnUse" color-interpolation-filters="sRGB">
<feFlood flood-opacity="0" result="BackgroundImageFix"/>
<feColorMatrix in="SourceAlpha" type="matrix" values="0 0 0 0 0 0 0 0 0 0 0 0 0 0 0 0 0 0 127 0" result="hardAlpha"/>
<feOffset dy="13.5385"/>
<feGaussianBlur stdDeviation="13.5385"/>
<feColorMatrix type="matrix" values="0 0 0 0 0.2 0 0 0 0 0.2 0 0 0 0 0.2 0 0 0 0.08 0"/>
<feBlend mode="normal" in2="BackgroundImageFix" result="effect1_dropShadow_1923_10250"/>
<feBlend mode="normal" in="SourceGraphic" in2="effect1_dropShadow_1923_10250" result="shape"/>
</filter>
<filter id="filter3_d_1923_10250" x="28.1538" y="38.5384" width="191.231" height="128.616" filterUnits="userSpaceOnUse" color-interpolation-filters="sRGB">
<feFlood flood-opacity="0" result="BackgroundImageFix"/>
<feColorMatrix in="SourceAlpha" type="matrix" values="0 0 0 0 0 0 0 0 0 0 0 0 0 0 0 0 0 0 127 0" result="hardAlpha"/>
<feOffset dy="13.5385"/>
<feGaussianBlur stdDeviation="13.5385"/>
<feColorMatrix type="matrix" values="0 0 0 0 0.2 0 0 0 0 0.2 0 0 0 0 0.2 0 0 0 0.08 0"/>
<feBlend mode="normal" in2="BackgroundImageFix" result="effect1_dropShadow_1923_10250"/>
<feBlend mode="normal" in="SourceGraphic" in2="effect1_dropShadow_1923_10250" result="shape"/>
</filter>
<filter id="filter4_d_1923_10250" x="349.538" y="0.461538" width="191.231" height="145.538" filterUnits="userSpaceOnUse" color-interpolation-filters="sRGB">
<feFlood flood-opacity="0" result="BackgroundImageFix"/>
<feColorMatrix in="SourceAlpha" type="matrix" values="0 0 0 0 0 0 0 0 0 0 0 0 0 0 0 0 0 0 127 0" result="hardAlpha"/>
<feOffset dy="13.5385"/>
<feGaussianBlur stdDeviation="13.5385"/>
<feColorMatrix type="matrix" values="0 0 0 0 0.2 0 0 0 0 0.2 0 0 0 0 0.2 0 0 0 0.08 0"/>
<feBlend mode="normal" in2="BackgroundImageFix" result="effect1_dropShadow_1923_10250"/>
<feBlend mode="normal" in="SourceGraphic" in2="effect1_dropShadow_1923_10250" result="shape"/>
</filter>
</defs>
</svg>
