<svg width="252" height="252" viewBox="0 0 252 252" fill="none" xmlns="http://www.w3.org/2000/svg">
<g clip-path="url(#clip0)">
<path fill-rule="evenodd" clip-rule="evenodd" d="M182.178 151.999C181.067 151.236 179.817 150.701 178.499 150.422C177.182 150.143 175.822 150.126 174.497 150.373C173.173 150.619 171.91 151.124 170.781 151.859C169.652 152.594 168.679 153.544 167.917 154.655C162.661 162.306 155.428 168.388 146.989 172.253C138.549 176.118 129.219 177.621 119.992 176.601C110.766 175.582 101.989 172.078 94.5968 166.464C87.2045 160.849 81.474 153.335 78.0158 144.72L107.748 152.687C110.375 153.391 113.175 153.023 115.531 151.662C117.887 150.302 119.606 148.062 120.31 145.434C121.014 142.807 120.645 140.007 119.285 137.651C117.925 135.295 115.685 133.576 113.057 132.872L63.5203 119.599C60.8927 118.895 58.0931 119.264 55.7372 120.624C53.3814 121.984 51.6624 124.224 50.9583 126.852L37.6849 176.389C36.9809 179.016 37.3495 181.816 38.7096 184.172C40.0697 186.527 42.31 188.246 44.9376 188.951C47.5652 189.655 50.3649 189.286 52.7207 187.926C55.0766 186.566 56.7956 184.325 57.4997 181.698L63.0771 160.882C69.0674 171.5 77.6617 180.418 88.0506 186.796C98.4395 193.175 110.281 196.803 122.46 197.341C134.639 197.879 146.754 195.307 157.665 189.869C168.575 184.431 177.922 176.305 184.824 166.257C185.586 165.146 186.122 163.896 186.401 162.578C186.68 161.26 186.697 159.901 186.45 158.576C186.203 157.252 185.698 155.989 184.964 154.86C184.229 153.731 183.279 152.758 182.168 151.996L182.178 151.999Z" fill="url(#paint0_linear)"/>
<path d="M198.648 62.8309C201.004 61.4708 203.804 61.1022 206.432 61.8063C209.059 62.5103 211.299 64.2294 212.66 66.5852C214.02 68.941 214.388 71.7407 213.684 74.3683L200.411 123.905C199.707 126.533 197.988 128.773 195.632 130.133C193.276 131.493 190.476 131.862 187.849 131.158L138.312 117.884C135.684 117.18 133.444 115.461 132.084 113.106C130.724 110.75 130.355 107.95 131.059 105.322C131.763 102.695 133.482 100.455 135.838 99.0944C138.194 97.7342 140.994 97.3657 143.621 98.0697L173.353 106.036C169.895 97.422 164.165 89.9073 156.772 84.293C149.38 78.6786 140.603 75.175 131.377 74.1555C122.15 73.1359 112.82 74.6387 104.381 78.5036C95.9409 82.3685 88.7078 88.4507 83.4522 96.1022C82.7086 97.2545 81.7415 98.246 80.608 99.0181C79.4745 99.7901 78.1977 100.327 76.8531 100.597C75.5085 100.867 74.1234 100.865 72.7798 100.59C71.4361 100.315 70.1612 99.774 69.0304 98.998C67.8996 98.222 66.9359 97.2271 66.1963 96.0722C65.4567 94.9173 64.9563 93.6257 64.7245 92.274C64.4928 90.9223 64.5345 89.5378 64.8472 88.2025C65.1598 86.8672 65.7371 85.6081 66.5449 84.4998C73.4474 74.4515 82.7941 66.3256 93.7047 60.8875C104.615 55.4494 116.73 52.878 128.909 53.4157C141.088 53.9533 152.93 57.5822 163.319 63.9606C173.707 70.339 182.302 79.2569 188.292 89.8743L193.869 69.059C194.574 66.4314 196.293 64.1911 198.648 62.8309Z" fill="#FF6984"/>
<rect x="85.1498" y="113.966" width="81.4169" height="25.6431" rx="2.56431" fill="#FFA114"/>
<path d="M96.2637 130.094V122.634H101.203V123.935H97.8409V125.712H100.875V127.013H97.8409V130.094H96.2637ZM103.033 130.094V122.634H105.976C106.54 122.634 107.02 122.735 107.419 122.937C107.819 123.136 108.124 123.419 108.333 123.785C108.544 124.15 108.65 124.578 108.65 125.071C108.65 125.567 108.543 125.993 108.329 126.35C108.116 126.704 107.806 126.976 107.4 127.166C106.997 127.355 106.509 127.45 105.936 127.45H103.966V126.182H105.681C105.982 126.182 106.232 126.141 106.432 126.058C106.631 125.976 106.779 125.852 106.876 125.687C106.975 125.522 107.025 125.317 107.025 125.071C107.025 124.824 106.975 124.615 106.876 124.445C106.779 124.275 106.629 124.146 106.428 124.059C106.229 123.969 105.977 123.924 105.674 123.924H104.61V130.094H103.033ZM107.062 126.699L108.916 130.094H107.175L105.361 126.699H107.062ZM110.534 130.094V122.634H115.56V123.935H112.111V125.712H115.302V127.013H112.111V128.794H115.575V130.094H110.534ZM117.584 130.094V122.634H122.61V123.935H119.161V125.712H122.352V127.013H119.161V128.794H122.625V130.094H117.584ZM127.777 130.094V122.634H130.764C131.312 122.634 131.77 122.716 132.137 122.878C132.503 123.041 132.779 123.267 132.964 123.556C133.148 123.843 133.24 124.173 133.24 124.547C133.24 124.838 133.182 125.094 133.066 125.315C132.949 125.534 132.789 125.714 132.585 125.854C132.383 125.993 132.153 126.091 131.893 126.149V126.222C132.177 126.234 132.443 126.315 132.69 126.463C132.941 126.611 133.143 126.818 133.299 127.086C133.454 127.35 133.532 127.666 133.532 128.033C133.532 128.428 133.433 128.782 133.237 129.093C133.043 129.401 132.755 129.645 132.373 129.825C131.992 130.004 131.522 130.094 130.964 130.094H127.777ZM129.354 128.805H130.64C131.079 128.805 131.4 128.721 131.601 128.553C131.803 128.383 131.904 128.158 131.904 127.876C131.904 127.67 131.854 127.487 131.754 127.33C131.655 127.172 131.513 127.048 131.328 126.958C131.146 126.868 130.929 126.823 130.676 126.823H129.354V128.805ZM129.354 125.756H130.523C130.739 125.756 130.931 125.718 131.099 125.643C131.269 125.565 131.402 125.456 131.499 125.315C131.599 125.174 131.649 125.006 131.649 124.809C131.649 124.539 131.553 124.322 131.361 124.157C131.171 123.992 130.902 123.909 130.552 123.909H129.354V125.756ZM135.327 130.094V122.634H140.354V123.935H136.905V125.712H140.095V127.013H136.905V128.794H140.369V130.094H135.327ZM142.093 123.935V122.634H148.22V123.935H145.936V130.094H144.377V123.935H142.093ZM150.362 130.094H148.672L151.247 122.634H153.28L155.852 130.094H154.161L152.293 124.339H152.235L150.362 130.094ZM150.257 127.162H154.249V128.393H150.257V127.162Z" fill="black"/>
</g>
<defs>
<linearGradient id="paint0_linear" x1="143.396" y1="178.167" x2="44.3228" y2="151.621" gradientUnits="userSpaceOnUse">
<stop stop-color="#592E8A"/>
<stop offset="1" stop-color="#AB51D5"/>
</linearGradient>
<clipPath id="clip0">
<rect width="205.137" height="205.137" fill="white" transform="matrix(-0.965926 -0.258819 -0.258819 0.965926 251.241 53.0933)"/>
</clipPath>
</defs>
</svg>
